<mxfile host="Electron" agent="Mozilla/5.0 (Windows NT 10.0; Win64; x64) AppleWebKit/537.36 (KHTML, like Gecko) draw.io/28.2.8 Chrome/140.0.7339.240 Electron/38.4.0 Safari/537.36" version="28.2.8">
  <diagram id="qQNU9_S9YZNh-rqn6-ib" name="ページ1">
    <mxGraphModel dx="692" dy="595" grid="1" gridSize="10" guides="1" tooltips="1" connect="1" arrows="1" fold="1" page="1" pageScale="1" pageWidth="827" pageHeight="1169" math="0" shadow="0">
      <root>
        <mxCell id="0" />
        <mxCell id="1" parent="0" />
        <mxCell id="PYP074a0QvLQaTvZ_e5b-1" value="" style="shape=image;imageAspect=0;aspect=fixed;verticalLabelPosition=bottom;verticalAlign=top;image=data:image/png,iVBORw0KGgoAAAANSUhEUgAAAm4AAAHlCAIAAADDVefCAAAAAXNSR0IArs4c6QAAAARnQU1BAACxjwv8YQUAAAAJcEhZcwAADsMAAA7DAcdvqGQAAAAYdEVYdFNvZnR3YXJlAFBhaW50Lk5FVCA1LjEuOWxu2j4AAAC2ZVhJZklJKgAIAAAABQAaAQUAAQAAAEoAAAAbAQUAAQAAAFIAAAAoAQMAAQAAAAIAAAAxAQIAEAAAAFoAAABphwQAAQAAAGoAAAAAAAAAYAAAAAEAAABgAAAAAQAAAFBhaW50Lk5FVCA1LjEuOQADAACQBwAEAAAAMDIzMAGgAwABAAAAAQAAAAWgBAABAAAAlAAAAAAAAAACAAEAAgAEAAAAUjk4AAIABwAEAAAAMDEwMAAAAABMz8BIJY/XoAAA/r9JREFUeF7s3XV4FGf+APB3ZtbdN7vZuLuQhCQQ3FqspUbdKBWo96699u5qdxUqV6Fe6oYXh+AaEkKIu/u6+87M74+BZVkCFUrb+937eZbnYeZ9Z+bd2c1+55V5B2Gz2QD6MyFJEgCAoij1H5Ikg/8BAGAYFr4BAAAABEGoDKGbhO4nVDAzgiBhSUE/mYGCoiiTyQQA4DiOIAhBEDiOoyhKp2MsFsvj8QQCOAIAQeA0BMMJnIZhGIYBBAEkaTJbEABoNBqLzcIJABAEAIAgAAHUf5Dzi3G2PAhBENSJOp0NQRAURXEcp7JRAAAEQRAEiSIYgiAYhiEoAgBJkgQFRQFVbIIgURTBaBggSb8fR1EMRVHqROE4TpJkcJE6fuiHQpIARREURamzHcyPYRhBECiK0ul0AIDf70dRjEbDCAIHAJAkgSAIhqFut5skAY/PC/gDOI4TJAFOv2s0+C4AAF6/j06noyjq9/tIkqTTGYGAn8FgIgigYTSCJHCcYDKZLBaLJEmbzYYHAINBxzAajYb5/X6Px8vn86gd+v1+r9fLZDIRBPH5fGw22+cPMJjMM58dncPhUCX3er08Ho/JYJKAZDKZPB4PRVG3240gCJPJZLPZBE54fV4Mw1AU9Xm9Lrfb5/N5vV4AAI1G83m91LvDcTIQCFBbkSRhNJqcTieTyaQORJIEjhPUSaPRaBiGoQhJfZco1Id1+qM/c9qD/6eKGromKPRrQH1dqf+P8Y06g/qgz3wrCGo/ofu/kLA/tNA9B78tp7+XCBJWwvMzj7kYzBn69QsV3M+Fks793p7+4wrdLYXBYAT/SKg81Gmh/r7O3zl1fsI+F2rDi5yWUKHFC938/J0Ej3V+McIE8wTfYHBXoduGnbTQPYeV9mKn9/xQiseU4uo8QppAssWAHp4KQRAEQf+DkIAH9VgwUw9t5BR94HhoTD0nlJKSWF/+7YQi7eymEARBEASdi2ZoY9d9g5r7Tld8g6E0kL7An3tTeHYIgiAIgsbCrP+B3rIFQRCM6sU5HUdJkuqvgiAIgiDo4nBlJkoG6KZOlGrXhXEUgiAIgn4pT9YNuCgao9PpvgkPk1w5jKMQBEEQ9EvhfDXCSJ3um/BQcNU4bPRsOgLIAIETgKShKA3F8LOD0SkogSIkSiAEjgZIkqglNGEZIAiCIOj/PRRX54evC4UiGIrQUUAD4bVWBEEIDOA0QCAkSRABwn9OMgRBEAT9b0AJaXz4uiASAATBAYnjBEngACAAIMEbU3Gc8OEBP/ATKA4QBEXGnjoAgiAIgv5/Q0m2+Nw1JADnTAPBYdH5bAaLhgESABJDAAoAQBDApGMCFp1FByhKIihCR5nn7AaCIAiC/jegYfMZIQhJvah5HGgokhEjL0rTxEfKAEAQgGAABSRgMWgp0bIJGVHxciGbjhLk2Ym4IAiCIOh/SvjEkigSQBEcASQJAAEAi0m7flrmM7dOumN2jkTAQkAAIXEiAKJkouVXF/31xomTc+JFHE7Ah6Nnm37PUfF0Gfnpgoemj9GMTCWVJUkBAJuWFwX/fyHv3pQVuitq8UI7/w21/3s6daCLlJAqP/V696as4PpgIanXpuVF52wGQFmSNJja/u/pYamhHpoeb3hrTvja81zkWEEPTY8f80yOeTLb/z39IgWjdhW+FoDg5xu+FoCKp8su/kYMb80Z82RCEPQHkvMZedHCcTGiMV950UI5nxG+zR9q8NUpNxapwteecWORqu/lyeFrf63wUEqQNILESBJBSBIjSCYJEIIkSVLEY41LiCBIwuUNCDisOKVEIeLSaBidTkNRhDhvbt8wN46PDFtTliRNUnCDiwtXViFLNh/uMJ6T6VwPfteALNn8zt5uanH5tLiHv28MXXOZtIzYkSWbkSWbV+7rOfTkhPBkAAAACgGTyjPp1aPLp8UFA0C0hH2820wlIUs2L1xZFbbh9YXqSa8epVKpMBOWgUJ+uuDtGzPD157H8NaczbWjVDEW5EZcKA79c37yw983Uudt0/KiG4sigyUMO5nv3pSVpDz7Mf0iJS8dpt4UtZ9g+Cx56bDJ6b9QpCc/XfB91VDwZEZLfmIWaMNbcy70NiEI+g1pxOxRq7dd6xjzNWr1asQ/8df6O/vL+rZPbk4fM5reWKT65Ob0pza2hyf8WuGhlCRRkkQRksQIHAACIRECJ4cNdrPDnZ+sYjPpfoKIkHHj1KIRo93i8BAkiaLY+fsJ1aF1FseLw+pzT8xOMDl//aBfam+n+q3hCZdBMP49+F0DVQ8LzwFAyUuHqf8c7jAe7zYXxIqoRYWAqbN5z8l6rge/awheQOxq0oVeXgRRAXLlvp7whHNREYUq7eEO4+ba0dkZivBMALx7U5bJ6adCZlmSdEFuhOyRneGZzrixKHJzbcj9Ub+Rlft6FuRGhK8F4N2bsowOH3WeqXdx/sUHBEF/CBRBHN6A3TP2y+ENoH+ybr7vq0bu+bb5/GhKxdF7vm3+vmokdP2lGDsEIgAAhCQQ0o8iGA0dNth7R63RKlGElMdkYlER/AgZp6ZjxOn2AQRQjyQK30UIo9PXoXU+MTshdOWC3IhdTbrgYmg7YcXTZdSLauILVtSottCyJOm7N2VRtcNDT04I1nWC+cNaBalFaj21Jth+WPF0Wfu/p4dWj4JJF2nSvKzxe8zLC9kjO39ORCmIFXXonMHFvS0GCZd+Tg4AqGzBM//E7ITj3ebwHGdUPF12tNPUb3KHJ5wntJk6tN2Y+nTa/z19+bQ4KY8RPLHv7O02OnznX5R0aJ1S3gXbiIKHoL4S1HdGymMsnxZHHTe07jvmlyrYDn/xFmYIgv5/OD+aXo44esFQSiCoH6X5aKgfIeh0zGx3945aCJJMiZIqxVy1lM9i0E60DqMIgmAkgQQIMkCGjPs9364m3YRESXDx3ZuyOrTONSeGz8kUojheXN1roZr4iuPFYb+5D37XMOnVowCASa8epWpU7f+eLuUyxmxipZqCgy2o7f+ebnL6qUWdzRvaeml4a87RTtNF2lorni473m2+eCs0ACBJwa3utVD/l3IZC3IjfrLzkrJ8WtxPVj0vQsplhNaAT/VbxwxLSQpu8MynqfjVvZbQa4tgtndvykpScH9OCAcAbFxWGGwDf/vGzLAWiORn9q7c12N0+JAlm5Of2UutNDn909NkodmoENuhdY7ZZUt+umDlvh7qKEkK7qblRe/s7UaWbDY6fNT6n2znL44XAwCoPZic/otcLUEQ9P9GaDS9THF0jFAa7PREAELHERpOoAiJB4DR6GnvN2bEKcYlqyV8jsHs6h02YSjASIzEAUniBImH7SoU1WQXDG+zMxShVdLzdWid1CaHO4wdWuf5v7mhHpoen6TkBn+jz2/bDMansJwLV1YZHT7q/1SzZzByrNzXQ/3yho7K0dm8wYbcC6FCdbCJMvmZvcEAvyA3YsxoGhzWNOnVoz8ZDy6dlMcIvRpYPi3uhS3tVCGL48VUCcuSpMunxV393olztrywYM4Hv2s4vwViTC0jdoVgjBuoqLj79o2ZoYO8Ni0vOt5tDp7V76uGQq/MfqYOrTP4+d79RW2SknuhQWQQ9PsINrRc5BW+DfTLBaPpZYqjY4RSDEOpp6UDEiAkgqAoAAiGolaXp7pjKFopnF2YwOcwm3r1Ph+OAABIgAAMReg/OUXD0U4TFd6oeBb8WRyT0Xk6wlH/H/M3NyhJye3Qnm3YPL9tM5h6fs5gg2q0hJ2k5Aa/vqFjfKjhTlRV9SKDeKl6LRUMwhMAONxhXLmvZ8wAEAy3G5cV/vyqUuiw25+/1fk2144G4/fm2tE0FZ+qZa7c13N+/Tt0oHJoFTY0509+Xj+JOuGba0cPPTmBuvxSCJjF8eLgoZdPiwvf5mcI/VJRBc6LFp6TA4J+X8Hhfhd5hW8D/SmdH0qRM13HJNVlSpAAwYDL72vtMwACJEZKvP5AU68eo2EkQEgAEIAiyOmpGy5i4coqqh5w4/jLMpLl0oUOtR3zS7xwZdXxbvOK69LD1gc7C7+vGhozjlLCovj5ZI/sTFJyz2/bHFMwwAdbTcNiWF60MFjn/pn6TW4Jl/7uTVnBDkgqblEXGWVJUmqgNfW6SAX94iOtfqaFK6tW7uu5sej02G9qZHLwdZGhUj/fZe32hiDoTyLYrjvmKKTfxHnxjwRnej0RQAKSpGqdgMBJg8FT16Ft7Te0DRiGjDYGg4agCAIuNuAozPFu86o7covjxa/v6gpPuwQdWmfYDRvT02Rjjt85P2dwsd/kHnP07M906MkJD3/fePGqdpKSO2apfivVvZbQtzA9TRY6CinI6PAFK9ZhrazREjbVOh0atFbu6+nQOi9+q1JoTT1Jwf05I5V+cmxz6MWHzualqssXFzZqKeyzlnLPJlHXKxd5RxAE/f8Q2j96/iik30p4KPUHcBwnCJKkqqYETiIAoCRKI+iED113oPm1H47trenxBXAUQU4P3UVI8tzpBi/k+8qhJCX354zc+UWosSrBRk7qBo8xx+9QA0eDLZOhTZQPftcg5TFCRwtTvYablhcFq4kPTY8vjhf/dW1zcCsKNYpqzG7O0FItnxZH9RBTVViq6TK0bbbi6bLgfgxvzTl/3NPFUW+B2i11Es4vKtWmfX2hmvr/wpVVxfHiYB/2hc7bT1p1Ry71H+qknX9Jcf7Q3DEj7rs3ZYWNF6OuBl7f1ZWk5AZ7mqnButT/TU5/8N7T4J2ywc1P7wgAKrIGt/rn/OQ/Z9MIBEG/ofPHGV2maBoeSkOQAAACI3V2p8nmwQMESSOtHo/O4nB6fCiC4AQxbHRYHB4P6QvQfQHsYsOOKFTM+75yKDzhklEtnFSDJFVBHDOwUY2owV636l5Lh9YZ/EGnxt0Ed0JVnfe2GKghMFQH6qRXj55/HRDWz0q9qCQJlx5aqvNjjNHpC24i5TIu0j78c1Cjl4OHO7+o1Gjq0DFZwU2oIbIXOm8Xt6tJR+3hQnepUhcxwW7dh6bHS3mM889Gh9YZLAz56QKj00c1Ix/uMFLjtoIfRHDbXU06aj11xfPw943BbA9/3xi68+Pd5tkZCiqpQ3d2CBIEQT8HQZI8Jo3PGvvFY9J+cq6e39n5cZRyOaIpAu7eFLo8DhsF5Ok5ABFAYjQkVi3yeZBRg8eF+xAGjuIkQgIEADqGJkVJrQ6PzuFw+Lx0QDvlP13X+S9ieGvOC1vaf138+O/1h7/r9n9Pbxmx/57BjKriX6R/F4Kgi5PzGRox+0LzMBAkOWh26+2/bHzGZdX38uSnNrZfaLzujUWq165J0Tx5IDzhVzk/lI4QOI0kEAQlUaqiiZAkgRIkiqMApQMaTgLinGeAk9QAJRLU4L9ZhP99VDxdlqTgjlmL+v/toenxb9+YeZG6+2X1h5x2GEoh6H8NQs0m/7sID6UFtBE8QCMIBEVJjBYgSQQAAEhAAOAHCB1DUJK8UOlO4mNMBfdnY3hrTrDTrkPrvMQGVei/BQylEARdPuGhdBw2ejp8AkA9ao1CkMBPACaKIMgFAul/SSiFIAiCoN9WeCiFIAiCIOgXucgIXgiCIAiCfhoMpRAEQRB0SWAohSAIgqBLAkMpBEEQBF0SGEohCIIg6JLAUApBEARBlwQBd2+CT5eFIAiCoF8N1kohCIIg6JLAUApBEARBlwSGUgiCIAi6JDCUQhAEQdAlgaEUgiAIgi4JDKUQBEEQdElgKIUgCIKgSwJDKQRBEARdEhhKIQiCIOiSwFAKQRAEQZcEhlLoMnr88cfnz5//7rvvhicAAAB47LHHLpL6+2tra5s/f/78+fN3794dlrRt27b58+dfddVVvb29YUk/k9/vX758+fz58z/++OPwtBCbN2+eP3/+NddcMzAw8Oabb86fP//JJ58MzxSiqamJKvOBAwfOX/xNrFixgtpn0Oeffx6e6TxOp/Oee+6ZP3/+F198AQBwOBzU4pdffhmeFYL++8FQCl1GR44c2bp1a319fXgCAMHUhoaG8IQ/iMVi2bp169atWwcGBsKSent7t27dun37dpvNFpb0MxEEcfDgwa1btzY1NYWnhejp6dm6deuOHTvsdnttbe3WrVsrKirCM4UwGo1UmYeGhgAAPB6voKCgoKBAKpWGZ/3lvF7vO++889VXX5nNZmq3BQUFvb29n3766U9GRL/fv3///q1bt7a2tgIAaDRaVlZWQUGBRqMJzwpB//0wkH/jcwtSwldD0KWxWq27d+/etGmTyWSSSqXR0dExMTEIggAA+vv7Dx482NbWtnnzZpPJNG7cuEmTJu3evbutrY3FYolEImpbatFqtR46dKitrS2YarFYysvLqTVtbW1arTYmJiZ43Iuk9vb2BnfFZrOFQmFwq9ra2qqqqlOnTlH10YULF+bl5QVTAQAnTpzYvn07hmFLly5VKpU9PT2HDx8OHsXn8ymVymDm81PpdHp5efnmzZutVqtcLo+Ojo6OjgYAnDp16sSJE21tbZ2dnSqVislkVlZW7ty5k06nL1269MiRI/X19TExMXfeeWdYZrVazWAwuru7d+zYsXfvXgBAbGysRqORSCR+v1+lUsXHxwsEAqPRuGfPnmBJjEZjVFQUAKCmpobaFYXH4wkEgtD3S3G5XEuWLGltbV28ePG///3vKVOmTJky5dChQzt37rTZbLfffjsA4OTJk9XV1cFd8fl8Pp9vMBh27dq1detWh8OhVCqjo6M1Go3b7ZZKpbGxsXK53O/3HzhwoLGxkdqqp6dHrVbT6fSOjo6jR48G90YQhFwuD5YnLJUkSZlMdk6JIegPc/cmEoJ+a6dOncIwLPgty8vLw3GcJEmz2fzaa6/R6fTIyEgGgwEAuOeee+rr6zUaDZ1Of+WVVwYHB3fu3IkgiFwuf/fdd1999VUqM51Of/XVV81m84kTJ6h9ikQikUiUnZ09ODjo8/lIknQ4HNu2bQMAKBSKyMhIkUiUk5NDpZrN5pdffpnBYFC7ev31181mM1VUrVa7ePFiLpcb/NVetWpV2NtZuXIlAIBOp9fV1ZEkSTVKIwiiUCg4HM4dd9yh0+monCaT6cUXX6QORPn73/9+4sQJKlRQFceFCxcSBKHVaq+99loejyeXy5lM5r59+5xO51tvvQUAYLPZTU1Nt956KwCgrKyMIIjR0dFrrrmGx+PJZDI2m33gwAGn0/nxxx8HY4lYLH7uuecOHjxILX7zzTd2u33dunUIgiiVysjISKFQWFJSMjQ05Pf7b7rpJgAAk8lUq9U0Gu29996zWCxhb5kkSavVmpSUBAD4y1/+Elx5ww03AACmTZsWushkMlUqFY1G++CDD6xW6+HDh6lFAACfz7/hhhtMJlN8fDwA4KmnnvJ4PI2NjdHR0RKJJDIyUiaTiUSiiooKl8v10ksvAQBQFI2IiGCz2cuXL9fr9dSBjEbjk08+yWQygyf2lVdeCZYKgv5YMJRCl8WFQulf//pXoVCYmZk5NDSUm5tLhVKfzzcyMpKTkyMQCCIiIqjGyZ07dy5btkwgEGRnZ4+MjGRnZwsEgr/85S/BUPraa6+tWLGCTqerVKr6+nqSJL/88kupVIqi6O7du0dGRqgwrFarGxoaHnvsMYFAkJeXNzg4mJGRIRQKn3rqKZIkA4HA9OnT2Wz2HXfcQYXhnx9K6XT6vn37Fi9ezOFw5s6dS+V8+OGHBQJBQUHByBlWq9Xn8/X19aWmpgIA7r77bqPR6PF4Jk+ezGazlyxZsmnTJgRBZDLZmjVrxgylLperrKyMzWbfc889P/74I5V53bp1Dodj48aNVJnfe+89m80WGko//PBDiUTC5XKPHDkyMjLy7LPPMhiMhISEzs5OKpSWlpZ2dHTEx8eLRKLnn38+7C3/olA6ceLEtra22NhYkUj04osver1eahEAsGzZMqPRGBpKDx48qFAoMAz7+OOPR0ZGVq9ejaKoXC7fsmULFUrFYnFVVdW8efO4XO4NN9xAHejuu+/m8/lTpkwJnli73R4sFQT9sWBfKfTbKy8vf+ihhwiCCK7p6uqaP39+R0eHzWazWq10Oj0iIoKqpVExiVq02Wyjo6NGoxEAIJVK77333ttuu62vr2/JkiV9fX02my20q1IgEAgEAr/fPzo66vf7qQbJ4LYRERGLFy/euHHjJ598Eh0dTW3b09OzdOnSgYEBq9Ua3JXRaHS73RwO55f2L1Ihjc1mu1wuk8lErbzzzjtvuummrq6uJUuWLFmypKmpSSAQ0Ol0pVJJ1dK4XK5EIqHT6S+88EJJScmePXuo2pXBYHC73eHHAAAAwGAwXnzxxeLi4j179rz66qvBzNSuqDxCoZDP54du5XQ6TSYTVciIiAg+n+/z+bRabSAQCO6WKpXFYrHb7aHb/lJMJpOKjhaLxeFwMBgMapGqhQcLSfF6vTqdDsdxkUgUEREhFosJgtDr9R6Ph8pARVYWi+V0Os1mM7XygQceuPrqq5uamqgT293dzePxQncLQX8gGEqh397AwMDhw4dJkly6dOnzzz+/cOFCm822fft2i8USnvWient7e3t7uVxuUVERl8sNT/4pWq22qqqqqqrK6XRSa7hc7vjx4x9//PHnn39+7ty54Rv8FnJycu66665HHnlk3LhxJ06cePfdd7dv3x6eCQCCIOrr6w0GQ0RERHp6enjyuajMRqPx52T+/yo/P/+ee+5Zvnx5Zmbm0aNH33rrLaqTGIL+DGAohX5j9fX1tbW1QqFwwYIFTzzxxD//+c9ly5ZNmTIFQZBDhw4JBILc3Fyr1bp58+awyDp58mSqSZDaViQSDQ4ODgwMsNnsnJwcNpsdmnlMsbGxkyZNIkny4MGDmzZt+vzzz9955526ujq3252bm5udnc3hcHLOoIaSIggyZcqU6Ojonp6eQ4cOhe/xlzt16tTw8HBOTk5WVhaLxerv76fG1qIoOnXq1KioqO7u7sOHDxME0dbWZjabZTJZYmJi+F7OFZo5ISEhNEkqlc6dO5fH49XU1DQ2NoYmJSQkTJgwIRAI7N27d9OmTU1NTTKZjMocmu0iaDTa9OnTIyMjOzs7N50xNDSUmJhYWloamlOv12/fvt3pdBYUFFDBnk6nz5gxQ61Wd3R0HDt2LDSzXC6/4oorOBxOdXX1pk2bKioqGAzGzJkz1Wp1aLYwJ06cMBqNOTk5mZmZdDq9t7d3ZGQkPBME/WFgXyn0m3r66ac1Gs2sWbMCgUBwJTXMRKPRfP311999950mRGg/3JNPPqnRaObMmUMQBLXm22+/Dc385JNP1tXVUf//9ttvv/nmG41GExUV1dDQQOWvra0NzR/swiRJ8quvvgpNevrpp4NJTzzxRGjSDz/8EEyifPHFFxqNJjY2trm5mSTJzz//XKPRxMXFtbS0PPbYYxqNZsGCBVTORx99NHRXa9euDd3PI488otForrrqKmrx4YcfDs28bt26VatWaTSaxMTE9vb2hx56SKPRLFq0iMpMLQatX7+eWu90OidPnqzRaJ577rnjx49TqRs2bCBJsqKiInST6667jtpk+fLl1KLdbp80aZJGo3nxxRdPF/E8DzzwQOhONBrNv/71r2BqcNgRlbRly5bQbe+77z6NRrN48WKLxVJaWqrRaF566SVq9Bm1SMnMzOzv76f6pDUaTVZW1sDAwNKlSzUazU033UTtiloM2r59e+iBIOiPhYC7N5GfLgiPrxD0a9ntdpfLRaPRQrseA4EA1YtJ3XQR2uXJZrODd2LYbDa3202n04O9a263Oywzm82mOiZDdyWVSqmeSL/fH+y2pOpGF9oVh8MJdi5Sxw0mCQSCsEqwy+Wy2+0IgkgkEhqNFrrocrlCy3zxXYW9wbDMQqGQIIjgnp1Op8fjYTAYYrGYur8o2JtIZWaxWAAAathwIBDgcDhMJpPqXKRSqaHLwU3CdsVgMEQikdFoxHE89GyECTsu1U4erNouXrx49erVZWVla9euDS0VJXggoVBoMplwHKe2JQiCWqSyoSgqkUgwDHM6nQ6Hg1p0OBwXefsikYjJZAYXIeiPBUMpBEG/HhVKp0+fvmfPnvA0CPqfAadogCDo10NRNDMzc+rUqdnZ2eFpEPQ/47evlZIk2Ttq6dfZAAAIAKnRMqmQjaHh45t8fry5T+9w+3CCFHCYsSqRiMtEECSAE3qLq3PYJOKy4lQiHpsRtuHP5A8QvaMWg80lFbAT1BIMRUJTDVaX3uK0Or3+AE6QIFLGj5DwfvWxfmcESbo9fpPdbXV6XR6/L4CTJGDSMT6HIRVypIIxzjYEQRB0+fz2tVIcJ3/Y1/jq90fLT3TtPtkdrxZHygRMOi00D0mSBqvr398cXnugedvx9r5RS7xaohTzMBRxe/2H6vpe/OrgiNGeGiOXCTmhG/58dpf3m931X+6qc7p9RalqOu30dAEkSXp8+MHa3o2HW9YdbN5S0b6jshNDUZWU96uP9Ttz+wJNPfr9tb07Kju3VrRvPd5RXt19om2oT2vFCVIqYHNYDBQ559IBgiAIunwuY/UFQQBBkE29+kFd+AzgTo+/d9QyqLN6ff6wpMvN7QscaxpYf6i5onnQaHP7A2enEfivQBDksMH+7BcHVu9rPNUxojU7PL6A3x/Qmp0VzYOfbz/19vpKi8ON4/9l7wuCIOi/129fKyUI8mT7cFOvXsBlcVj0QICIUggSI8+Z7mTU7DhQ21fXpZWJuDQME3KZBamRKgkPQxEMRaQCdmFq5MSs6GiFgEE/O/ncL4KhqEYuKE7XFKaopUJusJbmcPu2V7Y39ujSYuQ3TM24fkrGlcVJRWmRain/Vx/r90SSwObyHmsayEuKmJYXN6coaW5x0tS8uJQoWQAnRs0Ou8vLYTEiZXwO6/RcQhAEQdBldRlDqZjPStZIdWanXMRL0kiCbbwkSfaMmLdUtJEkUMv4fpxgMWjBUIqiCI/NiFII5CLupcQ2DEXEfHakjC8RsENbOx1u39aK9mGjY0Jm9MKJqSnRshilSMxnX8qxfmcoioh4rKLUyOyEiNRoeYJaEq0URsr4DDrN6vQOGex0DMtOjBDxzt6TAEEQBF0+lyuUNvboJHz2jHHx7YMmGoZEK4QK0emJ31xef323bnd1V3aCUsBlWe0eOg0LhtIATmjNjtrOUavTy2UxqAhHkqTL62/s0Q0b7ThO0DCsd8TSNWzuHrUM6W1muwfFUAYNDR1u4w/g3cPm9gGj2xsQ8dkoghht7q5hc32X9mjToNXhUUv5XBa9X2cd1NsEXCaLQQMA4ARhtLr7tJbuEXPPiLlfZ9OZHW5vAMNQJh2jnhFGjZkaMtgbenROj49Ow0w2d/ewuWvY1DNiZtAwJp2GYag/QIwa7d0j5u5hc5/WqjU7Pb4Ai0Eb0Nta+g0mu1sh4gZ3SHF6/KNGR/eopXvY3DtiGTLYjTa3HydYDIyGnX5rCIKwGLRkjVQl5Qu4TCYdw1CEhqF8DpNBw/QWV2u/QcRjFadrxPyfnh4IgiAIunSXMZTKRJwbpmY2dGuNVreYz06PPf0Eq/5Ra0XzYNuA8eqJqV4/PqS3hYZSt9d/qK7/xa8PjRgdwWFHAZwc0tteX11xpKEfJ0g6DVuzv2n9weatFe2H6/vaB4wMOiYTcthMerACanf5vtndEDrsqKZ95Ls9DV/vrrc4PAGcaB80lld37anuPlTfPz4tUiXlB3DCaHMfbRz48UjrxiOt2yo69tX01LSPGKxuFpMm5rOocAsAMNk95dVdb6w5ZrZ7OCzGyfaRNQebNhxq2VbRHqUQqWV8Gg0dNTl2nuhad7D5xyOte0521XSMmuxumZCz7XjHqu013cPmmQUJwQBJDYZq7TfsPtm14VDrj0dbt1d2HGnobxswujx+MZ8l4DJR5IJjiUiSDODEqMnZ3K/vHbVkxCkKUtRCLryBHYIg6PdwGYcdYSgiE3Hi1WKnx9/abwg+J6RXa2kbMPDYjLwklfAXNkJ6/Hh12/Ar3x05UNszYrJ7fH6b09vYq1u5oepIQ7/JNvaDNX6mfq31u93172+qOt48qDM7vf6Ax+cfMth2nej8cHP1pqNteMijTgAAOEFaXZ5Pt538fl9Dc6/e4fYT5OmkrmHz5ztOfbenoaVPb3N5Xd7AoN66/XjHx1tOnuoYY+JQp8d/qL7v7fWVaw80tw0Y7C5fACdsLl9zr37NgaY31lT0jlq8/tMP9AhDEKTLE2gfNO6s6qhoGuBxGNPz42DrLgRB0O/mMtZKpQL2lUVJHh/er7M63L4kjUzEY/lx/Eh9f12XNjVaNqMgvmPQ1DFoDK2VUg2zx5oGVFJ+UVokVSslCNLq9Byq7x/QWb2+gJjHWjAhZX5pyvRxCQmRYrcnMGJyYBiqlvEjZaenoPP4AifbR3pHLTFKYUmGhk7D+BxGSpQsNzGid9Ti8QXmFictu6pozvjE2YWJKVFSh8d/vGlw/eEWi8NTmBo5tzhp4YTUKTmxMRFCg9WlNTt9fkLIY0XK+CiKuDz+jkHj8ZZBu8sHADIuWX31xLSrJqbOLUnOTYzw40Rly9DWina3z1+WFbNgQvK80uQJmdFKMa9n1DJksAdwQi7izClKpGqlHl+gc8j0ydaTWrMjI1YxtyT5qompc4uTJ2RFqWV8tzfQp7U6PP5kjUTIPSdAbjra+vHWk9uPd5RXdx6s6xs2OmIjRPNLUsana3jssxV0CIIg6LK6jLVSSlqMTC3jG23uU50jfpwY0Nn6dVY6ho1LUTPptF/6a+8PEFIhZ8HE1FmFCZNzYiflxMwuTLyiOInNoHcNm7Wm08/SGpOYz06LkRWkqPgcBooiMRGi0syo0oyo8WmRAi5zQGdt6NFanJ7seOUVRYlzChMn5cRMzo29sjhpdlGiSsrvGTUfa+wPhNxkQhKkw+UrydDMLU6anh83MSt6QmZUhIQ3anI09ehcHn9RSuSc8YmzChImZ8dMzY2dV5qcn6wS8VihD/IEABhtrpqOkY5BU25ixNyS5NmFCZNyYiZmRU3OiZlbnDw5N1bAYVY2D+otrtCjAwD6Ri3HmwaPNQ1Utgw1dOu0ZgeCIBIBm89hwlkaIAiCfjeX/QdXLeNHK4UESdZ0jHi8geZe/bDBLhWycxMi6LRffHQui54SJZ1VkKCRCzksOptBi5ILSjI0Qh7T6vA43L7wDX62IYOte8TMYdKn5ccVpERGygUcJp3LosdFiGcVJKRGyxwuX0ufwefHyTOtuCiKivmsSdkxeUkREgE72PE5ZLD1jVq5bMaswsS8JJVSzGMz6XwOM1kjnZ4fH68Shx6Xmnqprms0gBN8DtPrC3QMmiqbBw/X959oHR7U23CcoNFQndlpsru9vnPaeOPVkkk5MZNzYidkRuckRgg4zBGj/WT7SM+I2XNuTgiCIOjy+cXB7Jdi0LAYpUgp5rb2G7RmZ12X1uLwaOSCOJXoV9ScxHy2WirgsujB6iyKIiwGTcJn4SQROPOgiV/B4vAYbS4WgzYuWS04d8BOjFIYKePTMNTs8Dg9/mCPKZ2GxihFMiEnbC4nq8NjsrtYDFpuUgT/3MkIU6KkERIuAOdUxh1u/6DeRpLkj0da//XNob9+uJt6/eXD8ic+KP9wc3X3sJkgSZvL6zm3u3ReSfIrS2esuHfmC3dNefDq8ROyol1e//bKjh+PtF5itzE0BhIHfrvRYHe6/X/S+S8CHq9N39/f39/fr7M4Xb/39Cf/k3C3w2Y3W9y/46UrCQIOs8lud/p+/e8d9Fv7xcHsV4hVClOiZDand2dVR23XKJ/DSI2WoedOivszMek0DvOcuEXN9IthGCBBcNTPr+APED4/jqKImM+kn6lfBnGYdC6bThKk2xsgzhwGRRExn0U7r27txwl/gKBhqIDDDFZVKUw6jcmghe0/gBMuj58EgCRJgiAJ8vQrWP2l4Dh5bsPwaRiG8DnMjDj5TdOz5hUnO92+XSe6TPZznooF/QZ8xkDfD88+/cPmoz1nn1v2pzJSderrxwsLCwsLC+9/Z+ee3vB06LdnOLT5mx9efefQMAC/U2ALuMDwxrde+eHbrU3G8DToDxMeBi6HCAkvKVJCw9B9p3q0JkeUQpgWIwvP9PMgCPUv3BirfiEahtJpGEGQdpc/cF7I8vgDbm8AQRAmAwteBCAAYBgadm8oAICGojQMxXHC6fGFDfr1B3CfHw/bP4YiDBoNAHDXFXkr7pv5zoNXjPkqy44W8sa+vwVFEDqGyoScCAmPzaTZXF6Hy+sL/E5/2r9M3/5dH/31yqC/fPDOvl/yk+/qHTi16YknNp0atLjC034Gv5kY2vTmq5vKq/qs4Wk/hSQA7rLZXB7vbzrbpLO759BHj81bcPVL2/e2nv5tJAK+xm/v+9uzr7353aYTJzY99betjVr7GO0Mzq7uqk1P/W1ro87hBt21h08d2EW/9pUvVn76xZM3lBSpwrNfGrvPeeSru2+5i/rgbl127Uenhq3e04levbtn00svbjpQNxQ+TSiF8APd7q8+2rR6W/PlCgCO9tZjm/7x7I42s/u3v5D0aO0dm154dtPhplG7va35yKZ/Pr+zw+bxEF6302V3eAkAxr6St7c2Hd707Au7OuxeD7W447Onb3phbatd6wEADHUfL//o5vcrWje8sXLTht1tZ5+1e0EEwD0Ou8vl8f8p/8L/R/0eoZTFoKtkvAS1WG9xMuhYtEIYHGf758HnMERcls+PN/XqwvpctWanzuz0BXA+h8Fl0UPr0+FRFAAAAI/DEHCZXn+grd/g9JzTytantRhtrrD6JptJV4i5KAIYdCwpUlKaGTXmK0LCY5yZlH9M/gDh9Qf8AYIkSYCMXbY/lrVh45pv9+6swzWlpyUSdmKooz8844UF7E5D7/HjvUbnr+oNRhgIW5WYrFKIOX+WaRX9NrtpoLJRN3xoe2NnX68TgIAdN1SUH60/dqRrcNCLiVWZGREC1lifPcblSlSZmSoBk4Y5hvt7TF1G1aSrrph95RVFKeqI0w/n/o24LHh3ZQc/PSK7tLQ0P1PNIg7+eGrYYaT+VlAmxlWlpqpkQvYFTiwB3EPtLb1d/eYz4fe35rdatb0nqgcsl+MqEmPSeKq0dJVMwKL5LZbR3pMnB62+n9GlRPO5DCM9W2oHPH4PAO6R9v7a8uMtNVV9fosHALfBMNx1tMPsocljE1RqBf+/4+lU0HnCG0svBwQBSjFvVmGCVMjhc5gZcYo/4ePMlGKeRiEY1NsO1vVJBeyUaBmPxSABsDk9FU0DnUMmFp0WpxKzGLSfvMkkQszTyAUn24YP1PZy2YwEtYTNpBEEaXF4jjYO9GnDq0MSPis9VtbQrT3ROiQRsBEEkfDZDAYGSOAP4C6P3+byOj3+OJWYy6K7vH6j1e32+cU8NpdFp9MwFEUCOG53+bqHzU29+gBOyIUcLpuBnddM/Yfr3b/tYKMALVzw2KNTUgEAAPQfOmTwWXX6rt4WkJqnEfOZdL/NYdHXtIDUPA3X0z/Y29M86AQAAGFSeppS4hrpbaw3GpGju4VOW0l6pCQC0Z463mEFIABkEXGxKdkKiWuwpsUZcOs8HrsDEaqzizi9lSNGW0AcF5WYlsSWRmqAmA+cw61drS2dZz4NQUR8VGJKEnuw5nin1u72AhZHGJE0Pk/DBoxzT6S1v6b2UJvDCBAUVWdPTYwQSGhWm67/VFWnDYAAkKkS4pIzZCLXUE0LUMQolBLCq9PWnXTHTEmRCxDfkMGsd3FykyTBPz+GANWUTuI0aEf767WZkeLR0eqvmgLRCCoToiwWTxobCzj+4fZG4HMYaGC4awQAAORJBXFqPo8njY0BXLp54NipxtrWVgs78uAmUphUkMBEHYaetmEbQAFQJxcmRisR3GhsaCcU3I5hk4CjiktOkwgcgzWVHXqn1wsAoPNo4sTx+RoJahrt7GlrH7EBBABhdHZmbJRciqOYX5x22zVFccJEsa73+OFvl38/6PJaCSAFAKB0lCnVRAMhZh7uMhtGHWJ2d+cw8PqBMDI5Oik1nmsbbGwZHTB4PK49e/DEhLx8ibG7qXtAa3UBOo0uSSzOjxKxeKTZPNJXd7LHRrWXshXSiIicONDSAnhYn92JeBjRGeOj2YM1DV0GrdUHAJ3GkCaOz4sWAd/IYF9zvU7LPLiDp88uyVRzBN6R+poeKwAE4CviE+NTYiPofvdgzakug87qAww+U5I4Pl8jZNJoAADc5bOP1LSAqOQIOd/nGNa1tPhjp6TI2LirT2e1WOkx0shoIODgtpHBvpb60VHWge08rVTbZ/J6baP91RvrRgARAKKotJjE1HjRma8LWy7g85OQQ116f5IAeEZsHrs1pkQypHe73DjwWLy4x5KfpuLIBSq6kOu2DnXVdfvl3I5+fcDuAhyJWpMxPkUCaL6R3rbuzm6dnfAAw6lOg1oCAAg4vZaBmsoOoy/gB2KpOia9KEriHmxqx9kSiUbNAJbhU5UuZWG8UsEEBrO2y8jJT2brW3p6hnp0boAxgCBxXE6U6s9zZflf6/LeVzqnKJGaIYjHZqTHyKfnx5dlRWvkZ6uk9d3aX3RfKUGQKVGyzDhF6BFdHv++mh6jzZ2XpMpNjKBWnn9fKbXe6fHtOdlttnvyk1U5CaczUw28NpfvVMdIz4gZJ0gUQUgSGG2uk+2jGw+3dA+bo5XC2YWJSZFS7Mx9pbWdozFKUX6ySnzufAgYipodnlOdI11DZhRBMAzBcUJrcla2DO460dmvtaIoohBxg/eVMug0Jp1W1TrcO2o2WFxeH45hqD+Am+2eIb29qVd/pKH/QF1vRqxCwmcPGewH63oP1vZ5/QGvH3f7/E6Pb9ToqO0c3Xq8vbJlkEmnlWZGl6RH/Qlnadj53nbupJlTb5xdeOZxdsKYGJXM7zi166F/tKdOTVTKeExnRy+1OEntrV+7/pN3nvtkw56dOzdV49JEId1Sd3jVx1sbWxqqD7d6ZQy6h930w9MPv7Nu987Nm5r7PBx5kSLRsPmZ58uP7PruwM5v1pRXdksLjKv/8f1Xq7a2eR3yzInMrX9/uZ2Q0Qj94V2vP/fSNzt3blr93ZpN1TqEE5eZOLzu9Wff+WL1hh+3H6lqNJA5k5IkdC41yi3gIKxNm8ptruFNVQe+++jzrbu2rOuQXhGrESu99Q07PnvmsXfXle/cvKm1P8BTFMrijNv/+WwToZRHKrRDe9f/7d7D7PmFEQrPUPnhA2ur8XklEQAwAACeUe3A4M6jgnkzDV3uSASVxDL6D3/2kidzps0mV/EtXLT9X/9qz8xsX/Pdqb1bNrbXr/rPRzt2blrTSKTwBYDWv//plzszZ/qrP1u7ffP+KnNn0+GDe9sZUlpr677177y0at3u8q0b+n1JseoIi/VE+V//cdwx9N53a3t7A9LYPAZS+eULf33vq/WbtuzcvHn38fX1wkkzY3i6yn1fff6f1z/+YWf5zq21RnG8LCY6RiGmq/KyVDS2z2gx9fa2DdWWM7OWlMbJOFwAgHfU1b3pyX+1c3jttSfrv/6k3NK/8u1Pdm5av+6klubXFBQoR/a988qWw1XHaqvr2geHxLk5zr2r3/3o41Xfrd9xYO++9kB6SbSSxTWfPLnp82f/+t7a3Tu3b9+4/kBfiy4wPrHtxX9U9zV8tmdP9YEmburcZHTfitdXfvnRNz/u3L5/754WV+6kBEXAVLF5x9dfbW9oOlVxsAOJESAWb/W6l//59uqdO7dvq+7x8nlJKYlMY9u3//zXB9+uWr1lx766/e3MklnpMi6TCQDwDtu6tz/9TCMvJTKC39O+9cd/P1PNXVSsFlg6fzxQsXmPJXbkPy+0y1LZ9s4D+7/5ZmdDU03FwXYbMapjEqMd7p733/5455YNa2uMXEIzfnwM/cwFGJ909vvNnxxh3Zqh5ODdA1aDOWGG8niXujhRFOGo7xseOaWYfKP8wPsftAzp2q3mpjdeOuwaWfnZN1tXr954rHlYp76iNJbwd25Z++Enb77x5frd5TsP1Lb44jOLMwqincZDX/zz8Xe/37J185aGllFUNjUpwbLj7Tfqh/3s2CS/p3r135bs945LVcZh9uoT2/+z0z8ry7rr3a8+/uT1L38s331400kkpSghWi3673jA5J/Yn67i8kdRiLjjklWTcmIQBNl/qufV748uf3v7Q+/seGd9ZcegSchjjktRT8mNDRtGNKYICS8/SZWfpPbjxLbjHS98efCB/2x/7P2dH205yaBhERIui4GFjl7mMOnJUdI7r8hVywQdg6avd9c/+fHupa9vue/NrU98WP7m2optxztGjA5/AKemWDLZ3Ptre95eX/nkR7vv/8+2JSs2P/zujrfWHa9sHgrgZGKk5JYZ2Qrx6RmP/1QqOzUuUiANvxvoArS7tmy0GnhLV1VXV1dXr5ohSBXQpAVTrn7k8ZycJ95fv/vbl6dkmQ58+05N4jvV6w5W735/Yqa04Y3P6wFJgo4B2YSH7n3l47evT974yPOWeW/847Xnr8/m7dpcPgCAHwAAxElTlz76Q3X1iarqVfcvvG5pyriMHNaJV6/vL33pi2+qq6sPvPvWg/F7XljdOWo+e7cyiYP2r/SKa6Y/U129f9Ox1xf0HT96qr18z/YNqz9sTH23esOh6vKVRSmC+v/80I6oo6K6tX6zfWB4wDZYFbcA1HUDrc5oA4QRqKMACK0HIBgWceWi+Fatb/O3e/pavu59ZFKmNP6cK0YABnbYkAjlndXVlcerP7lH7hw6VlmjAwAADID8hY/efuOTjy+47tUfq44e/7aUV3Ggsydy/pfVJ44f3Po80tNW8+OeXuAYIFo+Gcj55G8ff/jaI2n8xh1v3rmKd9eqd3ZWV+//5psXr88EASao+fGNZh1+5T+rq6urjlZvXawa7a4pr9UBAAABwOixDx9+fP4Tf1tlmXLg8YlR4jFGPehOuE29xiuq1+6qrv7umdmx6J4dx/Ts+Csfvm/ilY8ve2rVmvVvrJjVv/bxHvWCf6ysrq4+8sOuj0u7v9vd3Lxnx/q1P64ezHm/esfR6updb79wS1k8ACDgBq2faDX3XPXCt9+svLGYyY9b8NrK7/dVV1dX71619VnN1v11Hf1IxqRZ8x94vGTCM1+WH/r6H1mK1t6je+OXV1cfqK6u3vnIHI234pPvOzo3rfhAMfH+DzdUV+/59JUXYvudNPx0JzSLjSkiYtuHXDbXQH+Py3RKPQNUNQKDWW8GiBVERAKAAQCALHPKnPn3Pz5h0t+/2nP462evWxDR4rIbXQuqt+6rrv76ybKIwP7yc0YhsTlCZWTywIjO5R6wAswhyYjJGhdfUevSmxp7W/q76mIjVRh6pv3e1hno+rGvaOMr31RXb3jj8ZmabT+s7fEc/uLFVS2uvMXfVFdXHq7e/Mwt+XFK0N9WueXDv25WPrV51Z7qvZ8tnJPa9NyHtQ5xhGrYgugsAwadvulI9Gx/pxH0DVpcwD0ckKiGf1z7DSIoeObb6uqjOza8n2ORsN1jd29Dv8RPB4b/ESiKxKnEN07Pum1WTnqsnEmnub1+jw/ncRgTMqNun5U7vySZwzx7E85FoCiSpJHcNjtn4cRUjVxAksDrD7CZjOI0zfVTMpM0MoIA7JBdIQjgsxmTc2LuW1Awf0JKrFKEAOBw+3wBnMWgxanEswril1yZFyHhAQCUYu60/LjrpqRnxMkFXCaOE1ROEZdVmBp526zsBxYWauR8xnnjiv8M/FGRApFA8jOLJhFyse6uXVtWvbC3Ty7PveOm4qzMOAaDxeXR6VyhRComXB4gNcfNv2GGPD5anpCbkURjc/bUVCOIKzonISUxPVUTkZwWH5mXn6SOT4uNlEnVHi9+engISmNyeDya1Hfsqy/7RVE5cyenSozNDYbN7//toYduu+22e59+8uX1tVXtPS7v2VCKoCBm7rj83PEZcrlaJU9NiiFIrmFU75da4+ddP00eFyVPzMtKRJjsfR019ML0UiPGtvf3c91edelijb6jzdraZiUDBlWE5txQCgCKsQpS0vtHu7749OP9imsWx0mF/LATpSxNyCmbni+XK+Ty5MQoFkvsC96WQ2fx2Gwej8UWSGVSmd9k5I0TZU6cXSxXKJWpEwrievTuuq5WjpKWfOPM4tj0BKEAeHw2ol21eEZZbGaSXC4Ti/lsOkEiusEBw6FN617/+2233Xb7nbc9+v4P64629uv0gBobIM1e9Pgjbz68bCH9xNKXdzWYRs4fDSVJV2RcMb9EHq2Wy+NjIyXiCI8PR2hMHpfB5HF4IgmXyTP3dJp2ffnm00/cdtttSx5e+vQ3B/bVdXV2dhIqT8Kca6bIo9RyuVTA5zAwAADGBLFXjy/ILEgTi4VsBunHrMc3vv6Px2+77bZlT93/zr7+mna93e1mslhcHoPBE0llYr/Vbq7ed+STf91221233XbbQyve+2x3U492RMble45sf339th1deG721PvuHMfjnm6LRUR0dm5R2QiBOfv7eDiiLligHKprdLZ3mFFgVsrVp0MpSmcwWRweg8EXS2ViPoulzFVlzpo7Xh6pkssT4yKFQoX3nFFIbIlMlVsMRg3k4Kkeu70TjY2iqeN9/U5ioNcgC7izivIxevDbwNWwU6+9siQyOVYuj4mOUEdEORxgpK+XXRyRXTy9UC6XS+USPpuOoTazzcUYiLpm/pTI1Hh5XGZailgq3naq3p8Vne8WSM39AyyjQVW0KNpp6Dc1tji8zqGYqAilVE40nPxu0/cfnTDGxU5ctqQoJkp55uDQr/Yzf9V+ARRFxqdrls4bd82k9OD87xeSmxhxw7TMRZPSNHI+hiIAAAYdS4uVL503bl5JMtW6S41xlQg410xKu25KRlb4tTrgshhXTUxdMjc/L+lsgy2LQZuUHX377JzJubG0kBEbPDZj0aT0e+aNyzvTFBzEZdGTNdI5RYk3Tc9aMjfvvgUF9y0Yd/cVeddNySjLjo5WCIPBj8ui5yeplswdN2NcfFjrLoXPYWbEyheUJt82K2fpvHH3Lii468rcayenK8Vc6j3KhOzQgUEYhsqEnPFpkQtKU26ZlX3PvHH3Lyy4d/64u6/Mu3lG1vzSlPFpGj6HSR06KVJy5fikxdMy77wid+m8cfcvKLh3fsEdV+TeMDVjZkFCRpycyaCdP674z0DiHPZa7BedkyoEK2X8NYsW3zupUDF48O9///iz45Wd1nM29Xn9gIOL4+JkgEEDDL6Qj9DZWpMBgABfxuOx+Rw6xhOIxBEyLp3FYTIYTH7o5sDjMHRUfPNhh7gwt7hoUpyAQSDOmJy88aVlEydOnHrFnKuuf+yxaZkKXkgFHwH8OJlUKOUBgKKAwxOgKMPn9SNcQhwbGywGoLF0DhMii0nzBpDBll5PnzU5PS83fqDZ2dVkZqKctCTOGH974pSSJFVEDN4vLpgVLeGde7cyAICjFkiUKhEACALYHC6NNvajf0gSeNwepoIlUaiEACAIWywXOH3A4rDSOKgoOVLG4DIBsFudJlu7OEVBLZ7ZGLjdHlGkPKtw8sSJE8smTZx5w51L5s2dnCQDVChly5PG5U+eXpqrEBo3Ng06TOcPpGZKWZLoGCmgYQAwWUw6I3z8E46TXq9TlZKUXzxp4sSJk2dOufKmBx+aXSxFfB5UJ4k6vW0QggFBgkLKF3MB8Fs8Q0e/e3t7q1McMW7ixLLi0uK0eBzHAoFzxgp6vT6OiJ2SP2nixLKJEydOX3TDLVfddP2kOFnhdX+987prYrg9+7a88sFHG3qG3MENGTSaOCnL4/b3N/fiI+6UtIzUuK4ac3eLjcfkJidwLjDMELBkbLEmWgowFAAmi0VnhLUIYTw+LypeXtlkaG0wMDA0Kl1Aj8hJ83jBaJ+V6yYSkiTg7KUvnU8TJ0bLaBwGAAwGnckSkCTidrnZaq5Uqggdr+n3BQiGV5wYJcPYDEDn8nh0Dm/EbCbEEUkBjD3S1mdtHUmMz8pLMPYFOup1hI+bm8cR5M26e/H1t+UmEI27n3955TdNTaOu337A8/+e8/6cLxmKIgUp6ttm58wrSWb+VCjNjFNcNTF1XkmyWsqnRsbSaVhKlPS22TmzChOkgtO/FdQdnPNKkhdOSEmPOf2EmSAOi35lcdItM7Oz489eXbEYtJKMqMXTMidkRoXex8llMeaXJN86MzsrJHMQnYbGqURT8+Kum5Jx2+ycW2flLJqUVpyuUUp4oQN3OSx6doLy1lnZU3Jjx+ySdHp8WrNTwGFNyIq+dkr6jdMyZxcmRMr5jb26AZ1VyGXGq8Tn31kr4DAzYuWzCxMWT8u8fXbuzTOyr5mUPmNcfGacQsBlUpcaCIKwmfQEtWRSdszCCak3zci6fU7uLTOzr5qYWpoZFa0Q/oqJL3432YKekYb6o1X9wdshbAMD2v4BYwAHRrs7QPgB8LucdoPOCADuJgU506YsvXnJTSnclhNHv9l4rLZr0AsAjgOj3RXA/UwWHTgxQ0eHFnj9wGsz20ifSy1T/rzRdH7rYH9zxWeH3ckL5k4sSooR0jGuUMiJKFl039LHnnnmmWeeeeaRvz01Z5xCcG4APg+TxSAdqKGzQwu8AeC1mmzA71ZJlSjQJCkJQ0d3/2g3OytanDWBPWobGTIEaJEpkeE7AQAAoMiYNuHKpdfOmjsxHnB+9cg8BAFsLtsz4taPDJoASZIug9bCZwKJQBKaDcMQgGOmIYPd7zk7GBoBHA6bI03Jn3H1A9RJeOaZZ266Znqq0m23d9f3Wr2OAACATqMxeUJ34AL3Ol+Qw+13ed0YhnD5PI4if9ZNtz5MHeLJZ565akpmpNznws0GrRPgY99ZAoDf6tWeXL/ZJChYeOuTzzz18D33zU2Rc850TPoCpNnhIogAi8XgSKISCq5Y+swTT1GHuPuu6wrjcY563t23PDJ/RjrDduTg9i9/PKlzW8+8fYyGqVMj/MNNncOWQXZWnChlEnNANzhsw5gRIeMqAADAHyDNDidB/PQIXgAAnU8XxGbYGwe6+h00VkR8NJ0hyshFTD0trQafVRpzpr57ASgCuFyOy+Kz2i0eQOK4Uzds8XrcDAYd9bGMLT3agNMLfA6bzee0RylkGBYZI6N5hvs6OptYWUpx7niOjTQO9NuJ6IwYzIuKJ14974Hrr5+lAqcqyj9dW9kxqoOzeVyyP+/P7n+1UaOj/ETX9sqOmvbhrmFTz6i5oVu3s7Jz89H2Pq1VJeFnx0f85Ejg/3+m3yh191Tu+mbTgb7TKrfvPnK4eoCkS3Xd3QO97X19nS2tzQ1NvSTwWo4fOnh0226ti5Z6xZtPXzdDFMkKeJ0MDMcEQy3d/T09fjoDsSpGd63d2dfc3tdU1dju9wVm5ecB8DPGUPgt7VUnd5d/KV6SJvWxHVqdh4aJOdn2TUcOt1bX9/X19fUNDPVr7e7z7zIOI5TL2DbpcPn6XX2t7X2NVY0dBE7MyMtD0KjsAnbHgGd0xF2Qp0Ij8gtoOhum02MXbFAT5pbeuPixf1+VC8AYF2g/E4IAeVQM0upsO7rzcF9fb2/twZqBOAU/LyEpNJtCo4iLv8pY3VDf3dje1zcwMmKwe1GUlEfHglZH67Fdh858SMNGo93rMQ2Pln+6vqqlur2vr+9UR1fHqaaJUVK24GecawAAAAigcTlmrW2ws8VoM7KVKa59rdW1R0709fX19fX3941Y7KrkFAk7a7hu/6m+ru6+vkG9weYO/5FHaAhLxE9NknM8hKmvq72j8eSpbq/XBQBAGbQAwRlqbe3r7SO4PFLLHdj74+6+jq6+vr6+viGdVttvHy7/et2JqhpcVjRr/hPXLsxwkXYSP1MtRel0RV4xs77NZbd4c3MiGcqCErRfS7NasMjQC3iUSfPj7KHWlv7ePqPD6f3JeCpkMNMKp2v7DX6bDVPLAYYBhYbeveNgy4jFlZGsuPgPMUoDitgE36Czq7mioa+nu6e56mSnxWrhS4R8Is6wffvervrmvpaTza0mi2t+cSaTHpuazdPbfa2ttgnj5PTInCyGm8B6+rA4pRs179u2o2LfESumKpj74gPXl5BCEved37QA/UIX+wShX80XIIb0th/2Njz/5cHlb22/742tf/tk7xe76gZ0lmiFsCgtMjFyjFrp/3vKWf944v6MfPcndxecdsP6hv3cK+dkT3n+8a7v/nL9vIKCRU+9++WQJhsAtjICHPt6wwMzCwpKCgqu/kI4U51ZUBiVKEstuvvqDZ8/OP/evx1sEE+96aFxnQ8VXDe5YOYDRxuMWU/cmR1+1LF1ttWe2L5yL77+wZvmTi4oWPrIK7XG5FlPrXnIt+bhv1xZUFBQUDBp/vh7Vh8eCBl2NLbEgisXLb4vq/XBgqsnFcxaXtlmy3r09myAICBCBYzcKJJfmKOgllqdcr1Hmh3eR/HbwgDIW/jo7QWxw1vuKCgsnjz/OTIuJf+q6bHnZlPHJBY+9HzEj88tvmZSQcHUW275x5pGgHlB/lWP3T4uemDzHWc+pEXP/mvNKRsTyKSOLx+6atGkgoKCBfe9uYf+2nvzshTRPzOUonSgmj996ojlxF+WXfP4X8sTrn/9PnHbZ29eU1BQUFAwfmLBLR+tqeZmzMwpLe1/aUHB5OKCgtkPP/v14e6w/bBUrKgrboj/bvVzV00rKLhiyV/f6ItVB2hCAIAgQ5OZtrD0m9eun770xUZd6uz516hqHiiYU1pQUFBQcOWyez6oHBbx8VX3PrGwrKBg2s0vrq6c9tfZ8YLIYEM5hgFVJNCy4xnCvHQZtVRrVToC4vTQ4VXCzKjMlLlFX7181dSlz6/dVG8JSRsbRgOR0aDWqnTionTZmeVRrcTjVsnHGLl1LiYAhTfcnw4MPzw6p6BszsKnaoUBF0cJolPGz7tvxQLtqwuWzCiYdtePO1oznls2jsehA7kcuAQKO7usUM2go3IFGAiIO63KgiiMHhUFtr763m3TCgrKZl7/5Ka8B7JTE9P/dPf5//dBwN2byE8XhK+GLo3F4Wno1u6o7OwaNhusLo8vQMMQiYCTESufkBmVl6SixhD9D/IZewYHB9pHzlwGi2OioqLSZIhnpPFUr93uDjB5PI5QClycxEyWs3dwdEBPzf/Cj8tPipQoeLSA22rurmjRAiBNiooQKYCh8RR1G6JEHqVJSJOJPCMNHUCskiokpN9iauwCiZkqId1u1Dq0ZpCQADo7gVTNoLnNI8392tPlkMijoxJSJUL3SOOpXoPD4wUA0NiIIDY/UyXmMGgAAMJLukcbO4FELZXLeQzCS7pHGzqBVC2Vi0mfYaixttcOAA4kipio+DSVCJAAWIYaRpyAI0iKjWCSwNLVMAIAR5IUKzlb6QzY7GZzSw+SmKUSsIP9oyTwjHT1+UkMCIWgpwckJQGdDmAsviZGwgIkcI909vsRGhAIQG8vkpip4qNWg9ZpcDDj0yNYAKBew0jfQHe31g5QAJRxObEaGYJbzG29SGKWis+i0wAAfmfA1FPRonV6/GC0pr6t61/6BUdenJ4u8ej7+ru6dQ6qLNxITYwmUcWgGbuPtWhd3gAAgMWXKlMLE0SAQTVN4h7cpW3oBMoI4PMBu4uVkKZkAYB49cOjLrOLFZ+mZAFgH6jtGxrV+cXCmIwssaW/vX9Yb3NTvaH8uPRUtYrlso70VXfoAQCga/uaDm6/fNrGh5I7OoAqVi6TcOgAELjP0lXRMeI2uwGdxeLJFMDFjk5UyiQc0mEw9lS3aAE9Ij1WyeF7tS2NA3YACAAASyaJiEiLx4aPtYx6fG4A6DyJODYrU8ViYMGLWgIAS3/NkJctFsZrFPQAsHTXDGFssTRexUSduoYOoI6XS8Uc0q439Jxs0QKmWEbHhHyOMC5FwQIA8eoGh902H/v04pn9krjPM9LYaODx5Mr4SCGTxIFnpK2h18VSSWMTovk48Iy09eBMDmCxwPAIlpip4tIxzG8xG6091KJrsLt3qGvEhtJofIUC9XGVKpkqgo7Yhhtqei3+gB8IxUpNUl6UCAAUWHUdo2YrwstIVrEAautrH/XZUFFGkoQFLP3VbUMGmw0AlM7ix+Wlq3hC9sUamKGfA4bSywInCLvL1zlk0pmdNpfXH8BRFOWxGVEKQYxSJBGw/+cqpNCfj9vQ031o1bYmYPMCYHF5aFLH3JueK9VEcP+w+/VN7Qfrj+/e0w4AAGDUZovLi5o15y+Fv/EUiBD0m4OhFIL+RzmGmxo3/HNVJTC5AAAxMZlTbn9+QSoAY0/0/LvQntpwZPu339VQS9mli+YsvHl8YnguCPrTgaEUgiAIgi4JHHYEQRAEQZcEhlIIgiAIuiQwlEIQBEHQJYGhFIIgCIIuCQylEARBEHRJYCiFIAiCoEsCQykEQRAEXRIYSiEIgiDoksBQCkEQBEGXBIZSCIIgCLokMJRCEARB0CWBoRSCIAiCLgkMpRAEQRB0SWAohSAIgqBLAkMpBEEQBF0SGEohCIIg6JLAUApBEARBlwSGUgiCIAi6JDCUQhAEQdAlgaEUgiAIgi4JDKUQBEEQdEkQcPemg7eJvF5veAoEQRAEQT+Fx+Mh4O5NLU8k+/3+8EQIgiAIgn4Ki8VCwN2b/B9eSZJkeCIEQRAEQT8FQRAE3L3J9p+pBEGEJ0IQBEEQ9FMwDIPDjiAIgiDoksBQCkEQBEGXBIZSCIIgCLokMJRCEARB0CWBoRSCIAiCLgkMpRAEQRB0SWAohSAIgqBLAkMpBEEQBF0SGEohCIIg6JLAUApBEARBlwSGUgiCIAi6JDCUQhAEQdAlgaEUgiAIgi4JDKUQBEEQdElgKIUgCIKgSwJDKQRBEARdEhhKIQiCIOiSwFAKQRAEQZcEAXdvsv1nKkEQ4SmXzI+TvUbPgMln9+A4SYYnAwAAoKGImEOLljBjpMzwNAiCIAj608Mw7HKFUl+AHLZ4vzyu215v7jF6fYGx989moJlq7lV5klvGKwQsDEHCM0AQBEHQnxmGYZergbfb4Fl5YOTzo7pOvedCcRQA4PERp/odP1Tp1500eC6cDYIgCIL+tDCQf+Pf5sSRF2iA/dWahl0fHhjV2f048RN7Jkjg9hNOHz4/W8KiX67Q/htwDxk6Drzydhs3RiqScBjhyX8eAQB0R97/xwd7uxu98uJ4UXj6n5bh0Pr1dSc7PZHpEZzwtF/F1TvQeOilt9oVGRECPosenvwnYDl1ZN+JDbv1sYXRrPNHLvTs2fzd6jd+aERzCtUswAhPhiDoTwFF0cv11+nyEYMWH/FTcZTi9OJ9Ri8eWin1u0HXzq8+eP2flH+9+s8NjZ16V0iOX87V111f8d3qU6O+gD887WfA3V7bUH39kNHhDYSn/Qy4G5iqtm6sqGwYcYSnXZTXYOmt+PyzivZRmyc8bQy4y2Kq/H5jDxbgqTLUvPDk3w3uBKbjP66rqG7ROsPTLsCrG+wd6h2weMMTfq2A02UZqq0dsrj8eHjan4PPrB8eau80uAEYo02Gr45W8TVoz+c/VPZa3b/ZaYEg6Ld2uUIpQZK+wMUCKQ1FoqVsNgOjKqa+kIFJAYfB0Lx/y5p9Rxrb2wYHBwcH+3v7Th2s7DNZfu6P8pg8I4Nttdu2Nxt8+K+JhZeI8AJb/YE9tXXtul92ReA32YZrN2yo7TU4f8aPqdtt7av+Zs+IYlLxpEkz02Th6b8b3A0stXvLaxu7DL/s/UJBsvTcSZOuKpOb93xX12c1usPTIQj6k7hcDbwdOveGGmP42jOYdDRSzCpNEulsPrsnAAAQsml3lCo5DBQA4OirObXm7b9tjp7/12UPLr/j1oULr5g8Mbm7Ak1VeVEWYbH5XLpRnR+w6DTU77ObtEOjBrPZZHb6SBRlMmkAD9i1ozqD3mAym202uxewOTQM9xnaWhvbj7cGknNkNIzJADjhModsi6FMRmgDM+F3e6zawRGDyWQyO3w+j8VvH9h5GGTl89k0j1VvttodfjqfgSEY6XGfLYYPRzE6A5Bex6jO63frzGaH3UOidK+7t2LnUTtNxJWrBBjC4DK81pFRvc5gMJutNlsAAJvFSwCEzqChJAECNoPR6ydJ0jM62la77agrPkPK43MwPABc+oFgqQiUxQ4pdWBU33v8w+d6x91+3fjcaCniclu0A6NnMgdwDPHq9V6MSccwFCF8fo9Dq/dimNdud1lMZpdNp9ObTWazm8AQFEX9dq3e7rbpTWajwWi2OVyn3y/hdtlM2iGt3mw2m30EDaPRScLjGNV5Ax6tyeR0+kgUc7t7K7YdcbLlPJmSjyF0LurUD2v1BqPRbLM7fQiHS0cBSridVpNuWKs3m81D9RUNXoKvKiiOFVBvB3c7HQ6Dweqxa/VGs9Fkdnpxgs5l00DAodPr9Vq90Wy2ms0uksmm0TAMCQS8dmPfkN5sNprNTtuoXqffX4mUzU1X8XCv2TJqciNsLuLSGQ2nt7VYXASDTaNhGOnzuSyjAyNGs9lkNpvtbpcfZXMZaMBh0ev1Wr3BbLVY3ASTRcMwxO90mrUDIwaz2Wx2+AMkxgztnCB8Pqf5zK48PgKhsTHMb9cbvG6n0WbVa/Vmi8Xiw7g0b39nh7Fbz50wKwHVD7n8KIEyGRhBki7LoMlDokAopJMO9tG36mTXRCmlGgEcmAdBfzooil6uEbzbGkw3f9oevvaM3Gj+nRM1DUO2HfWGIbMXABAlYR54IkvKpQEAeo8dKX/vQ9eDby7IkMXyURQAQJK4z0ca9367YeR4ZXOiaNvHO65Y/tkDC7KsQ5u+/9c/1rQAEABJM+5bfuvSRZNY2uFNTzzyac2JLhsAYrG6dOmnry9KdAyteePrj776rh1hsugpt/9n+SyRsmv7v55d2wIADpJn3r/8lnuuniY/W0hn95FT6/99z8ctDg8ONDOnzyl5YHbgXy+B8VHf1nX0VbQAvjLuihe2P1DCSyCrDm/47qXn17cAgIMZN/7jrjtuVgubDjzxBshTflHdKgEp85c8lTT42B0fnHANuGmKvNmT7vrb61cNfbn4X+sr21oAEMhkVyxdOlzNmLVw/NwFmXK/BQxvevrtQMrUpBR+8/5/P/t2LUAY9NgrH55bHDdR/+mSj1u8fgJEzZlzwy3PPTxZDcDpn9jRk22H1s1YpXrr9eumZ6ponfur1r2y5ONWf4AAUVfMmTv+rmngjTfAsn/NH5eqEDg6+hoOPf4GWL4cnDypqz98iu2u2NECCBIU3vbijVeVFvr3PPHGQCS+s7Hf0K4H4uj0Oc9vW15Ei/Yf2/vDdyte2dQCAAlm3/7vJbcskjDrDj/+BiiN+vRYo4qTv+CWB9RDj97x7il81EeLKFow7eYH3iis+uvST/a2DumBTJU0demnbyyMROSOo7u/+/a1FVtaAABkwKeaO//mW59/ZHIk9XaMR8vLKz9b3RoLduxoASYXSJp686KHXlleQA5veuLfn+/bfNIAAAdB0pd++sZ1JfEp/KHBup3vzntuBwBmAJLG5WeWzGnbhzz93rX5gYM/frP7vSr+0o9eLax6/L1vD2w7ZQCAi6LUtnHJZEv74TV/uffTFgDcAAB5YcbMOz58ZZ56ZNNHL3z+w7ZT/YCL0TKXfvr6teNjI/q3H1rzn/tXtQIAQOzCRbfe/NTSElXwq2Nrbj205sn7V7UA4AYlM++8ZfkzxVkDWx5/A0jAxuHRuh3VAKMzr3hh+z05g32VbbubxY+9ml/9+JKu1IezZ14zP8nq91S9e+X3yA23lVw3OcfT0LX+ydfp/7x1etb0pD+uxR6CoAu4jDfDhIbSGCmLw8Rahk+3zk5KFo9PEFnc/vJG46jF6w0QYaH0xM6aj59bM2vD3ydH8BShLdAjWz97Z8OuejLzjnsmKGRJ2e7ODbWtdVbudXnRAGCmuspWFi7PveP2bL6uvWPIbnMHgLnP2HXqdfyaN65LTvMc3bX1yKp9nJsfnpwQz9BvaR3udXGvzYsBADXWHm9jk4rcO+4skFNhydZcs+PQN591aJ6Ym8qiW0+2+kmtaBztk6U/xt66tDA/Kc7XoWut+FfXnH8/pqId3Fx11GguuW1uGrAdX7OXSJWlJt0trVm2dGP0bfcV5uflxskjowjvsQ//scony8qYemWWjO4Z+e4fJ4V3RCfEJSkBDfFKWV1vfUzkzZmwcFG2wm8Gg+seey2QNrNo1ni/du/6v3wMrrpnQl4yzVDdeWz7kOaJuWl0zHyiBReJM+66LvdMS72760D9vm//Mnr3G3dk5gl7Tm4+tOb7Xs0Tc1NpmPlEM04zcPMln7wEHn/96qL0CIG9rad237KXwWOPgaotLR2jgqK7ZmdwANK6/vsjXFytnj/N+d7S44V/WZyTqlJYWwbrKv+1N/efH2Zh+7Y017idxTfOTQPGI9+VI7nR6THXs6uXLd2Y8sCjRdlZOQlyldLrOfbBU5+Q0eOzJ82K5bnttc8eYdxdqlILha4Rw1DfulPJDz+hMPy4prrO5ypePDcNAMOh9ftpnPjiZcFQaji4/dvyz9YaSp65JYMDuAP7D1WZjjpLX1x1fby+XTts1tt8wGUkW7a/gS+6Y2ZinuvokS3bT8qXT0sDIg7g0Exm7fBrH4Cnn1d0be/qdwrib54+Iy1RYOsYGDEZ7H7gNBCtO1/HF909S5bYc2D7V0e6Jj42Nx2IvbXHTloazbHPvZF6dNk+T2a0NFej8NsIXc262uSZU9jIQM/BndqoR65IA0B7rAGL1mTcuCDn9Ne0t/7HtTu/Pd498ZG5aQC07jxu4RgTJrxb0Lhs6Y9I0RX5k4vSsRF/y4//6rri9lkE0Lsqm5VPvDaDsem5FT25EZlTn54API1fXvu1/LpF06+alMi3dVgPv7moYd6D8woX5SnO/jlAEPTncBlvhgkl5NBzogTzc+VMOjo5RZIVxTc5fQdbTUMmDxVHw3jpXKtQE8FBWeeXjiUXReUUlJZOLEuOwszazpOHj+0/UF6+u7y8/MCxIwdONtX3ahGSwXIPnao6Xl5efuDwvpqWjpPtOnuALlcqo+OlsuS80gl5Cr9rtP7Isf0HysvLy8vLD1Yc2X+yuaFvNDj6gxHw+4361rZTuw20yLTx86dNLs2KQBmIMCkpu7h4QlnZpPGFeQmsEa1f39Whp9sEObMWlE2aVDZjVlqExaytaO9FGaQwOTlnfPGE3OzUSCmDr06KE0vjE1Lz8tNVUeTgvgaNJr+obFZZWVlZyfiCZCnGHmOMKZ0tkEQkxAuE8Rn54/NyNCquTd/afmq3kRGdUTx/6qSSzIhglRQAPBDwB/x8mZhDp9HoAZ/XoGvtqNltYsZkFM+fNqk4IzTzOdgySWxGfmnZxLKysvlT0tlerLuz38EgRXHJuePHTywrmzl5fGl6VEuFtq25ZoDpFufMnF9WNqls5qxUuc6grezsw1hAlJqSW1w8ISczSS1l8SOT40XS+KT0/Pw0dWSg62j1oUN7d+8pLy/fd2DfoeqaPbU9g211OpZHkjtzfllZWVlZUUqcXMAOKxiTz4lIzSstmzCxrOyKKbkxQmF7XYcRkKhH31Z3ory8fO/+8pPNzSfbR/qaWvssjfqkiVeXlU0tKysrG5eRGMWykv07vv3wRDcjKmP+tJn5SWo24LHc+ta6E+Xl5fsOlJ9sbjnZPtrX3mnw9YGsWVeXTZ5SVlacmRYt4wQ8hLH9VP2xQwf27isvL9+9t/zIiRN7T3UYtVq3XtvUeWqvhZOcM2HB1AnjUpXBAju0IwZ/P5I56+qyyVPLps/ITKD5jbsbOgDi5cfGpBWOLy0rm1Q6YWKm0GYNOF1+AABAEZSrKC6O1NvJ1p52m7mraq84KysyWiWkA5TJYqujBVqjz+GCvc4Q9Od0frD67dncAYIkC+OF83LkJYkijx+v6LK2j7ouNCyJjgR4NLfPCYjzh13yY0XqtIxIgKEAOB0u1G+j+dzDw6PDw8M2tlStSU9gE7rmoxt2HK1pa+0bHjZZjB5EZLJ6/YFzxuw4HU7MZ8XObiuL1KSlyM9OucRSKFNSJ86I4hi7W/bsrKzt73VymDQ2oixNihYqBQDQGZhAqEQQhsPhYqrpkSnpkQBFAS8iUu4m6AO6IRqbiChNihIpT/f7hfA7fXZTFyiJihAqzk+9CLZSlZo6YWokW9fZXL69qn6wz8G+4G05bKU6La10ipql7Wgq31FVP9TvvPA9PAI5T66M5AMEABChVvExuc9hczOBMlElZgkYAPD4LLUqAzEFRs0mJIoZmZyqBgAAnipK7vBjw/oRGpeMmJgSzZfzw/cNfL6A226U0NwWo3l4eNjgdWERpaVxUuD1sKNZkUmpZ9tGz8MWMpRRsULAwACQysQSfoxPax7qqNy250hFQ1PP8LDeOOLHOGYHYR4edTOMzLy8GHD2pJA48FkH2wfMEh47PkJFeEh7x4kde44cb2jqHR7WG0d9GNdsJ0ZHR3wsozo3P3TbQABYLVYecHqstuHhYZ111K3MyI7RxCbFZ6aOn6CgD7XW79ha1awbcoVcBbmdHkQcUOfmRQMWHXDkSilg8HqG+xHULxsXG6WMkgCA0RChWIZhZ68bEBSo8zLpOqHlVEW3/sRBT15ShErOBQAABAEYRsdxkvyt244gCPqN/B6htNfgPtJu7tK575ms8QbwIx2W5qGL3Q8i8Juj9aeOnRodtvqou1ZIHHcbjS7/6cXTaBgmTs6YfuffV6766NNVq1atWrXqmafuSo3o3P/Oq02C6fc+unLVJ2+/8PLyaYksOovaBCdInz8AAEmj0cQpmTPu+vvKVR+f2fbJeyelAICdzilSZc2+7q0VH346RVazafWT/3nv031NAXB+cAc0GkZ4CLfD7gEkCQJetxcDJJsZXrui+AM4TuAohtIYXGBye/zn3FjjC+ABHAeAJAi/y+kl8NOHI0jg8QcIksBF6ty5N7z1ykefThIeX//dX9/+4IuDzYGz91EgKIqhmMfp8uMEgYsj8+YufuuVj1eVCY6u/favb33wxcEWH0l6/AGCxAEgAn6/x+Ulz7sNw+PxIJifyWTTQlYG/LjXa2Py6GwmC7gJj8PuAQCAgMflpaEki3n6DIfxUe8XRdliRuSM259e8cZH1Nl+e9Wq22YkRihwP/B53QEAAAh43N6A/2L3Kfl8PoJwYwGOcc+XH9S74hYseXfVp++//sEz8wpUQi7GoGMEA7dYXODsjVUsCZK4+PabRF5z86HDTXqzidTu+ey9ek/i1fe8s+rT9197/5m54yKEHI/b7bQbvS6nH5y9wEMQwGDSlSVz73nmpQ+oYn+yatX9NxSPLym5+pa3X/zw/SLajq+++Ms7n/xwrC34OWI0FPhRj5UqBu71+gAR4LDYP/HHhgCQlJzvZAsqKw92nWydmxrDV4gAAID0enzDA6NKKZ3H5RFen8M83GOw/yGj0CEIuoCL/nX/dkat3tWVI3euavzkwGCn9ieaqTQJYOo829ePvF/e0DsMAADAa7OdfO+9yt7Ti6fJ5BJXk7d255Za4Av9XWGwQOrEtFiJmg/cRv3AqePNeOB06La5Au3DQzjhkcklzkZP3a6tdcA3RngEwFbfVndg1U6r1z/uujdfefjh0jKpbmQUjDHSWSaXOus9dbu21oIAAQxNtZ0imjs/JTsYlUP1jFoNNhNbzlHGTEI+Odky3DZyTqrFaDMBEHC7hqsOtdmsp8dAe/2gpV/v8jisdS21Bz4vtweIgsXvvvbw8oJSiX5Ue7ZUHC5PxJe0HKrqs9od1tqm2oNf7LbjeOGN773+yPKCErF+tN9PNvfpXF4HAC79aH/diSaSCL/JoqmuAeENJ6VmK8HZqRz1WltHx7a0SZrCpAz8pL12784GQJJA33iyU8Hy5yRljdl03D1iNtnNHC5DgMU3v3fwhK5TG5KqUMqsQ0RHW4MOAAB09dUd2uFzPuIwPZ39FldN6rgSDeCljYuPV8WLgM9hHzp+oNVpN4sS1CJXvHPt6kpgOecrhihm/O22uGFZ1zcr9ukAQEBCQcKZbQePH2hxOszxSbFCVm7ryeNDwBkM5gwGolZH9q9vOdlysjdkf+YTtSePfLffjdFL7/jsnYeXpI/jG3X6M6liiRDvZ9SvW3sCWN3A3NnSDZz6iTlFAIx9dRUioXim2IV2/7iu//7r0iQC6k4mr9czOtwXq5AIuRzg6Ozc++1Ds98u7zdecHw8BEG/u8s17Ghnk/muLzrd/nPmsaehCE6Ocd8NDUUS5KwdD2dIuDQAAO62WvtqD3338Zp2u95JsgAgaFyb5ornr/G31vj7HPHL/jk7EgAM2I31uw9uLf9q5xAuAAABQF44btLUW2dyj772aPkg0+hlCoQsoVLZ3Jz615eumpQpMFds3bTy5c2e6MQrls5SWJHWo1/vGj69raKoYOoV999yZtiRv/nUrh2fvrBrUM4gUD8zamJRYdqMOP3zb4L7XlxQmhMpdHQMNe5Z9hK498WpyaCxZvPub3cP4wLgNUpSr190xfyYLH3FspfB/S8uLMlRCwEAZAB49dtffmRTw7A2Zsb4afNvoq1d+VV3u8FFsABXGlFy+9PRle8fbm6vNRMiJk2VKG1vT7nq1tnXLUhk9NVteu7+zVYZO3+cEkfdu04Oypkk4mVFTy6ZNv+Wedly5pkw5usdrNv9txsPlaz8x8xir2Xf9s9f3Xsm85SSKdMW5tA6P3v1826v0U3KxGyONKKlOfXZvyAntxzbf6AHiRYzAQC2yORr5s2YIYsd2vvY0o2BeCmNw6B5+TxxZuGTt16Tyma07tm/ae+aA6O4AHj10vRbr587Wxk/VLXsZfCXtxYVpioFAADCD7z6zS88sLnVZEqYMX7i1EW+ze/80Nvn8JBMAFhSEHv10w/lqdp379q2/7NGq4IJVInSEV1CVuGkc4cdbXjr/UoiWc4EAHXKI4vKyu6ctSga7Hzt0V1Nhl4Xl8umqxJlLc0pN907Y0amdXj3mhWf9eECQGIgKilanZB5eDPy9HvXpghO1azbvmWbhX/r/bFV/64bdPS5OTw2PSJB1tySest9kyertO0b1vz9qFHOBHTcbMBjhekL3v/PNGLP52vW1VV2WQkOAAgKYq++fbGE3V2/ZeWhITkTAC8rbtaUWVdePzP9TPeA09JxrHr7pvfW9uEC4LMJNZNmzLxrwiJiz7KXwJSbp82emSL1jPr6Ni57GUydBVwuUNOs+subV0UCwPD3VK1Zv3N7G/3xd5ekMeVsBACnvu3Q7n8/XDVr4+IpqcX8psY9e55cPnrrwccnJysv0i4OQdDvBsOwy3VfqcWFdxk8wxZf6BxGF+gbBVIuvTiePydLzKShAACUzmIKFJERHKZArY6MTUhISExJzSiZWJqkjpCpo2I1cVEiJgAIYHKEIr5ULuQK1YkJ8QkJCcnpaalJqfGRaiHGliVERiUkZ2Rn5pcWZyTlZKolAgGbzZKphDxpYnJ6UV5mfFy0SsATRlLbJqWlJcclaUQMKpRiNAxhCbl8SWJifEJydtGEgvysNLVEKI/KzFCLuQwagqIMvkAelZkRG6lWiKVyIU+oTkxIzpowaVJefrKCS+cL5VEZGSoxl0GjOsNofL4IEyqjVVHpqSkZOWmxLIZAqdFEJyQkJaemZpfmxLPEcqVMEZ2UkppeMKkgLTU/UxMhE7GYPJmSxVMkx6bkpcUmpEdKJYkJ8QkpWeMnFuSlJUvpZ6uDGB2QJKtj10FGsixClSYXC3gCSWJCApU5PztNLVaouTR+ZJQmNjkzNyuvpCQjMSfG2tHisCPKcdMLMxISEtKLy6bk5seg+Ej39kP+rOlFWdlpKSnZGflFc2akqhhckUjEl8iFfJE6ISE5e+KUybk5CXIuUyBWRmVlqkVsOgYAQDBA5wvEqEARExmTnZaeVZAbz2TwI6KiohMSEhKTE5JTc1OjNEoRTyrjCxUJCQkZBWX5GVkFmdHRauHp/kpXX0f7SOMAp2heaXpCQlLauMLScRML4sR0gYhLcGXRCnVCUmp6esGkwtSUvMxojUohEkfwmNzIpIS4hISU9KyUtJyMxKisTJVcKuOzJDKxQpY5viiOIYmIUUYmJKWmpxdS28ZFR0olSimdLUlOTEgQBlxMkVmRd9fUDKVCxuWKZQqlJiEhITEhITkjOz02UiSWCkSShISEhJTskkkF2ckJkmBvKYPFEwoVSh6LG5mUkJhZXDKxoDRbzadxWOKolFS1XMSmAwTQOGxRVEpalFodFR2lSYyTsABA3QPtbbpuk3zSNaWxbISBAmDu6m2oWnmIXnbV3NwYoZCBokyRNDo2a3ycgk2/YM83BEG/o8t4X+mo1benxfLJYW2PweP0EReaiZeGIjI+vTCGd32BbFaGiAql0KUIOHTmqvee2Ukq08oWTisqiBGG5zjf8IaVX2j1jJR7npgWGWyntbf21O5f9hJ4/M1FhWljjJ36PRgObt/WvKFK/vR710YCcFmfw+fSdw111tZT7cuD7S24xJw2440rEsLzXU7W+i92HDPUeqc8/nCBGACatbejct+OI21b0dmvLBufLueO3SENQdAf6jLeDBMhZCzMlS4ulBfHC1KU7EQFa8xXmoozO110W4lifo4ExtHfBI0nlk+75zpR92hL9ZZ6XXjymDCeSCKSijmhw4wAyqCzRZGRIg7jsn1LfhLG4QpESgWPPmZH7G/K1l9zYv3Lp33dY/DH3v77xlEAgK63B2WD9GkFcgBoVO9xdeveHtGSJdMSRTCOQtCf1+WqlQIASAD8ATJAkMRFW48xFKGjCA273D+V/1OIgNfjJzEEo/+sh+2QAb+fJADKYIR8DCRBELjXBxhMGor+QU+SJfFAgAjgCIN12a+zSNwf8HvPDKjGMDqdwaSNMXDsciL8HpxESIzJoA5M+P1+3IcjDBaThl72iwkIgn6dyzjbEQRBEAT9L7iMDbwQBEEQ9D8ChlIIgiAIuiQwlEIQBEHQJYGhFIIgCIIuyWUcduTz+Zqamjo6OsxmcyAw9oyhdDpdqVQmJyenpaWFp0EQBEHQn95lHMFrs9m6uroGBwfZbDadTkcucDNFIBBwOp1MJjMxMTEmJgbDfue7DyAIgiDoklzGUNrX13fgwIHo6OisrCyZTHahGOnxePr7+7u6uhwOx9y5c5nMXzKhjXuou89lC/CSM1Xs4C38AYfHOnKiCSRkRsokF36m2K8T8AJjy8H6Qb3Vw5VHRaePT5UBeEMs9Gfht1gM+rp2NKMwSsRhnJ5wgySAe6C5w4dwxbGJsp+cUh+CoF/qMs7BOzw8XF1dPWvWLLlcTqOdM4tOKBqNJhQKXS5XVVVVQUEBg3H2OZMABByGEb3J4fCjLM7pe9bPYTi0cWPtwXpfxuREakZ6AABwDxjadv/ztW5VTrRKJWBRPyUBm35Eq7N6vYDOY50ujM9hsJgMOjvJZnhMJo+fQOjnz7dEbWukUgHpGDHu+uj5T39ct31fjylAT5qeowTnbXMpPA6DXj80qjWZTCaTyYdiGI1FD3nruNvlcBrMfiaXgV6opv9bIXx+l3mkf1hvNBpNJpPJYXcSdAGbhlCnmsD9LttI/6iNIFCMwUBJalFv1Bup0p9md7sdLp/LiTN5TJT6mAif320f0XpoLDqGob/Zu8BdDrvTZPMzuWcO9IcL2E0mt9tH/ryZMn4Gwut1ObR6L5091qlztHecPPji2/3pU5OkQtbpvyUyALS7Pv2yucNMTx4Xdf7DZCEIukQoiv42f+DnIwgiEAjw+fyLxFEKjUZDUdTn8527Ggdg5MjKh55Y9re/fFKhBec9U/Pnw51gZPO7y2659v5Xn9vaEVw9cPjjj59fcv3f17V3r3vttXXrd7eZztkMAABAwAGGN729Yt36PW0mYDQbqt99tmvcjS9/vPXAt2//864cwBwjwl+K5v0r//7olDOe/mFdzeg56da6ql3rnv3Xrl4/fs6TzC8HV+9QxUcPTZ925enS3Hrj3V8dw/EzT5p1WQcr1j847YZlK7843G0GTsvgsfUPTrvhimDpT7vpwQeXPfvRC6/sGSDJ05+xs2egZt3y5euq+0zO0CNeIvPJI1vX/fvVfUMAXOyhp78bEgfa8q8/XPfZmtrgE9gulaOj6/i6hx/dWKe1/8SjCiEI+h1drlAKACBJ8mdWnBAECa8W414werLWFgXcPqWt8ZQO+H91LCVJQPi9iswor0HQfWQPtSvjsVM9+ppBicrPQBQz77j3yivK4seY953GAcpZd9135ZUT40Vul1+r63RHCiNECgWXwzozu9tvqK0Bz5hZ8uqaNWu+W7Pm7Ye4Xf6+1pOWkAwkHgj4vd7Ab92IMBaSIGk8T9Tih1776PM1a9a8v/Sx2YYXntpyqs/sBAC4dA5d9wHPxHh3u9c42G3hCCLGXfHCD+99tWbNJ39/YsnN44of+M8Pq79ds+bdx6+Zl8HzegMhRSYI3O92+/GLTyn5SwmzCqdf+eD9EyKoCWz/DMiAz+f3+/Hf7G1y4mLyr3zun7PT5TzYVAtBfx5/lt+cMITPa22sMMgyVPGeCNBa1WyeNkHERBHg6uupr96+pWYUAMLZ3TgaKc+IB4QHWOq3rTva2Gew+S1Oq77DM9ETtkd2XIKqXcYcPtximVAq1J7crrdZgDKF5/UDV39zAxapBLohcKramSg9cqI9YLQBSWxW9tSrpoj6mhpwWTzXGmg98sGWJq/N+fU7jTUlRRnxk1Kce745MuQLeEFUXHbB9GszYqz12w7gpKfF67Z227LnPTAlzttat6ey4mT36Qc1K4onTx1XmkIP9J9a/+2RIT/uBSJ1an7p/OnZQoCJsjOL5ClcTZrMDUBzxwcnvA4CP9vfa+uprandv6uxjvXWs3VJE2+cmUpnjjSU76wbBYAEaUVzS8aXJkQEszt72tt6Dp/QSkBTq5aU5EyNETOR+p1HRkHKnHtLM6U87cnWE7XmgmVlMZiEreuvaak/qBPffE22BOVT3wuMAfhxqXmFhWlKgUPWLbDyHqw33FrgjBHTTFpDX6chY9Fk00cuU1/7gLsoS6LOKlUDAAy43QgadLL8CROiUIRpwHU99mChLsZaf2hnxYn6fhNgABAx8eZF+UqbqUd7os6aKD1ypAlYXUCeXJhbNmOKsH79tyZpSWZaYawSeADZf+D9bnYG3cVl63uARNS+dy/gEvV2u3c0kDv3gckx1rrjOyqqGwZMgIsgGfOWTUnj6webdScbLQnio0eagc0FFCnjcydOLRPUb9hj9ls77HaDkaZKn3OD+OS3zX16b1Rx3uT5k6JJYK07sK2iumnQDJgoppp48zV5MpOuS3eq0RwnPnakCdjdQJlakjt5zsRIY335/taawX6y0uyuS55w46IcoYSDAc/IaEf7lnW2gmVTEhR8ATAb+/qOfDYQv2yK1FrdXHVyf7MZAASAiNwrZhek8ViGnq0H8UTJkZZ+hSAmKjmTV1+J8iJF/v5DNVU1B4KZr5xdEAcA8OMB3cnVrx/ykXYnX6JJn3DdFTnBh9v7rX5j3YZvjnSanS7Al2oyJtwwP1sI2L/5RSEE/Y+5XH2lOp2upaVlwoQJId2fF6TValtaWkpKSs5kDvicuqaNa3o1s5JVHq5Pu1ebOGuckkO3jFTvPbJ9X3mj00c4XQ79qFPIV0dPyMf61n2x9ehIj9Hp9VrtdseAO2HajPR4qq+U8AJ7854KTBFDV6pYbVUgO89fsX2/E+OwFLGWYbysULdxvZYgtC5L29rPjwWEtuFRp2WgfVBvawvElipqvl09EuDRJFxr9/4TVXZUJGHSWEzEpfU0HdpRbbN7ndbBIa3Da45Q5ZOVn310uLWv20Ygdrc0rUxo2L324L7GU31On9/i1DcdbmbJY0Qqprl9y5GKvmGjw+EwGywO3EyLTI8XMARqmYjJsnW3Vxw8UjNssCtjCtOSUuRnHnDm0rdW1tc01Q4F+CI6NyqKOVjTdaxiX4vTTzgN7d2jbAEWoU4TnXmCiL2p5uChb745iQtcuraa5iFP36gdN7T2Nx+v8abJI0QyZ33bwR1fuyeWxHJkeEv14crVu4wpc0ojOSgLA8BnsIz2bj8MSmenRcp5qEen7Ws7tM2Vfe24qAimt6OutbJueNwdM7lH2sx8Ky26OO3MEztdfZ2d+qYBTtncdCGC0Fx9nY2tx493+RnW3ubm1ubm5oZTdU1dFX2yaVeka2RcJgAA+AHQt2zZX1nT3m4w2ew2p25wFImUMQb6a4+vXV2Fix0DQ07bQEu/wd8PYifEmcs/XjcqUPLiE6MwK6nb+86HA6jQoDfpDx/QFhZqv3j70KC+3+LD3LgktUwwuunbvQfbG4ecHodZ39w2HJ2opvX1Vxxds/YELqL23NxnDAySyhJZzYdvH+vXj9htfQOd7RXDPFTfMtJd2zqKD9DjStM8HZv2V9Z2dFKF1A+PAo2C2dtdfXzDuhMBkWNwyGkbaOo1EUO0hNI0dOjYjuNNBp0H8GRibvS4HDWLy0CB36LvqNv60Q+e4skRUqHE19tbf/w/n4xkzMsUe3v629tOdeqdDqezv7OboWJxPLyhinf+c8DHM4+aeFyOH0WGvv3KkDsjme/u6mlrr+2iMnd0M9RsPipz9pTv6GSJ3Bab09DXNzI40slMzBT31zX4aSJ+fKSve/2+Y91Do1ab3WKy2VzDZFRKDI/LhDOIQtCvh6LonzKUEg6XqWPH5/WSSdPHpwsIk23rYXvJnCwpvfXoV5uP1dGz/vHhP5YsWDRBiNsZXi+elDTyzbLvWNc8c+ODy5YtyitNxE5UYkWTU6LPCaW4Ii8xTsgyfbbNnNh/oCktPk4VLw+0tIKyMnDyJJDLARvvqz/SJr/z8/tvufa2UjHmsq4+ZJo+gThRDRQxaSUTElOT2ZUtmfc/t3zpjXHSkdot79dGPfP5I0uuvTrTYjN0fFVBvzrXeXjjXm/8lRNvf+Kha6NV4OQPf1+tU82e+cSzT946ZUER1tHMioz2B4Z6d70/kvHyfVdMLpuWwwEWw75dptx5GUIaRgeOkcYDez75+KOtrMxbJ+YWJaiZTMbp3zm2VAJ8mFzvL/3ne3+dn2lsXbO9uluU9/d3n12yYJK86kibvcMomTZOfTqkufu7azvq6sD4f729NNvbUdnV7oyc+egjj2Yavj3o5UeoxmdJBJjzrXLfnCK1RFdZ3W86opnzzFQVh4YAAIDPYBnu3L7HGJcpoRFufXNNfeXxXcKieTNS4wX2obqW6mPmtMVXTZIYq2sdWicruyRRQj295PxQWnN8z6ZdR+uqK48ePXb06NHjJ6tbDSPsrLlXpsdQoZR0gEDVqgcrA1njy+6+Zt749Akphm3rDRy+0+fobq/Xyu7+9tGbF9xUyHGabDsbwIzr5ir1n3Qh0V5OejbX5Dqy5lNWcUEKQ+Jwtw2AiRPIw9/tRLJvmn778vsWqBS+yi8e/96eecPcx/720MK08Zxt7xzhq3kumq6lvsmguPubR29ZcFMBy2a0l58yTysFB7/vUc+59arrJ5cwht74T/X4x/5+y5QIzGbb02CaOsX23bJKWtGESXcumluUOj7RsHmNTihxuS0dHS1m5d1fP3brghvzWRa9bW8TMeOKcamRgV5dQtL4qx/9261z4rhc6oOkC2moX2z54ChtfoxUFmFr7myp/1I57d5STXxUXGRCTmFe4fiS8RMU3eW9NKfPn8Hs37N+r/yWd2+9de68HMw/NLCnCi2bmx4dnxifkFOYXzi+pGiCvHtnL83t96fTjfs3jhQ+89Jtt918bR6LbW14Z51zYgne0YGw+AEhOvzDI40Jf7t91pUzZubJxIhh3VfDObNSpULWLxk6D0HQOS7jsKNL4jF6RpuPEOMjpJLI9BiVUlbWUlE34LcM6k2cTEbOFfNzwZmR/gC4XQGjszfl7vEFUWnqc/cTLlqm5sZlbnzxgfcdqrjojBRpWLowiZ916zVFTKUAAKFIKJEnATB205fV4sCllqxbrh7PUAiAMCYxjiuP2neyJoDbYq/Ozc8tSQQg4AfDQyPqK+OoxdBtzfU1/V8+M2fmgilTpix8+ImXN7Z0DA8Q1KgcYXTh9Us/Xbtn/1Tw6aodn+4/McZoKAAAAHqdkZfLzZ15ZTbAUCDPzE8y+pi17fWhQ7REEZy0ovGRKF8ToUrMz01Ky9EwUE10HIMpAQDIlYLYlLk7KoZN9sruRp91cHJe9jmPU/MYQdP7z965aO6UKVc+8vUHIzM/e/uaklgJ19IzYnY10QvHRyK8vJwswq7qaL3Yo1HF6TFz/v7N/gO7Dx48ePDgwe2ff/PSDZkIcra3z+8HQwNDvr1fvvHQXVOmTJl51ZSbV+7YU9dttpslGeLs6xePB2IuAGKpWCyNBwAgIDO3bNSB13f2OO2+qqM98yYkpycoTu8NQUDCDYXj0gviAPD5wNDgUNSi1HEZBbGAwRNEFk9Oq+4w92t7JFnS7OtvGA/EHADEMolIEn9628KEuIi4SD4nJiUzY0pRNE+hkUrEkjiflxzqH/Lv+eyV5XdMmTJl1qLpt72/e39jt8VhkWTLsq+9vggI2QBIpFJqVxfG40vGlcypbO0Z0BlGh63mEfv91xVKBGxgqjqw6h93TpkyZdqMKQ99Ub6rzmGy6DlqWuZ9VxaKY2Xn7sV0Yt+nf79jypQp02ZOefjLPeX1DqNFzxWhGZNyozgyNuCpomLj0lJb+s1evwsA4LC7DS3t7vUv33r1NVOmTJl3zz1/+765pb/P53efu2MIgn6pP2Mo9ZgMg1V7mpq/+Pfjdy6ed+/DL326x928/+SQ2eIhERSgtLDHSJIkSaJ0DEPPuzkgDCKNTii48rYEfGZBqkITeX52FKB0GgYQBAAEQRDkgmeHBCRASIxOxwCCAARBEYAgOI4DQKI0DMUwlAql/b0+3Ewtnt2WJPnxirKH/vPdD9+tW7du3YaNGz/8/MObS5g0HgAAIChGp7PEHE5RZv4ojafXXSiUkiSJYAhKo+7GQVAMJQHAz71BGEEAdXQURVAMRVEMAQBFT98rgsi5wtiJ03f0jBw7sk9sG8rMz0bPec9MMUi+/fE3P/ly3bp1n7+68tEZyRwGG0Vsve09NZsP7H3zvvnzrpr/1ze2bt6r7ahu0F+waQNBURqTzeWcwWYx6efcr0KSgCDI2AWLn3xz1bp169atX7f+x82b/3bvnIwYgCLo6fMc8qEgaNasiQiZrK+o8vYf6ZqQKBFE8EI+T5SOnX7uEQlIkkRpGIpiKAAIgmI0lCBIgiQRFEFpY3zcKIaiKIoiAEVRDMNQBEEQBCAoCQAARPxVNz/91menC7lh85Ynl8xIi0JQBKWFFvK8r9Y5EL6MUXDNIkMXZq+stAb6DDklUQjHsv/7d3dVDCdf/eG6dWtXr/vwocWFCQqCJBEEoHQahpz9vpI40O/99p1dldqURR+uW7f2h3UfPnTDuHgFSZIAQVAailIlRhAERQmSBICkTjI7gp679J8ffPnNunXr1m3YsPHz9WuXzlKLxOcWD4KgX+qCweIPZDFYOhp742bdOHv+ooVzr71+0dwb50a1n2wZxBHMa8OG+7vNgCCBbbBnxKg3MJgYnycfatXpHCY38Nmthu62ARwPH3YEAACALoyOKbn1oeeWzsmNjDzTpfhrcDks1M7tO1DRHrC6gEs/ovPajFkJCSjKCeah0YEmJto6jGsNw2fuIAEAAC6XxSAkziGXpCgtr7S0tLS0NL8gL0qCoa7Gwy2dXR0O6l4gvUnLwr3M8KY3pwcfNhlJ4BcI+e5uT0/tyV5AkMDW3zXCp/nj1TG/4JZKBkegHL9onGHPthYT6k8pzBGcuy3GAPzYlNzC8aWlpYXZeUlyNoKgwDrY2WHzsnKvvuOaeXPnz118+w1lufGMxpNtRpIce37In0SjAalM4u7H6BJxAnVOSktLU+MiBGfPZxh+UmakV+qsrTze3RI/Qc7nCsZsQKDRgEQq0VcMdg10akHA4zK2NQ4mqnly0Zk67M9GowGJVOrsQxkySWKwkCmxCv4FCwkAMNncZrs1bCWNi0oyJsYOuTqqT/Z7R6OyElgkw68fsDKBJGXCtNKS4uJ0KaDRAheoL5LAqx+0MBFp6oTppSXFxekSAqMFwm6P8ZgMeot2OD9Fw2IIAABsNoNDk1s6fMKM+Cyq8AXF4+OUbPpP98FAEHRRlyuUIgiCYRiO4z/ZC4vjeCAQCJ0OyehgNhniZ9+0ZMn9y5YtW7bs/ttvv7pI3HRy2M6XyFmKQPPG1WvXrlm7o6KtS+8K0PlsSezUBHNr5Z71q9f+uPPA4VajGyfGPipdxNXkLbhncpZGfGYsz6/CUqoiFeOitMfXbfxx9drVG2oajIyEq/Jj6NjZwEdng6jxsxJJoqdi4w9r1677ce32mk6Tw8NSqjSKvEjtsbUbfly9du3atWs379l+vM+KE77h2qr9W79ZvXbt2jVr135b780RKVMTJCHHZcpFXLrCX7Fzw9o9HShXwpATbXu+W7t2zdofNnaapBEJE5LUvyCUAjpXGD3xGmHfCEfNlRQmq37Otu6+rmHcJxp//dJlDzywbNmyZcvuvW5mqhSpO9XqIN3BwaK/CMYCwrTidNLVdXzH92tPK69rHrJe+PZZnjqJx8Q93QdMyiszxEL22PEAYwNRakkG4eis2PH92jVrd63eoueXZcQlKkLP689CY6Oi1NIM3N5+7Ewh163dXd86YrtAIRHAiVFzTJ6+fdu37z7Q6XD6gk0GGIIKk8Zxra0m0yiQF8cJAYJxYiKjGAxPY/WOtevWr99Z3Ttg9lzgdCKAE6OOZtDdjdXb165bt35ndd+gxUsAAAKOgK7m0LYfN65du3p7TaWWnXtTcbyAzQEAMCVipWZKhqWxfNvmH9auXbt27cYdGw52aV2+X3kBBEHQGZcrlNJoNB6PZ7FYvF7vRaIpSZJ2u93pdPJ4vGCrmJcT74y5eUYmS84DAAAgkHJTcxcyzIhTnVCckz3Of2zViv+8vmJDNw0RxGbJVGJh1g2P5jk7dqx5b8UnPx6qRrOLIqVy1plmYAQFdKFCKRLzz0x0RMHYbL5IrRYxmSKlUiQSiQQCkVolYFJtnBibIwhJ5bMwlEFjizQaEY9JQ0FEbO7UhcvmMA9/sPr9Fe9vHDaA3HuvSmVwJAqlSMSnZm5gApA+66ZcAdq8/aMVK954Z8V72yv1djsWmZQ3bcH9MxkHVv7w3ooVK1asWPnVJ1sb9QGCrxab2o9v/3DFihVvr1ixzTnlytxpBRmhMZ+XHJMVP3Fc69533ly9z8cvnjVhotK0ccV/Xl/xyT5uZEz2vAma0DfIFYhUEQIGgiA0nkgqkks4NAQDdJEyQiTiMTGq3imKj4nJLMyMS4k99+oCZdDZIk2UiBM2CZRda+fkChOmTE4Ep5sc1QlxUZrJpHHQDHw4ABiHKxSplHwGFZgxDk8gUin59GCcRhkMjijqnD2zAci88qGbk3kDDd+uOO2L/RU9TkQYsi3G4QlFEWcW+THpAlm+1K+4frpCzKcBGocnFKlUIjpdpFKJhFzqvl82gmTNfeSWJHZf3bcr/vPRhq9r86+elpWdoqF2dbaQQlFExOltBVwGhjKZHFGURsShYyjG4YlEEQolE82a/+itScye2m9WrFixYsXrr6/44mBlnwsNKRXAuDyRKELJoyMoIikumsSRkAe2fPTV9zUWS8iFBoKgkvQSDpaaIlRMKxADBAWS4qIUH1O76ZMVK15/862tOoVIokmWirhckUYjYtMxFACAMplckSZKylZOLEnxMEZ//GTFitffemerIUJMZaYhEfiJbavee2fFipXbutoZk/51Y4ZcKpfKRVJRVGTChBufu1XUsn7bxytWrFix4p1P3lpzqs/uDZseBYKgX+pyzcGr1Wqrq6vdbnd+fn5UVBSLNXZzqs/na2xs7Ojo4HK506ZNo+bgxXEyEMDpDNqZziGSJHG/O4AwGBhKkrjf6ycAAAiGIQBFUZRORxHc7/HjBEECBEExDBAInUFDTw+hIQGJ+/wkgv4fe2cZH9WVNvDn3jvumUzc3QNJiKAJENyKlSptqVCh3m51K7ttt7KV7VJ3pIUSIDhBA0Hinkw8M8m4u9659/0wwVKobNvd7b7z/82XO+fcc48/R58Ho1wMEgBIwufz4T6gUgHHwX8Ay+e7oD5wvCuGYQCkz+2BsZBJgiR8bn9UAEUxCpWOYaTP4yVRFMMufojwerw+3EeAQwsN/1hZO2lR2dQHymLg0rsACIqgFDqdgl70DAAAGJVBoaDjdPySBO7zejw+QCg0GoYAgXu9/hcwCo1CoVy2LUv6fD4C96eI9HlxggSUSkUR0ufxkCgFwzAU8RhAseux193ZC6YvWpobdvm3/An0Xkjvpf9xL04CoBTqxagRBO7DvSRCp1FQQPzf9RfBxWhcfAQAkiAIn+eqIXtw/OKKAkqhUhAEwEcgNBoFuSyoS484gfuAwqCicOG7PqBSwesFzJ/A8SEjABiNQcUQghgX1Lh3USAJn8eLUOkYCpd5/rmRRGk0DAEgcA+O4ziJolQ6HbtyE5XEvR6CRFDKhZwhcDeO+3B/lcIwABRDAUXB648GgiBjWYdQ6Rji81zFM0J6Pf7/ABAUxah0GoaQuNdLAopRKAhC4G43TowNbxFAqXR/yJfFK0CAAL+I31Gdvdfr1el0TU1NarX6RyamGIbx+fy4uLiMjAw+n/9feqL4V9C76+kdx9vPDQMQNLDEFj23btnUjDzBf8vVA6d2oHvTTZXc16dPL56ZwR67RRMgQIAAAX42v6Mo9RtQk8lkOp3O6XReK3y/KA0LCwsN/cWnQP4QqFv3tPTKh/T+9d6EydflJ0UKftU27W+K165XNlUowpfFRIRHBTSdBwgQIMAv5/cVpQECBAgQIMD/PGM37wIECBAgQIAA/zIBURogQIAAAQL8KgKiNECAAAECBPhVBERpgAABAgQI8Kv4vSzDBPgP4NYoR+UdvVZ+JJ/yIwqE/Yx5tv0sz5fjGOntVSt0Xm4I5z95ecYhFYs1KiPOFf2r0fCaLNqRM3V6dgiHTh+n1/nfi8fmU7VVnapvbm3vGtQobJSwSD7l52ie+s0hCXBIO7s1WivBDf4Vl6N8DtwyXNuoJ+g0Jof+n7SKTPrAIWnv1BocJEfI+tdT9P8BwgsOSUubzupF2ALmf7LU/mj8jkbWfidMOp1Ga7AjTDYdQxAAn9Nht2n0HjqbjiEI4TRZ9MoRhVav1+v1erOL8GE0Buo2K6RKjU6r8/89htlF+DA664IBs/8FzK111bVf7TJMXJDBxdCfaAmmlvPVtd/s0ectzOSiyA88+zx2k0E5KtdckWl6vd6qrNmxU9w5imRMSeBe7O4Jt8dpVShdFCaVclExwu+K5tjWbZ3tMiSjZJyWpp+NfVDSVv3ntyQZZckhQtalq764xWBw2N0kjUn9t1QOr1c3qDzwyTNf7K86evhE3UiXnj9zVoRN7UJQjEL7wclAEie9ZpXaRV7V9edDuNx2q1LjprGoGOG0WuxGC05noajmyJebxINGWmpBzC+8HkWC16LTO11eoCJGl/TwX94dZseHR8cJL5kA+vdDuEFd9fGXvTIbEp3Ks2s9NDbtCsUgPwJJAG7R6p1uHKg0IN0WpdqFUCkUv+ap3xzcZtZpVHKVRm/Q673AoFJpP3uEh9vMJrvFTtBYfiVf/xI+O6gO/ePTfgPKTcyO8OuaC/Bz+G81snZt9n766QPr/vTCIdWYOlNLZ8uxiudeODRg97gALB17dr1+a+kF1jzz8Re1MruuZe+Ti25ddPHvC67PfvxF7bWsrgQwSc5/+8mdpbPKxufbun8cP91vHe/dLpE1V2x4sKJBYrhcdf8fD5IA9bEtn1R8ub3lR6zG/aao5JLmjS/L5z326aatb724dnqCR+eVVPz1xYrD9dLxevABwK3zSCr++mJFVcPIVVx/Ptb+vvMVjz1W2aG2OY11x3dWvPmP0wqAf10fL+EF9eEvNlZsruzQjXf7L8Aq7j5d8aen94mNzqvaurgKhBtUBz55r+K7/d16l9LSV/Hc0xXVHYof1P7fCP2Z/f948tbS0tLS+aWlr35TOywf7+Pa6Gv2bq14/7NzKoBr6G0O8PvyBxOleFAihlDZNZ8eHnVq3AAkQfhwj8dHAOjPffLV4f7zvLUf7dpVsWvXrl1/Wxshk3754btNodOf/uafm3ft+vqvLzy4duKk+97euv27Xbs+eWbtTfkB61LXghdTsPzWt3ft2Llr16cP37x87eLrn/9k166du3a9e9e0ksQfDFhZMZE5i199dfHE6CD2eLc/GiTu9eI4fg2LCL85dqtTaxrwxIZEcYVCOo2CoTQhNWbxI08unpkXfbV5IQkE7nFfprzwX4OdmDhp8csvzc8QsRmkz4fjXo/vVwUI5L87634RnJTUksV/fnZOyi+wc05eUjnJCOMmLX762cVT0sN+UPt/I4KKytesXv/I2pyJt735zfql+bHh431cG5LAcdzr/a/M+f8f/MFUNHz5ZXX98aopE22VwXf+eX5KHqOz5kTzR3uZz3xQOPTGJw2exKB5y++ZHccBQEAzfGJP1fHhM+jc156ZGsGiUg21p4+3fLKf98wHq5I49CsWnSydtU3mYYkimNFd05U1+47S3Ai7oaXh0P5mFQABYRmlZcVTJ6ZxPQDSM58dbBpSqQAYPFHWkg2lov6Bs+fPNQ7pgAGQNf/ustwwq65vqLpWEwxdPRpfUE5ZvIiNth04o4SU+fdMSQRSM1RdpwmGzh41EZQ75lqjhNT590zJSUhmaY3S5ootNXKvzw1BUZkFUxZOmQite08SiLvL5RhuHQIAyFi4fmp2fBJLY5A079xyRo773C7FiI6hZcx6/4NV8c7uxiPna5uH9UAFiJh60/KClPAIRGOQNFdsrlH4CLdTIdUzDayZ73+wOpaCXl1Fsh/5ro3fqHX09LsenxkFgMh3bfxGPaiyTynWt3QBSUJ8ybLCiQmx+MDOozBrRa7Q2trRUFfVpgcACJ9WXl5QnBV+We+jljQ0nN11thMAAOInX5cbx+PLj2yuUQEAgDA2t2jy3IKJ0LbzGNDwDptN2i4BAMhasmFaVlQ8/0Iw8or3vtRaeZnrHiiIMrVVbKnpVZttwBGEp0+7ZeVEPpCSU/X19Uc7/AsPEbnz5hQVZiTRbaSptWJzTZ/GYvPojSb7afn09z9YVZwk4gIA4CRhaPv6xY27R4Z9wXllk1Km3bQqXtJ+sr6xc9QAHBTLXrKhLCOcfzEWAACgGjpfd3ZvbTcAACROW1WUExlmbtr97VklgBcSMyYXlS1MjDK2VxwFNrSaLLIuKaAYJWvJhmkZhLfpwN4Pd3x6wp6xKj+aaVBpBHhw0Zt/Tjp/FLIKU9NSKS5JR/Unh7oAnADhmQVJSZHsk6/+ZS8EpcRkl5bnZmZP853YXKMy2LzATYzOKrlxWQ7fb7LeqVBIhw+cweasmhBBGe05KxWPMArunhYHZsmxLhtq80ZwOs6h5Svjrac/37Gj9ugwZ1JpYnIcva2BHxbkyc0ytfcAACSV3lhSkJsdclmKnXJ5T+Oe72uVADgkZ88onrEgLcKtavv6hXd3a7TUkAlFUdFh9JOHhaVTjCyWY3gUKDRm1pIN09OEURSZTNy4Z0edCgAHUXLR1JIZ6cmeroqjEERt0hoQCzN/wbqpcQD+fU2vaVTdsndzjcrixAF4IfE501bNmwBt1ec0GtmwzyXr1QAApMy8pSSDz7X0HzytC4bOIZ3H6AB+VGru3BtmYhVvfmLjJ4ROmR7e1UgtXzUhjKMbOnH2/NGWPgAASJl16wSRk5Cc3lXvX4kISZk8vaRsQjIma/v6hbcrjSZ22ITJafHJ6aAXTpublRRm13Y07NvdoALwQerE2SXTZoQFacUVRyGE0aDSqfvkQGXxspdsmJHM5RkaOhtrdjdoAQBCCqfMKCybdO2Vc2PD+erG93awn/lgdSo23NliHBhShbIaz3SB2wvR+XMnTZlZKLKZ2yp2nB0Z1jiBFc5LmHzLynj9vnc3V7TX6/gFZTnJ029ZlqRXtjSdqR3QAgUgvHjV0kmZMaGOIVnzwS1nlE4PASCISJ045bp5EwVAsXbVnag9UzegIzxg6z8rL1x04+Lb1+SFjY8cAABYumqbTDpcNHVOmgAAufA4eXoEtFV8f2Z0ROcCVqQgacqtqyaGuMRNx2rPNgzqgAIQUXL9sknpUVH/yeX+3wsMw36wR/bfDpMfkZg5nXJod2Vf+i3hfjsohAds4nYJi5+XNqMw7kI1DU0omjTBCM3f9CrxEiFQf+zEgX2o83TDqVZ1WiFLp7e7cO1Iy9DgyfYBg8ENQDq1LY0ilBsclkdq67edb9FILB6cDUwCsXuU4mP76uokrRpgsUmHVLJvYgQlx+HpqNv/3VD2VKpF2tuh9LSGxGS4Fbq+bjGthO6mcBUt+78byplGNUt6O1Rjrvq+7j20EgYXZbJkPfvqe7V6O0EQbp3dR3FzhQnZHSd39/iY9qBIMGhcoOvew5jC5CIMhrijcteJToQlAApptTpQH8MLoOw52tjZMiA1mD0EgENxqiadTXcTRHf77t0nOhG2ECiExeZA8R+ztHltbKNGha5HghgMQOrEw3i03eeaEyzeXQnJRbTRjrpzZ1v7ELYIQCdpSsyITLskSh3qnjNt587X9VndIgAAocPt9ni8DovRaCBJAPOogaTow0InxLefrOhFhU5uKBjUDtB172KVcXmcCD7/yimFw26QNGw/0y1RqJ1u3Ku3WJwHj+SEzY8T4k6nzWwwGAAAdJKTomhCJAgPkXdt31TdiNhRoFPNFhuO+81ij0ECEG6n0+N2uDw0s0lncYx2HNh1plnfZwI6Te+SD+0ujqVNTssXXcw4h6r7dMv5+oZ+qzsYAEDk0Mi6RyWNB092IzwReHUaE0a6Yym3M9uOf9/DinSzhGBQ2UjjYAVzpoAXHuV2Od0ePJgGdqvdZbW5WFSf3WdsP3YEKGFcHsMgP324ptvoFgFBAabN7nDjmN3h9YLdajbrZfI+39Hz1W0IDwWMUPjsbrZ8WQ7bL0pJs0neU/21OWlOKsPV0l/fWD0Yhy+ZGipS9TZ0WzADmsvbu5eSNS8Mdbs9LofbDSaj0RIa7DUPax3uXg4Y9D7QdQ8iaT52RFJIyIU+0KgSn6/dd6RajPBF4NGcszBQT6Lo1jif2+H0ehwOr9VstvD5AsLQNSIl6FwwqCyERd7JnCXix+GWnvYjrf0GgwuAdOk6Wng+OgijWw591xOW4qVxYjhhLu/FAvHblXBZzCaD0Y6DTWGwOGXxOUnxXXUH24b1lrAEzGjAQdd9yJ7otoQlod17N/XmTKU6PIhbr1SOyNvN6XFLPS4AvlujHtbsP8jIXRTnGjreXNfaPGD3CAEArE6Px+P22S/UFuNIHYNvj4xJTsfdDqfH43CCxaKT6+jO+pOiiBwOqunpPHCypgfhicCjOmPlUr0hWQvxpkNbeqNzcIwBRqWJsOvb6bPDaQJ2d+PpI009CEcEYB5pC4sJy/kRUXo5jmHx2bojtarMyYhGBz5tv9Qp0FOjEieZT2871WRHbEClqN0yBSZbGo67XB63w+VETSa9xanoPt45OtgnMZjcJIBDeeZsMpPB5obguNNsNBodbh9Y5QanVxmfmzENhk7uP3NyqFkJHIEXHA7XRXsaV8U+1NksG3QmTZiTxgdA/I/W0MQUY+e31c0uihOomMqj0mCy60TKE00dTf0Sg8lDADiVZ86ksBms4IygHxu4/2H5w4lSAF4sPz37YdHyo+ISLsFgAgDhA51WFxyXHh0ee4VJMg4To4tGpHqC+GkzUtZBHxYqmP/ekxOATtbu3tzR3MMpefWWXACK9sSOffLmqjMZUcJT7+10X//JLWXFkyMBSDvgZ959pUaXunLlX+9cGq5QH/jT+tqOJh8rxemlejhJt7+xyLTp48/qa0djFr7w9w2y96/fNDQ4zEgkvFQvJ+mOtxYavvros4Z6WezCP7+1Qfb+6k1DgwNOltd4Yos565sHchlUnqm59pzkwHc1c16mevQtZP7tBbfedl2UGpreX/b1wNCAnYH3HtklT39z5x35jFjv2WNV7VtOuBBv6/5PuyjT8uY9NinFawZ11d++aBYHK0xE/4lKRcZbu9bl0WLcZ45UdXx3enw2/CzM/T56Suji157LBbRl4zM77OIOcUEZAADY2hrO69Wuybf85YY58cED33zjCIFL5jxxRduhk91qfvYLf797wmVHljIins0xugDIwcOVHeYDp3v+FA+krgnPfmDyLTcsDpVD8z/mfdEzNBJjzb5SlBI6nVS/+YWerK9vL0sPD7MNDHe1vPbxobJJN4lSZpSG5GaVWt0kCe1fvdqpaGhrLk4d+eqNGtFbu+4qz8hjdPU2nn74TbjM0CkVQUKLly08o9Wni7JveyAn3Hn69dfOOWY9eNOTK2fz+hQHnru1qiVTIMyaHkcH/0EbWcv+472WqIkv/n1dDgAA+Nqqv/hu9zHLhNe33Z0LlJZ/fnVKUrmTv/oWgtA24kVPzrhx+XyhxN340bwvOyXFUcWTZyxFsbPvY4+9umois/Xo3t6jzRei49MO1tW31IyEPfvt3bkg8osyl9Idcf1OGcy+bfbcIo/q+JHn9glmff1g+eQUVm+Hoq/PATDWFbL4LI4w2dBhcHllg6MYXSvISWist82ZrtRiLJRCRoMPAAEQZpWWjhqi7ANRj78xP0q+8++N3/axpiWufOqldBc0vX/vt7q+ngHT9AuiFJd0nK2tOesqeGXT3blA1r/zyemhfXsGrn+isGTVkhMaS1FS3k03x3D7dzywqQqPe3nR6gWzef3m+i/nfdEiLVZqm0faTiIF/3wsF4ChP3voqKZpb/2ke30+dZ23/JVFq+fNir2QfAAAoAmiYmbe82CqwYEThOxcbUfvy1XtG9Z6CKNTmDxrzqM3zRY4oP3De//c2YbKyHwqZoL4G15bmCWK1VdX7zr04LvftkxLMRHUC3MsH3hH6yqOjNALJ//l4ZsyLnzG53KmJ8YUmt0AZE/FFx3603Wj9+ZlTV2z7KjaLsydtGZVKL3v4APnAPDBljPnm5qQ4pc+uTsX3Gf/9v7pwUMHKGVzPKT6vHfp3xcvn1XKEqvPb577Zb00i25pUvYpJ6x57445ccHK3TstEeTP3akFAOswgXDZcz98KxfYPV++sUvdXHtyNNpXUUmZ8OdbZy8tiNLLJceOkRRRztzyAX0qy5r4wJ9nROFnPlrTb05Nn/3YlHTcDuoj727q6AoSZt88IbF8/eMZBidBEtJTJztGPjjW/EgeHPr2jDpm8XV/Xb86yQKyiqffdQvGx+On8OpsSlXFLlrB3+4oXzgxXD0iPXUIJ9oOf9FFmZA197GSVNwK6iN//7q9SyTMzCiIHP/+/wJ/sL1SP3Q2t2DFXY5OibSz9zc7OBQ2JXbC/EUTgYoB6LQGW/2xk39/uLR0dmlp6aoX//HFib6+nmH18CnizryMqPQIAADAcVDIlRELE/LzJicDhcmKLJqR1jlqH5QP8MOYGcVF0RRedFh4Sv7E1MyJ0VQ0OjaezggGAH4YM724KBrlRYeFJ+dPTMmYGEVFo2MT6Ixgs8lmbG+Wfv3cvPIlpaWlyx5+8rXd4gG5jCDdCSvy8ieUJAFQaBAVm0BjCM0mGxFizblpVTEl5OJAF/eCXKbwnNj8z0fvLC0tLV9aetP7+6paBodGR8hQW86Nq4sx0a/c7YkoTZw4a34OIAhAaHgEmxN10SkkVMQeHj6w5bW7Np33EfE331wyYULiRVdNR689wxs6a17OZTc97MOjZz56oKxsQWlp6R2v/P2bcx65WkaCJ/H6wvzswkQAGg2i45NotKsY67bb3ZreIXLv3++5fnVpaemidbc9saWrSyp1euzGpppvXlpXWlpaVla64YsDB1vt0tFRK0iyHphVKEq8fLnyWnjcpEIhi1uZUZBRkAA0Di+qeEZGQ79hVC31eyBJ0LSLHbkQVjon68JbBoMZi/Xkrry+CPgsCErOSAROyJn2egRzJt9YXJCeHw9ApyNRcckU6pULxT/AOCAz80e5K1YXAu+qy2IcLiMEi3LufX/tPyuOiT0FBSVr1hQCXPAbwQtOLJkvMdu9spFQdmh8cgFLcq7eKxnWcJieYME18yBmXnre1FkZAAgK4VExLPYVa30GvZma6MtdvnIScBkgTM1K8jKE5zub4LIxEwCgdEi5dUpB8oRYAAYTi4xJoVB4er3J3HS6cePjpaXzSktLVzz96sbDvVKNAmPgqWunTUrKjbk8CAAAcKvtPVteWLV0aWlp6U1PPbmxmpDKVTjujMmOSk7MEAFQKZBXOEnoi7QatS4hJXNafgxdyASIiglNT5hNSI1K3Om8EJrPC6qmDtdkVlRxadplX7GKuw68vb60tLy0tPSe9778vsGl1ikvDkoux6Az0tPQCYuvywcmDYLTcpMcKK++u5nC9qTdMWNSQnY0AINJiYhOwzBusCiIqzKc++6lVZ+cMtjDli8vmTw5dXyI1ya0JGrCoqV5wKACiEJDefxYBhMLD4rDjn/31EffbK7VJSeX3HNPCYt1qSL5cFAqlK5T2z9/6p7S0tLZC0tvfLtiX+Ogzqx3yg2tX/5p8fzFpaWltz7/wienfcOjStmoJHxeXH7BtJQrvvzLYLKoYbw49MiWxz7c/F2DIS2t5LbbSvQ6u7v6u0+evKu0tHT24tIb3919oHFQZ/nNeuz/Mv6QohQobDR62aoCFYuUnh8AwCgQERmm7rMMjw4YL/NmsTh8LlVyZBiG/vRBAwRDUWzMbiRJkiGF+Wte+KyycldlZWXl3n37337zqXlZJAlAQVHk0m0PkiRRDEFR/+l4BEMRgiQJgkQQQFAUBUAQBEFRBEURABRB/bdHEARBURQZc0RRFEURBEERAIQkSV5SWOkj73+/8/vKysrKvXv3ffrNx7eU0CkchIJiF85cIyiKAEKSJCCAUigoXGkIkyTjllz/p3e/rqysrKys3LPvwIE/b1iSGw8I+UPP/wIohqAX9DcjKHK5tUska+aGl9488NfXNjDOL1l01+LXPjrUNSZ4AIAkSEBJ5EI+A4C5tXbvgY+/NBRv3PXR95WV3/z12ZumJfrvZqEUFL1grvVaBjVJEhgiMvPuZz745tvKysrKPXv2bjmwf8NiXueJDw+fHo6/7rPKysrdlV88vnZqWjhBkgAkemUJ/jgkSSIUFEVRxF9qGEIQQJKXeljSRwAKyFgF8P8FF/MZLtQCgiAASISCjaXIX/Y/dXOUJAgSIYGCodfwiYRH5ax+7PCu7/bMj6j9/J2FD9z/TGULwIV5D8JgIJGxuEbf0SJB9N7MFF5k8eDZgdEBNDo8KP7K2d/lIBh6qXwRZPwNV5JEELjQWPxVGyGIqxwcRSkYho5lNeKv/CQE56YvffrTysoKf8va9/4/X102EYCOXsjny7H19Z7e/9LTrXEP/+ON7yort7z15oPzU0mSAgAoiozVPARQFEXIC83hgvlVBEVQFIMfXPQjCYK8ssgMdUe2HtxxhDLr48pNOysrv3ruoSX5Mf7acuWr4K9yCAoo5i8Uf/mC/7AJcqFqXWzsSGrJ2j/99cA7H78R1Xf/2ocWv/T3bY2D40O8NgiKXOyUED9B3NDye7Zt/2rvjSWOI18sXHfTus2nzU7L5W+RJBk7b+nDb311ofnvP/DSYwtY9qMH3nx9MOPFL9/ZXlm5+fVX7ilPJkmUJEkEQ37tZQ4hP3LefRUV3+y9Pt9w4LOFd956z9azNrclduHyR9++2AvtP/DiIyvzE8a/+z/Cr8q//xgIBvSw9KkZHJtBdqpJjtAIenZhHmnSiY+e6jGONYDRrhPV56rF3vysCArlp0Xp5fD4XNLM9tjx0JJJRSUlJSUlJdmZ2ckhQWE5yJGhUf2of2SFYSAMFhoa1QNDYiX4PB5DX5c8TsSIEPlnrf8KbDaT5guyyayCSWkT/J+emD8xWniVq58AbA4Twbmy3j496fSCXa1QKUcVGEYGi4TOERTlcuL8IZSUlKQlJEcGA84d7evVkU4c7Gq5Wjmq9Idjbq/Zfnj3jibJVfuOX4R5SOaguEQ5k6dNKVs2PdYnsWpUmov3Y/jxUYxRiqmtSXLhQ16L0Yaryfips0smTy3Jjubxqc5fcMeDwaCy6eGGDg8rJSbDn9JJJSUJ4VSLzkIngtKmziwpKS5JDyIxzGNnMKhMWthIh0zrMrnBZdRrJAMjAJfvzI2htzgNVjOFggiFIs3ZkYHRATXgToe+r1OWEsUJCRqbpSEAgsQYugRMnS0jF97lcFmElio5W9MHdjfYFKMqcJkzE1IBflklBABOZAjbLnKeO9MHjsu3KEgSlHqb3WV36m1mVReZmj6haPq8qTkJDJqqa9AAngtijcbhRGan+2pPjRCYIzw7mR9WFG/s6XMAnS68uPXpx+Lwqo36n3OVgsNl4yp0+PzZfnB6wSqXqjCvNT0uxX9QSGd2mGzXLEEOj406eE6DQ1QyocBfXrk5GRH8a/VEuM1mtw/YY3InT5o8rWRCYlgozWEaN1n04TDU388QOiPDYy7f39FrTTpDe0xmbAiVc3ERH8UgKDme3uPW93bKLvzpNWqtiIWeNHV2yeTJJVlhDBbFfenGi9bsMNkuySouj+2REcP1tYPgxsEqG1bSSWdqTNJVd8ssIyqbz8TPnDx1cunSaQk0tUstU+oNdsnpb/6652yPSj/+hZ/CY/Eahrq8sVFpBdPKpxZMCOMqm6Q6r8MDYLK7tWYjipFBwiCXgoIwmDEXm396Uijms7uk7tiC6UWTp5bkxgUH0xwmFCOEwUFGmUOplVuB8HgN/d1yu7/4PC7LUN2XL20+3NQiuzipBwAAo82tsxgBCADLyJBSr9V5zG6jpAOPj0mfNG3O1LzsEI6mfZgUMKwyDGEyYy9FIzGS/4c/4X8NrlL6fxTYCcVJ4d3RWFcHUEiIzp47RXZS3FK/51tXaxAACpKRNo2Rnji9LEVI/YXHq9hxqUk8+ejAiS3bnElAwQDYUZHx0ZmRyXOKPIfqju2XdHeKgMqkRecnpydT2uSNh7d4ZME2Q4OaXlCemEnw5Reb6S+EERYRRuTH1J3bvsOTSAliA9CFHGHI9GjyKn0cIyxSgOUEtR74/nt5MMa3trWP2n0oHXhpxdmHG6X1h7c65P6TWfzUrGymMFyYE9S2//vvFUKUZ21rl9nHwrQPtJ1oH8JSw1cXxI6fgvxCCMVA7bBqBOnLYAKfG5QTHykS8C7KZ05idhpHV997bOs2exIgACHhXDNdGBEk7ji8XQZA0bd1yt1XSem1oAXxwujzJjnrqg+5paLoIAAKCwRp01PDQ6IHTcqO+v3efiBJ5fCoITwiPogvYs1JrWo8sV/dI4jwDskkpiuPHQEgCLDiozjN6pHj+w+65cnROWlEe/+5g1v1/WyDodkgKM1OTAq5cIkKAU5Sbjpb39x9dMs2ayIAQGhaNAhE6cHiU5u3eZKAGOoYRMNSFmTHQNuPHXy7KsyoeJHJKW4+tmWbOwk4dOBHpSakJCZykpI5dYONBw6iEUFuR93Rs/puIZNtJxLCoz2iUN+lVk1hs3mp2ej7++lFk7mJsaEcFZGNbKtnZ+RSw/nkpSukjMhgTgvHWrNvB1XOVqosVH+tuTqsqPh4YTK/oXrLNncS4H1dUnpcytysaAQDVmIMp7lr8OiB/bI0itXp+UG3yYpKiNea2pqqN29zJQGLBsAME4mYWbyrLaUCAC2YIwpPjhscOrvX3MKgmXv7hy1jRWYZGmg07GEOC3AcBnstCbkTcmhx3iGPsvN4JXTxGHStXKEnwlbPTg8fqadeGC8hFOCmFmTSa8VtVVupujgAgPBovofLFdIGWw5skwIgGnGfmu4TASAUYCfFcpp6+48eOJiSSFpdOBtYMckJSmtP58nN21xJ4OruUXLSkksyoqDrKroRSLW0RdbXQUhzuUCjczPjQiKFAo/FqWo7+LV0VnFKRHp48EXPTvlgR2f9uWaFnHNkVzyRZ77KBVbS4bb2ntveIE/mCYK9zqiQaF9oGIrRGFFhnGZqX/W+SlSeFhEfh3Srmw9vJdX+pQdeclosSg0JiY9o6ju5U0ejUk1dXVKrD6UCN7UgvrlltHbnt8Y+tp1QKjW2oEwAAKfbOli7uXJwaaEo6eKWMgAzOlbUK1U1VW7DOwBQdd+gloeG213mnnPf1anS+Xyhxx0TEo2JwvnpUzJPdSmaqrbiKv+6PT8lIzMhLU74P3ns6A+m7Wh42ICTMKEwlgOAgCA8CKUImH3O8AWlyRGxualsAz549OPNVXW1tbW1PWj2kllr77l5IoviXzby6LVau8zAKy5N5o8Tri7FsJzwMUQTCmLYAAgIImL5FJ/qzObNR+prz9fW1g64HIyYyZPTMlN47fsO1xw7cqK2tr13hEhbt2B6kGek5Uzl7qNNfR2qwjX3zp2eRnNpHQozr2hGMh9XjchIkhWSmxfOcSraB+gR0Uwej2k08YpKk3m4SiojSWZobl4oxyVvH2BEJKVPKkpJiiHOffn16fpzNbW1tV2qIXvQ1EmMwWFmTFJMUmIwk/CCS9E2wIhMzijIEUVyJZ9/uaOp9vwoyUMEman8mOLSyROzufrupjN7Ko/U1tbW1tbKOCGxaUW5IZGcoc+/+L6p7vwoyUMFman8yOIZSTy3QtLrInhhGaWp4T8UpS75wAhg3NDsiVFsAOSyRw4AuGQDo4AxmQkJzMFBZvH8KG/TuZZ9eypr62trO8hpd86aMmFSxMVJAVMUynRpR85s/fZQbW1tba0haHJEOCfO+N1n22vra2tlaBDGz0jnBxcVMfv7mQnpsQlxQibhAZeipY8Z53/0h+SU9Y8gVEH8pMk5JSWCpl2VNdXHT9bW1rb21ytDJs2YHEc0ytsOfFtZW1dXrw/JZNMTJiSlFk5KLk5Sf7fr8OmTpwZMHk9YXiIWNnVmSiifcSGKCDCjmJ66kb5jh89oNaErblkUYu6uq9m/70TrqFg/Zd1jcwuTRRdEBALADAlj2hRDZ7Zt86fIyCvOKCwqTLSf+eyL6sbahsGQ2LyytTdnhzhULf3MxOy4uBgBw+cinKqWPmZSdlxcOOIxmrulrJKZKSE0i1blNrmYeXnM/n5mak5qTk6kALOd+fyLU421Z2prZR4uJ6VsQnw0177zfF1dg4KwodyQE9v2Ndefrm1RMpPj5918czb7kpYmjCBo7r4D6ugpJTn5CVE0G80t3T6UUFiQmh8NbqO5V8YumZkiCo7mkFK7ct/3u5vVlDDCF5qWGpueFc4mCXDJxRKMGxqRnhl+IdX8kAgBn2s5+8WXJxtqG4ciUopn3nxDXgiCAiuG5To9ID557JxUzYhj+ELyipJiI/kMnxO3q1sHmGl5EwoKYkPYpjNffnWiofZsbW1tr0VP8CflMvsHmBl58TGR/Cv6WaqAQjjZ8q+27m2sqakddqA+UW4yPXhyvqfz2JmG8+frW5vq69tqB5Ln3zF/QTHH19N4eMehlr72xvq6ug4fEVLy0J/nphHqwWEKX8QMDWUqVdzi0tyMJJ65v/tMxY7DtbW1tbXW6EXxQTaOcufXFbV1tbUqdgydnZIVGZVXkshhxbJdJ/o6Tx2vl2sYsSwipGByfkFBTBBNf+brb4411DZJYrJmzFqzNIln07YOMLMnJUaHc+m4w+N/nBZJGe7o2lVRUVtXW9vunrBy8owpMyJwj1Xd1kwml+fExwovTaTNrTUHqw8eajb49OJmiJzA8aE8BlU00d/duVQSmc/DEGTmcZSff3207uzx2uZhJzd40X23TBQI+BF0n9gwcqjycL9KuGRpeRRN231m184qf/MfofPjs3MSKLyRTd/sajh3tlbqYZDBOSmcqJKykrxoU19P3e5dB5q7ek3Rk4LQ6Pys+JQEBFd37NzkzLhuQV5udMjFFRVGhIiptKprNm2uqq+t1fATmczknPiI9Bym8vMvjzScP1HbLPEIQxfdf+uEpAk5HH1/a83uXWPRGGUFRUelJV86/v4/A4qif7B7pT4fQZAkhTK2gwakz+cjvARKo2Go/9y8D8cvXDRHMAoFo1zaESEJgiBwH3IVdWukD/eRJKCUManrV/7g814KC0UxCpWCICTh9eC+sZEHglHpFMTn8/l8Y/flMQqNgiEkSRC4D6HSMORSyAhC+rw4IAggCPiu5YqiGIYA4fN68AtFgiAoRqMCPuaKIkDCRc8oAIG7vYR/MwUQFEFQKhVDSB+OX4zVWF78qGeSBAS7qkY00of7SAAU82fO1R8BRQHHgUJFSNzn843VJwSjUsZZxSUJn+/SLX4Uo6IogM/rTy2Cov7dVwoFcBxQFEMx5GJ6LzyOixWCkD6v51JRAYpRqRhC4D6fz3+uH0FRABRDUQxDEAJ3+wvQv4tNIhQqNk6RHOnz4j6fj0RQjEZFCR+O+wh/kWMUGuUHvsenCMMQlPR5vP4YoSiGUagoSvq8XkApGIpeSJH/ESFJksBxoFAxFEifjyBIoFDA6wXM70r4vGNBAYJiGIVKQcGfCAJBUQRBfL6xeTyKYRiFeqFx+CMHQOBuH2AUFENRIIHA3T4Eo2AXain4k08SuA/HceKyvLpYvjgJyIXHsVAJ4lKs/AkcK2TC5/HhhI8EBMOARCgX00v4PPhVUgSAohhKwQD3u/5ApR9JEgTu8fpT6C8y3E3R7P7rRjM7ZcKqtYXhAAAYhYph1tammtrXvqY+8d7ytBAOGxAExag0CjqWhLF2R6FiKPh8uO+ijguUQvXnzGWVEEURxJ+VBO7x+QgfIAiKjqXoiiSgGAXDKChC+LyXkkCSY48IEITvwvUSBKNSMBRDgSR8Xg+JjqtL5OWxwihUhCQByLFoAOnz+UgCEAwDn9tL+KfmCIpSqFQMQfwNwofjBCAUGhUlSd+lBAKCjZW4z+vPybHmDyiFhqEEjuM+f/31lxqGoZi+c6Ru++yTxZ/ePaUsXXT5HjZJ4D7fWKsfyyt0LFZj9RBBUQqVhiHwg14Io2D/JsWi/14wDPuDidIAAQL8f8fnAnnFXz6wctPzb7ij+NK5BFNzY03da5uYz36wKiOU84PF5QC/AKfk3OCpL99lvPxIWVhO2C/bH/t/CIZhf7AF3gABAvx/BwHAGAx+VFJKVGTIpRNFgGAYUxgeHZOZFsqhYlfZuQzw80EwCjskNikrKZgasBHzk/zxFngDBAgQIECA/yrG7WL90cCtJr1BrbVd5TLD/wdwi0Fn0Ojs/2vJJ9weu0EqNdgv7Rb/F0C43XaDVGp0eH5UrZofwuW2G6RSg8Nh0GgMOoPjXze38h8Bt1mMBqXa6r38eDPpJdwGucxgsV+8a3NtfpHnnwluMxsMqnGx+o/gczqthlGZyXXhTECAAH9kUaqr2bOl4p+f16quqpTkfx5tdcXXFR9vatD8x3uW3xb70GhTxYYHKhqlRvt4t/8ctgFJfcVDD+1sUZgd491+gG1wqK7i4YcrWlsrPv644qsdrdrxPv67MdYf21nx5j9OXWFzza11Dla89OeKo82j17w2ehGXxjlY8eLzFceaZT/t+WdiOF+1o+LtD2qUP+fy6++KVdxZXfHUM/t7zK5foAUwwP80fzRRaulqr9794l+rBu0e97gDu78U2dnTXz097yIPv/PaoV+gh+Q/D0n4cN8VBq3M7Q0Vb9w/b96CsSQ9+vTfj3T+3oJWe6rim91fbmv+zaQFSZKEz+P1EeRFNQ4mUOx+e/0tN4yl6/r589/f06/5zb74syCJsVj9nGMFBEn4PB4fQfjwcWX0h4D0ET4fPs5iF0kC6fN6Lp3H/HH8Z1wvnHW/gLH++O7d73109uea1bT19Z7b/exzB8QGh4skfD6f95dmJuEGddWXH+7+/mC3fuzx8JfPvPLuB4fO6wHAC9C2/+XNOz/4es+Z3c+9cLDX9DOsmV48wPxz6sIvxaU0dW554frlK+fNmzdv3qp7n3n5sNrmJkB/7uD3uz/8sk7982cOLoWxZ/fzz+4+23NJSwoAgP7sgX8+c+dtj639qt3iGhssGQdqjry9evnj2472Xuk5wM/jjyZKcZtFr+rr0zp+3dKKpXPvru+O72ulTVyxYtmKFStWrJguovE1vUM/v5r+F4JbzRa30hM/ddl1S1asWDE1iGnt+mpbs8ZH/I4LjB69UqYaVViu0L/620J4waUa0nJF6VPmrlixYuHU5ZlDB/bXne9WBdr8HwyPSadSDUsNrp/Z0HCbzaAS92ps3gsXfn4pCAALt7YNq/pUOgAC9xi7Tg9ImjoVmmE9AOED43CvWi93c0KikqdOTgiiU/6j55V0yt6Wwx/Xe3PKpy5esWLFjPwMkVGsJHAfeI0ahUoyanT//MGxz+WxqXp7VEab+4oewGPUGG2jg3JX46E6jcfkBXBIZJLWA3XK0U6Vze75HbuL/13+YGeztCPy4Y5muYxxqIJIDTYO60mnY3To3HfnR4EgIDhxQmJqZjLfCw5pc23PiNbqBDqdFZo+vTieT2WNNRECwDFSd7p1mEpkLLpn/bREAAxA3dKis9t9hJd0SJrO947qrE7gMDlxBfOzQnHFyJBBrtBTfWqZCSJyJwvcGod8UIZzYwrmZXBVKrlBcdF1wuQgp9qmGJL7eDH5czO5KqXMoFBedJ0S5FTZFEMKHy+6YF5mKIVm6hse7GuR+BWb8KOzspMTBDynsq4DRKw+rcmmMQGNxYsumJ8ZinFJjXJ4sK1FYgIgTU3Nw1xO0uU6uQEYIfzktNV3rYqjYQzlif17mj7bUSubyxT3oRx81ON26dzxBfOzQlyjQ219/RKtDWgAMXlzMmO4drNc2zNo4oBMbiK5CdkiFgbSth4TROXPTQvBcZOmZ9Dsd3XhwAtPjMsuzApxjHR2ywalEp/yQKU9IX16cTybz8AAgHBbHZK6mh6jyYEDMFj8iPTpxXEwMjzsMhl1DGykZxQAICS1MDkpOZ7nAru0rqZHYXa4nAq1fERLpo9vz8LcwnmlixZmipwqcnDLrS90S+JiTCkMQj1cV9NjAsAhNDI5KSs/PNghreuAkLjw6FDSrVbUnbEnzcsKD0I9Mq1OYWUXZYockv7mvsFRvQ0oCBKUPr04gWe3qM1DI/YwTm/PaExsXnqs0Okc6jzTawIA4MTFhzlpACRJaDoPnezC7FZg8EQx+XOyRMD0qUb7Bzo7R00AAIK4iROSLymw+QEu5cioblBiZJFymQkEKRNFVC8+0tVvxWIK5qVF8UUUo0kxVH+uzwTgA25oQkpKVmwUMVLXAQxEYncYZDpAUCymYH56sN2utSgtzKxJsSwA1KUcGbEoLczM/CiQ1rX0qeQGN1A5FGH69OI4EZvmb+ok4XNIa5v61HKDG4CKUoQZ00viRSweYTAohhrP95sAfJauhm4w06KAJMAh7WjsHVYY7R6jW9c+4kj3AIDnMs/ADUtKS8lJiWEQ4JC0N/ZJLngetadfNsAiARyK/r6RnrbBEcn+790J6dMnRbidckm3WG4GFCAma1p6fMxlKgvAZZCPDLU3q5TUo7thNMI6oPG5zUpJ7Xd1o+DDISg2KyE9N03oA4e0rb5XojI5gEahidKnFycIGRx/ghEMuCnx3NMyj3zEAEkMQtljDImnGkWoWuuERAKUCmt0SGh0RBiF5mEC5hhq6wLCqQSfclAJABCRPSMlPiqKafeYhmtrerQur8c+PDhsMEAO4VdR1N3f06e0AAYQkz0jIz7E51LpuiWUnOI4HqGWduu1dmbCjOQQcChbRrx8HiuUhkiaa3pMbi8BrIjwuJSiiVGsMdUoZr1c0XzMk7n7lrlJ/EiaRibTNjZiNMwhE/eO9on79KP7d7oS0qdnU4bUCkW/ygGAAgiSiyclhpA+g75rwBPO6RlShQYnx0XyVKONzRo11BwhrPYpmSnpEyIvaIvkxISJyGxqx8l+czyXjmqaZcPtctaEYAtGAwC3Vi0damkaMgGQwI/KyExOCg5yK+o6IIjerzdb1SagMjnR+fMyeWq13GH1cdNyI1kAiHO0f+iyx0tF+b/PH0yUKgck4rrTwwPod580pJXk+owhTFvv2V2tR+rBYzWETF8/5/rIuwuc5oaje78+UjeoMhFMtiC1jBl/Q1FYgoCKAQCJAy7tasdDsydnrrlkDiEsLy8McJ9DpWuo2PbRmaYRg50UsPkFqzMeuY7SWL2n5VhNX5hgqEWsi1j+dLp3yNVeVWfmxt4x4U8T688ebDtZ0xcmGGoW6yJXPJPuGXS1V9VZ+HF3THhyQv2ZA23VZ/pC+YMtPfrIFc+me/pd7VV1lqC4dROfmh8WoWhrObLj/cOjAABOfvrqdUuWZEyyVL/7miE/q06iNvYNOWmcoLg78p5awI0y1NXu3vfZtg4TC0jcYmBOm5p0Rf5cjo/P59JZCSqFWXtyyydGHnQARo44y4PmxHg7Dx/afPxQ7YiFwsQtqStCHrwuVS07U/vBN31p0X1tfTpG4Y2p4YKgtm8PiHXRayPvnOrx9tZ/urk/LbqvbZS0mCz81FkFN8Q+tdTXU9c41CVuNtIVxv70m3JSQhh+UepzmkxtFd9+1z+gcgDO4IVll4iy7hHUHa0Ybuvpj4nsOlIPpEMfNveJJatEN6brzXXfbdlY26kxuzC3B9hKfvq1jlORVJo3IirR0stwWHTqLtmRivffrTWxwO2MyZi3aGX0zCX4me8+cuRfP3POFNxUt/+fz+qXJj9ePoFiaW2qq5KmFsa422uOfnf4WPOQjqQhvrAyJGRVlmrkfOe3lbLJeXVH6svm348VhskGt3/5Vp2JCeDlFs0uT56dR5J2XfeJ3eIR67DUwRTFJdxR8Pw8Kl/eXLfn4HcHmhSAgDck/6a7l84MCR8f6wtYxc0nzn5T0Z8c2dci1nNn3JnGB2bbjqpBW9wdCfcuScvD+rqP7vvqi+MKAI8vKGn6kvnorGW841/80yDkt9jdihaxB8UdsXck3V+sVrVJq3sinpgUGw2AWroaT/UfF4c8ljFVu//rb072tSrdGDWUDJ8XnHbjJDZtTEQRuFV8eN+OxjM9JvBRKWR4CTNm7ZSIRGtb+6Hd73/UYGKCj7BZ6DnxkwtIn0nbunf3F9Wnu1R2Kk7gbiU/zgkum6JXWrXvy69PKgC8uDBl5nULWCEr0n3mlr27Pz9V062yU3HC51by4i9bLCUBrJK29v7W052jVK2pKf3GMHpU32jN6e1VfWY6xWtJnffCncsXTZrEvXi9xa4e7hefPz0iRb//oim1KBtxhFMMg7WVTUfrwG4yBhffPOOG2Ien4ubmEwe3VNV0y4wkg06PL6NFXT8lNi2YhoG/i0tNztXKraO9A57STEKpicktELp9mEmh8viCvdJ+JHoBP9itbzmxcRM88wxs32RyGLo53IHTLQQ4dVEr/37D8lkLIqSyU9999m7tiMflAacTC8fjsn3gMPScOP7dkZ3HByw0qteSuvCVe5ZPJr2trZ9+hT38+Y2p1vPndrTWquMXFyTMZCkbdx13JcdFTGJZtrz/dq3J6yZ8rOwJM5fGTIyKH+uLaRQqm8Wheo39ElU8TSiIjg6NjvYBqIdaWgba69uVNLWxI+PGFCbrZOO5szvrNUBi4BAUPPrM9UUk2tX43qfKqZNqazsL8lbPnZJt7K8+rZDBge9bxAZi4fLYS6IUuEGhYZmT8M3nBrTRPlOnWCZVphUvajkIAE7rSH/3wQNfbj+rAPDhoqxFNy5aklWA17z/uj4rpUGu14sHXFQmJ+6OnCcmNtedUA87k+7PjWQCIKaWU4fkQ+7k+/yPFz72/4E/2AJvdtnkebdvmDLjqc8PHPnkiUXzgrsdDgexpHrPoerqjzbk8Zw1pw/0ahvfXz+cevsr71dXVx/68MsXclo/PdgvubABgLtAUd/ayzJ7BaLxVrv0RvWpf971kXfq409/W31oyxPPLRl449P6gVELqA0sbnbR87sPvb7SebxqkJo/+8WPP7m36PTu/T0qrVWlZ/Nyip/fffj1FY6jh4eoBeUvfvTRPZOqd+3vVWttKj2bn1vy/O6q11fYjxwaok0qf/HjD+8uOFmxr0ejxXJXXP/clmo/H80P55iOnh8AtxG6P1YlPXPba9XVFR99cNekEzv29qpP79u8o6YOmfZ+9dET1dU7XtowL/eSdbMfYGptaO9vO5scGYkgtOEKo6B00oObt319/VRq876Xvx5hzLz1i+pjez7e+tDokZPN51vUYLRSLbTYPx39/NX1Kdq+1l4i6fkdx99YZuhqae0dNJqsNCsj9qljX+yprv76zzfGY4fe+7aWiCi6/aZpizbcfNfbmyq++XB1TLxwrB+k8qOjVv7zy+2Hqqurq7//y2u3Bn34fZ3GYAdltc3HZK+uPnGyunrjXfFgOHf+cKfk5Nu3bMQW//Xl76urD3y1+dU12chFS2Hj8Rj1sp2bjgvpliDt6In9Oz5uS3yz+psD1bvfKc4Udv/z+z6IjI4e0fmMNplabhltTFgMXSOg1hqtgOuBG0XUbXt2gFt0/2vV1dVHth7fVGo8VituGzYZOt2aTtmMkx9t+8sDk136msGT3eVvVlcfrK7+cm1RebBB41CB+FNF5psb3qmu3v7uK9dn7N+yc8B0ZtcnPXJL6ePV1dXVx6u/XxNvlrUc+dFzRnoL3StMfvb41tduDx1o6VTycl749vBf5kvqz3cMnTh5uOPE7pA7qqsrq6urdz18XRrUbq5WELi3f6sudOXsP1VX79t64KW5w7XnOoZHTOODBnDrvNI9n3wtyLn+9W+qq/d98sZf4kd8VO/Fo1IIhR42/8XXPt1TXV1dve+TPS/EnKrr7pfWNR7Ys+87Sebfq7cfrq7e/ebzN02NB4vbee6Lxz8zJtx4/6bq6qrvD39+T1k4nw8DjQc6Th+KvKu6em91dfXuDQsT8Lpv9w3bz37y2GempJsf2FxdXfX9oU/vKQ3jXTbFRAHCSlYsn7l6w+KVf91SteejOxH5zt0d6vjFH1WfOFK5/U/evu7WwzWjl94AYfqUmQvu2jCp6LEPdx389NmVSyMHnWaldW711j3V1Z89VhoJp47tH7I2fPTwUNSSZ96urq4+/PmOdyYNbjve26u43FhKcEgsgTJVOrkPNEoIZ6UWxOGYoL1nxONubDhGQ71B/MtiOnrAxEhPvLO6+uiB6ndupKoGG1qPNLRUffp0pfC+r9/bXV2976ONTyxOBy8Fmivf3iK2ZK74tPr44e+3PWlvb2052mFh0djRvTIN7pP3dGBsCTUF6lt8Xq9CA1zCIjc0tm7an//olj2V1dVbHll2fbjmMmtu0cJwXtrEb1+/YeF1T32zqVYOAAAYQMS0NatLl29YfvPfNu/f+eHazBmrHnvk7zuqq6urj+ysfidXpRxp7JaDZRAfqZIVbHv5szeeuWXuzLSiZY9syM3b8NePtn/+t/vunnxFf8eMioueNi9h04GR5h0HRoKG8AVL8oFGAYCemm3dba2Z91dXV1VXV1fcWcw1N+yqVXssRM9n6vhHbvhLdfWuTz6/r+jsnkM9Ss1VFAX/v+QPNitFURSjUFCUQqPRaF4MDS2KpsYuzKNzWECJiAzngdls96q0w+7Dp5+v/YTHoBMur8MzJJ822zorB2DMqh9JEjFhvGCecNyoyenwGu1DCbcumRSXFUfnOyLi07JTvmkYKRGoQhNEnMS8WDYTi4tLEsYlxKbG8Sm2qFQSmCQJoYnBvKSJsSwmFh+XHByfGJsax0et0akEySSBDEsUCZLy4thMSlx8cnBCQmxqHB+xRqcQJJMEsHa3Hjv0xSfHhgAIu2qENa1wRr4mS0Cm3VE2KSY9mk53CTiRUakkydSpJMwsRnbCgnw6kwEojXoVFVzmPvmJ0/cs+oKGgI+dnFpU/renJ8ZSTtLilqbmTShOodHADopReei8xLzckjQ6GxHETZ6e/PywOYSDC8JYqQnFcQwhMyoiCSdoqblxHDolPp5K5RMk8MNZaUnFcYwgJkpPSY1PHC48OSpTQB5BQTEKRqFSabQr1LXjFkR78p9/qagf0hg8NocX84riNS6vPWxaQnT6nFw6gw4QFR3J1pttFpeFGEi6+9bCiNRoOt1FpV2m7fESwxXfvPTtN+8xMQrXw5+2dv2SWYmq3tNhtowVayfTQ7lAT01PbHYEnx5oeGhNytQDVq5FNsoVuOOmrIk9XNdvEZh9hFcrCopUjCgdJw6/d/SrrRwm6QW3YUg+LSI3nhuUIcwuXFlMD+EAhQjick2e7rN/WU57cuONBfPnxVuj+/tbkPQ75xSGJ0fQ6TYhLzwizYfTNEqN9dzJKsn21s84AODRK9SZxXMz4gouaLz/IUGR3FRhUSydj0VHJ2HBEcnZsRwGxCWiFJ5BZzS2nGs/vW/JAS4A6jUbjOGCyDw5Goonrpqcn5GfSKeTXDI2PhHFuMTVjEjTaEg4PxzZcvgtu9rsufm2oskP3AdBQZdU/5A4oju5bWPlkdp+Ne4iHIYRUaR+ktCGxnoys24upgu5QPdSqBiKelyEWi2NWjG5IC0/iU4nabhfO6BBZzQ2n2k+t2/JXg4A6jXrDZEhifkyTeRA1MrSgtS8RDqdpHmpGDreihyCophfzx6VQqFqVeqgySHRBTNz6Aw6ET2pOOm4zsOX9C68uGmBICiKYhQUpVBpNCpgaMjEsOzQpZPoAg7QwyJC+a5oqR1XWiSuIydePf35hywG4fG57EOyqXm3TssHuFgGwWnZPINTOTLgVenP+0SJSEQMDDlIqcyXOCqdHj8tLDYKcSgu+I6am5leND2DTqfjEBMbw/CILCabgKlKvWVtSVBcKJ1uo1IpGEL4EJVcETQ9Ir1wRiadSePEFJYkHVG7QuP1U6PzZxzXGX0UaYgg2hsbRO2sbcLDpWo+hxUjjEa72Jr9797Ksr5xQ+m0qSUeD+o3qgMAgAQlTZnzzKHUe8GnbDx29JW5m7ghpXd8cGOmABvLOhqNRgVA9fWHv9u3c2/TKOkDq7w3CMsSxRr58azM6CVFvOgQKgUDQBCUQkFRoFJpNOoP9oARIYOdVDzrtW1fOT3Zd82dPSMCqcMAQK/RmeuPn27bvWQbBwDxGjXahOS8HCVVQKSunT4pPiuWTncL2FHRKUBea7z7/5A/mCgdD13A4IpCeIACAI1GwygMn4/wgTO6oHhmenSMgAkAQAVIKEoUjQ07MRSEwULXoEdv1Foh+qLFbADw+Uivz8mOFvAZbDpgXhqTzePoJC4vx0VjUREOj4EgDCaTg/FYDDYD89IZbAAMAOgsGsbmMRCEwWCyMT6TwWJgHjqdjQAGADQWFeNwGQgwmEw2hcdisBiYm0bnIICZ28/u7elsNQlmr1zGB9TSfrZHKPB4PSgVODHBfDqbDuDFUDqdDYB5PB6Mh/GCQ7jXXjmhB3FiJxUsnyjAUCo3ISE9sySJxZIjKDOcz+MKWAAeEtwuFz2UxeMKWIB4KAxBENsqwZ1UR4gA4/D5DARj0OgsHo82FmcWQlABgErH2HwBHSgoAJPFYNEFpMvlBmJ8AwUAAJdaN1C/48Mj+rCC/AwWH1Q6ldLW5EZI8DGETHbwmKFyGp2BUVw+H4GDkxsr5NNZtEvGNsfDT83MDk/IDOdQOSDMnVeQFInr+4BOcEMiBEAFoDLZTKDQjA4zCKKS8S6Q946GhxqT8rJyBiv7HAKDPSKRm57EcJ/xhGflxEcmZIRdEDAJOZmGgQEjjRsWwQcqAGCxqTMW34omSEhk9Kv32z1RcVnsiCg6wo0N4VOZNAAKBaPROQCo2+0RxEUXJmZMT7pgfjkyLsZHhzH7dVeBxqCweQIGgjIYdDafymZzGCjQmSwUKF6vgxnMzpoxbXmuwF+1QBgk4MbCMJUVKeCxeUwAF4owGCzkGk0XZVN4+UuevHeCyaE31x18scZCz1n6oDA9hEoFAK/Zq23Z8dGxQSImfX7uNJrZY+j2NiE0l8uJMIEbFs6/LFiCAI/HxYzg8tg8BsBFQ1teL84ScbNnzFiWwx+LZHCwkB3jluCsCC7/Ss8/gsftoQqZPIGQDQiB0nkCtlPlsTl/7AYUjU/nhYbx/M2KRqNQmQRBenFn5MT8gsTYxGAW+OdwCflpYYLL3qOGRwqsPbSGtoFcH5K0lM4NDQ5T2izSUYN2xJ6cz+AFM6yX7jgxQzg8gZAN4EOAwWCiPhqO+wjMzYkO4WOMiwNGkgSP20MPZvD4QWxAfCidF8R2aAk7CVxGbIrtlLZfJ2UnZ2WkBPPM++sko1YiZjY7NiYhOOLWvwYNA2o7tHnrziBh5qT5t4WxLvTFVFaQKKlIBABaFsLC3CdGevY1DqxIuWSchXCDqXX/N8fb1MyYuSuL2G4wte5vY7G9uIfCwrjcMAFKv3rlGAeVwQ6ZtHTS3tdkQm54araArgYAAI/Hy40QTRTOnJcuGFukDQ0Po0ajoyg7JpjPYNMBcAylM9h/ePnxW3KV0f9/O24vYbTayMtMRF0OlYJyODwKI23KkiU3r1+/fv369evWr5+ZFyUYE6UoDXipWeFm00DHqTODmgtLK5bRUYV0RMegcA3tCpXVYAPc6bAYNLr4CB6TzrnyI78Z9qHOTs2IK6H87vX3rF9/6/wJGVHcaxYJk8X02hGDXmMHEsChUxtt1vGrK4wQfvKs1Xfdc9f69etvmjs3P3p8zFEUOFyObcCo1ipMQHg9NsWoIZRP47Mv73p+ArPJ4vKqhBGRXISGAdhcXpvTcfnBQq/BrOzbc8wbP+u66+9Zv27NwgUFYVdoWb8cKhWjU/m6EYPF4/CC12GzaFU68rIbjX6EuYXzVt+2fv36dTevvy4nXsCk0Rk00kbR9ogV4PKCy2Qwkx5HdGgkQFRiOBiGR0cUEk5WND+riGuwa9Q6NxqZGgUcHpfKTMqbNfcGf/VYv3793Cnp4VfMIl0eSnB8zIJVd99dksywK8+fa6nvGLrqfVI2m0lnxSROnLbyYmhL5k9LGjNo+kthMOhMdpgoNn/p+rV3+kNbff2yCTGXZi1X4vT4zHYbAAHgMupNZqPZR4DDy5i0aM6Nc2cXiDBpT0PlwQ613ezPTdyOG7uO1dg5mTOvu2f9XbeuWjM1UsCiIgwmnfBQDWqlDXACXEa9yWIyYxjCZnPNKpvZYXaDz+2yKmV6H+5hMukMdnhoQsGy9beNRXLVqmV50Wy20KSymRwWv2eVTI/jVznX7XDjZocNEJLFYTlH7RrFiB5IgrCr5QY+Ew3mj9918eKk3mK/1il0CgXhcHkUZmrR/IU3+SNz1/r1swsTRBdGNgAAwIoOpRICY2/zoDU0KYLNCw4NYwh5xs7TLUPB8Qwm93I7p1eBRqdSEI5errH6XDh4rGazXmtAEILNYTukVrVSZgDS57Or5YYgFibkRXKZYQnBttZTvU6Gg5eVyhVNpEnb+w20YIFAwMJYIcLyNWvvnJYjIkwtDc01DX12GLvS59FplYM1rWqPl4CQ7MLp05eVJIfoTVaC9AKA3Y1bHDbCS1rF5xtMruD8hXevv2fd2ptnJUYFMa7evHwE6K0OL365uduLYHROVPFNi5bftnBKTprowr9MFpPBjoxKK16+/s67/Vm6fNmcjIhrSQu7C7c6bQAkgFOnMdosFv+pe1t/09HmdrHSOP6F/02unjn/vWBMGklytOL2HnG/0mR2/uCEPJ1DDw6diNV1N7SdqxWLxWJxT594WGd2XbBaADSAjOJFSQxn3/kde46KxV1isVgsPnes5lxjj04YkovWdta3nasVtzV3t7SPuBcXxoXyL1az3xgqjx0RJgimIGpxb4+4vaVrSKO7ygaYn6DIGLqDru6qrhd3d4vbWzoHNfpffP+dQoOQhHRaj6a7+VSNuLNdfP54p6kgOSw54ke2XQEAcKfbrBjsEfeIxeIzHf06n2lKSV4owmbyOC6jSy5u7R+UGDxunAQAQOkUrkiUEcV2y7UScWdHd1f3gArIq58kYvBYguACb1dXe3djq7izo7tLPKi8qkXucXBDQnh4hOX8/sPi1jZx8/muAQ9BnT0hC4HIjFzmiMarUnvzc0IhJCeXqrdT1FpKTBQdCU3IoHbKO1tOnxGPMaTR2a40kurs72s/W7mns7ePkrBiSen85LRQwMcPWwAAgaDoeKbSN9Jw9MSF0AblCr3jpyN/VXihoRx3iOn8gSpxW5tYLBaL+6XDKovnqvcfKBw2idMNQ01icZdY3NHa1S9T6XEzbjizb+/5s+f0ZGRW8W3zynOA7gHC35WiFIQhDEqO5CJGy6i4q7O7rVUsc7ldvNAwFikydJ2oFXd0idv9QVGZaHBsNimR93bVNYu7urrbW8Uyl8fJCwvjOION5w9Uids7xiIpMeCEKCaLHJb1dte2iLs6u9tbxXK3Z/wSA4XD9DoRtbi5r3+QCA5HJa6hhuPV4u6u7rrqLm1ShDAnLv5y/xiTRqJ8vbirT9yrMJh+qDaKxqSIonIozQMtbWfPicVisbinVzysNTrGaVmKjYhniRKMda30yGBgM4HFw8Chb91apU5PZgoFP6H7nh3E57LTnZ11Td3N7eKO9m7xgFSNUnzBcUn0Ydtg04lT4q7O7tqTnbq0aFFmTIogKDglGz1yxiniUeOSY4X8tFykoZNGx1AhbUTWd3ZHRXN7hy9s1uxpSydMjCZxC5D+Eb1LLhGf+Wrr0bb2TrFYLG7ulWhtrsLUcCqFQeGyPFafUtzSNzhkZlAjw/gst1sh7u4StzV1Si3Wq1wMQ2kYxhaa+6WD4u5Rtcb2g9zDGCCavvqJVUvnZfktigIACCKiWEamuu7wUXGnv3McGB3VXEOpHIXL87lAO9gsFneLxe2tXYMqnQkAfA7Qnf7+rYp9R8SX737/D/NHE6X87Lis+LLsra+vmv/Q3/dXdf9QlAj5ITMe+OQ+eu0/3ryprKysrGzu0rL7tlZdeUlZNOPBu2+fVEbf/khZ2eyysrKysrXbag/DlLKw0kc+v4969p03bipbcOvbr+5LeeqeoqTYKwa4vyWi0klxGrTtT2vKymaWlf3piGbEwr+21eWsmUuyk6JaX1tTNmtm2Z+O6mVW/k/Iv6vAAii68cXbY13Vm9eVlS9bf/P7MXNn5k/J+6l5lEk8UvXKbbNmzSkrK7u98oQ8/sln58SgCC1kVvFkB1X+2pOrbnvg+1GJwQMAwE4Iip54a+KH7z+8YlFZ2S0vfvytMjqTRK6xsxIaFlXw+BsJpz5+8I5FZbe89Om3yqgsuOaxo8tIyJ21ePW9E4aeKrttYdl1j9d1GzMfvCUbACA0DEycSIJdkBPifxpwBmtcwpwQDoKWrH1tXbh2/xe3l5WVlZWVzSy786Ot54avGMEIhDDa2P3y6rKymWVl178zxCHy5s0KvdyHHwQgd/49NxSmGo4+4A+trOymV17719UbJeXPX7p8bWrPk2U3LSgrKysrW/nw+neqFVcdWAgLi2bET006/GRZ2fyysge3tbUYghPodAgJge3PvLJ2QVnZ4tte3HSu9IkZCcJYv4lIegg1atF1CXsOvrd2WVnZ8nufeXckXuil8iG5cEbO1Omqd28qWzy77KHtHW1GYTzw6IyiO59Mkda88+CyshX3PfveaJwIp/AhuXDxssVr4rqeKLt+XllZWVnZqsceeL/VwCi6/U/Jw6feenBp2Yr7n/vHSJwIp46f7QlLsgsY8ZSNT82/7sEvyKiVK3LCJfvvLZs557ob3qCkZk6cP/1Slw4AwE2PyEhfMnnHxjuWPvzazr3tPxxnCpjcaXf/426e+Ov3by0rKysrmz2/7J6v9rRdcewIAHgCIDjMk7LoDBFFyATg8YHOwgb6Y0OC2cyfrGtRiel5azdwdzx3w03zy+58d/chTXg6UCmQv/zxWzJ43bvvKZs1//ob32LnTswrnxINDCaIImEAzY0Kjo/mMZkgCMWOy6KDmKzoKD5YRnRv3bBi3qyyspUv1+j0RasXhgPDv1HCixExiJSmR9csLS8rKytb+vJ7BwzTNyyMY9MZwdPyCpEQ17t/WnbLhmNJEYyanp33riwrm7/yppc7BT4nK2R8nAGYUeyEmdcvqD701m2PPv3h5+cN4z1cnfTpN6ycPYtZ/0jZIn/neP0zf/qi9uqqIUQzZs4NSbrQkT5xUDls4V9ZhP9f+OOps/faDWbVgMQAdB4fQ9hsFic8WkADQDxGjc7tJBjhUVyaRz8yqDLYXF4AQCjACk+MFwkuXK3zg1vVeq1aqrswbmaHCEPCkkPo4NFLx96lU+nBcdmRPJ9Jr/O4CUZYFJfu0UsVBIPHFQow0mEakkN4ONjt4ANGWCSH7tFL5CST/0NXZlgk+3JXwmEalkF4nJDiUhk1KqUFAIApEGDA4jAoQUEgk0FEnJDLomE+p9thHvI/IjajVj2ksl70zGVzw6L4Y6dmcavZZNeaKVGJwXQEGRslkTh49MNykiXgCYWssXVCj0E1qlbrrW7AAISxmZFBDLfT6NBZKFGJwXSvUaPxeFFmWASb5tYPy0k20VZ/pn3rAXzV4zPDMJQGHJ4oNCpR5N/xdOolGo1G62KwIlITgmlMKgoAPo/DpuiUGsCFA4XBYHD44KJHRYHVCiTKDIvk0/zqHTReHGWFhTFoVnmX1Gh345c8JwRzmFTMv1jk0Q/JgSvkC4KYVyx1+hxOi264X+UAIIDLDw2Nig/mAABYdcN6J0FnxUQE0wCsimE9SdC5MRE8/3cVIyqtwT62/MgKjw6jUUiw2qlRCcF0AAQcFrVGLdX416bowujQYI4AdUgUSFRCMJtBwXwOp80iUSBRicFs1G7WaORy49j+ID04WMQOZoNSCVFRYDYDSmWFhPPGyshrNhicJictKj6I5tEr1DhQ2SGhdKrbMCQHfghfwCE9Ju3woNrp77moXDY/KDECZDIICuUL+EwK4SHchmEZ8EP5HIrDrlMMqp0AwODxKBibQaVHxFJ1nVKDy+MGwOhsdnhyYjCNRhlb/yMJn03RJdO7rG7AqFSmIAhc9NDIIAHD7TCoe0ZNF4Ni0tiRsQKaTTEo0xus7ouew6KC+Cyf26SVDGnGVvWpPI4wNOlannmMy9ud26zUq0dlFowVnhLLxz1GnVJlcgICIIxMDhcJ2VeY/gbAnWazsldqAAqHR8E4TDo7MjaIBoB4TTq9y+qhR8bwaR69TKLSm50eAEBQYEbExwULuVd8F7fpjEbjqIOfkhjMpmIobrMZtaMjJnpcVjifxkJsNotNroXoaNBqgc7miEI4VJIAj35U6aOwOSIBChZlp9ToxQkai0Vj8jAfMzoxmEma9QqNUm12AQoQFJUaESxgMcDr81gVXRosKoon5HJIh8eq6dLQo6KEQi7pMeqV/XIjAAFA44cFh0XGCC5WatxtNehGJEoHECQA0Ji84PCEmGAaoAi4jDKdWqG0U1kRKSJ81GqxGhyAoChLKES8DCEfpVJBb8CiEoOZGDpmPhZ32xRdIwYcZ4WLQiOi/R+62FX6e07/l30ur9M0JIPQGCGX7nbotSNS3dieBk3AD+JFBYNMBmExQi6bRvG5PE7TsAxCY4RMwmi+0JGO9WAszlhXOejCgvjCCP7/nq3vcQTslQb4eehqqg53bj8T/MzGVbEUlD7eOUCAAAH+//IHtwwT4N8GIywyMW3q5HgeemGyGyBAgAABLhCYlQYIECBAgAD/OoFZaYAAAQIECPBrCYjSAAECBAgQ4FcREKUBAgQIECDAryIgSgMECBAgQIBfRUCUBggQIECAAL+KgCgNECBAgAABfhUBURogQIAAAQL8KgKiNECAAAECBPhV/I4qGrw+sl/jlOjcFpfPR1zFsgUAUDAkmE1JEDGSQsap3gwQIECAAAH+APyOOnhdXmLE4N5cqzncaZIa3B786uEzqWhmJGvpBOEtJaFBLAp6dZt7AQIECBAgwH8pv6O2oyGd64OTyi/Paga0zmvJUQBweonmEdu2Bm1Fk87tvaa3AAECBAgQ4L+W30uUaize6l6zy0uQV1/ZvQRJwqjBc6DD4L62xP2fRbzj45fuKS8vv+7GdX8/45Jfxbj0/zTak99/tevLbc0/Zt1T29G/++Xy8vLy8vLHPjhwXDLe/WqQoD2x7ctdX33f8mMh/8sYm2r27Xrj3WuYEQ0QIMD/P36vBd5Dncbbvuzz+n5SkgIAoAgkiBhHH80WsikAMNjRse+bb5QAPgCAoMi0/OmrFkwUAPUXLf9aOs41mLRe0Yz5GYKLNvkuYu4413ht1x/H3H72yLkzgyRMnPfw7HgGFQUAy2iL+NyeSl3p6pkUvRxcZMi0uelXCdncfqbebCRDp81NEIDk1EtfnLLQrDFxueH8+MnLJ0RQ+L+lATO1tLH+9LZTHX7Ll/GTJxVPuaEwYryv/yDyne9/pTGxM+58tOwaNsxVw8ePn9hSfTqtOE8AyROmpaenJweN9/QDSJBXvPuFzi7IuuP+vEhT6/YqSMxLycwM51z0YuvvOH/+SFW7cuw5KXNKyawVefEXPYzDpVBJB3ceR+atyYsm6o/s6znYFvbUP1ZEAYwZIv1VOH340PH3KltURi0AcMOpuUsemR0fxrtqbXD4cOnx7caoScnxaaFsr9mra/n+61N9eqsdgBEcE116y5qJgiCW35Z0gAABfnd+xwVegiQ9PypHKRiSEMJk0TAAIEi43LNSaa6q6lJY7DaXy2UeHelsPrqrdcSNjxlq/pmQhA/Hvd5rnHdySLpbO2sbR21+28W/CIekq7nu0J7jNcdPiU24wwfg1igGGw7uO7hnb/uIzuLAcS9+je+SPhzHcdxHEm6wic+ft1HDipffedfaG1fPiP9t5SiAeVgz2ts44nI4XS6XQdrW1NHQNmz/5en9D+JSSgfkbf3Bc++8a+1ddy2e/HPk6JX4nGDuPH2is1dqvGDkHQAAnHJJd/uJ6h6ty2V3uVwqcWdz4/5aidU/7PghHoNR1rl/f5fS4vrtZ6IeCyGvbR4yygwul8tiUA21HqzqVtvMP/iSxyCVNOzfsmXLV5WNnTKTy/+u7HzjkFFucLlcOu1o55nNR7uUdssP3g0QIMDvBwb5Nz4zP4H8Man3r9Cvce5q1o//9wJMGhYXzChOEqgtHqsLBwA+k3L7lDAWDQWAESXeLg96+r3HblqxdFlpOM+oPPBeR9jNRWFMGsvnsBs1o0MjSo1GozE7CQxjMOgIAV6jUipTyJUqjUaj1WusQGPzhaFh0ZFCARMlTKNSmVKuVGv0FqMLYXNRu7Sutn501ERGxHMIYLMQu1WjHB2RKzVajcaK05gU1Ou2WhRKK+6QyhROF1BoLBrFH3tbb1O/T6d259CHpAmzk4JoDN3Z9tbze7o4bE/09AUFmemJieEcNuqUy5weu0yrUcoVGr3R7KEF0ensoOCQyEgeBzFpzx/ZfdiIRweHxHNRJ8lmONVSmUKhVGlMRrOPFsSi4Baj3q7XGVxWuVTmQdkMCupyGjQjQyMKjUaj0WhMLpcPY7EwzGtUSGRyhVKlMRhMLuBwaRiCqnqNiJCY9fDTty9cvGhi6NCAS2my55ekssF/vItwW2260QGpPzCT1UWgLDYDA69ZrlQoRuQqjc6gsQKdRaNSUBQASBy8RrnSbNKpDFqlSm/20DhutUStVOhsXoLGZVO9Zvmw2QU4xmRQCACbdlBtxxGSTqddHLPhdqtePTo8qtBoNCOt5zs8BC+ysCSa5zXKh0cVCpVKYzCa3QiXR0Mdlr6G+hPi88NI4uwIio3A3CabSSUdVWo0Go3G4kYoGJUkneYRmZPKolEoKOJzuR3mEZmD6htobHfhjOCcXI63t2b/GRsjmMETshCUxWNgAAAOSZ/Up6RMe37jE2sWLlwywa0dkew8ap+yOJWQD9vcqI/CZFB8JGnXDqrtPsJlk8u6Ww/X2hMy+TRcNThgHdFQJ0xEDXKNVq0xO30EjcumAnhNWrlcPqpQagxarYfCY1DAaTNZ1WozbpeOyDUqtcbi9BE0Lot6sTUAOEzkUPPAhAeuu37V7aunFsay3d9V2qbODhXxhZd7A3CONrcf3/r2VzVdROqk6VlZicEsl5XU9CnzH75+zcrbVk3KDoaBN7fZymZHhPGDf4v5coAAAX4SFEV/rwXeAx2Gmz/vG//vBfLjeHeVRjdLzYfadXKjGwBihPTqJ3KC2RQAOHNmaOMn557duCqFz2DCQNvec9uel0yrfrxEyA421J/dveWFp7/rBsAhdc79D9/xwPVzhFaQ73zu/o/31Q8qAYAeBJn3//MRprIXdM7EuzbkwK6HHvi4qWHQAkHZUdPXbXq/uO/Vh7fsqT+tBGZITNb9m96c2tv87Xefbq4ZBDpA1roP37xpksvc1PrPzfrShA83Hy+dvP6uuzbMzPbHXrn30y3yTvHo1EkjW9Fn/7o0kdX42vnG0+c51w9XI488hHZ2gcUMCxfCG2/ApPAvGrqHz3YDLyJ50WvHHk48fuKgUkZwly3Ht89+eq/VpUYRNCQvfvLqTU/Bxw99fqJFoobEqJQVrx1/dIrp8PYtyqam1ljO0Q/3L3q28uGlKaqBbZv/+lJFt3/yFLto4U23vfrgxCjFrifv+uhwm1QNwaGJZfd/8/7KeFo4nSABSEBRBAAadj19dsgcMuXDm0uQsR1ya++x2u2vrP2wG/eRALF5i26++9XHVkaCas9jr3xRtaNWA8wwyLr/i3dXlqWH8QDAowf5rsfekpgkp/TaXjGRsuhvm+K33XWkrsuQdfOqx998tEi+57E7OqNvS114x5oMK0D9P+Zudc1dWXL7olLRhbLX1VRt2fTaq5XdAEASROzSZbfe9tf7s6MUOx++7aOjYrkWQiLTZt+/6f0VUQ2nnn3766+OniMBoWBI5v33TNGQ2obP90gBACBz2TNPr10eHyE9/fCb8PT7K/OSRVxLd19zzaNvwVNPEdXVgApiFs+H2odv+2cHqJxIWMmquXe98N7ySAAAbfW+/eJ9zaFP/3NlNACN7Drzxbmj2/TTqlbJHlo7krIhZ8FNK9LMPm/de3O2+pbP4/NHR75488NOQDEkceqU4KACgck9PeGzj/aD2gRpc++8/pHXH5pEgGLnO899tvVAywiEUGhL/nb80XnB4ob9fd/vH5kc8+mHB0BjgvT5d1//8GsPTrqQIQAAJJAEARgCgCAjQ7W1Hyyvn3ryicnp4eOX40mCcCgcw5UPvYnNuW323NmpwRffRQABs6KjtvKZD5BnPyjPjUm5tJwdIECA3xEMw/4ds9J4ETMqiKG1evyPZenC0nThgMZe1anXWr3+K6dXzEpHjPVNo9MXZgYzKFRZS1tr9yZj5PLlEyIZgw2bmltbuVPfeurem2++dX4IbvSMDGvCYqTb17+jKbhv8X2PPH572YJJwsE+/rQC0GtJm8WRFDbyySvGnPvuv/ORe6/Pz0x3SJkzSjPCCJsnUZS27Om/3bum2N76jy53dNH85x+674ZlN5dTuxodiFeHW7sbjtbSVrx/+y1LlkxPiebQx2YItt6mdquNGVxUnjT6aoswXVY/DBpr9PQSVksDFBWRKhXpdJKpccbTX27Gyh6Zf9PDD103aWqk54vTeF6SUS7HHUTE5Nn5RVnYkD1v1vV3PPbU0oVppupnPrZOfXTF/Q/duzA2mdnyj66wqQLV6LkTfVpK+Jo3n75n5pRMU9embWfrPaF3v/3yozffOj+GSYpYLFpyjOn7u1si77lj9Ya771oxeXoGeaBCk5wdFixk0xCnVdVy6KW7XvlA7cktKls3IzeIdfECL4UdHJI+ff7SNTfdfPPN04QMtu/gILkyvOmTt5XMkutue/6RO+fMyla1hczICwric/2Lpdaug5u6GHmL5q1ZOE9k+uTjhqRVdy6fmSLCiOO9aFlZVhwpPaXnaSFodgwJrZVvadKzJufPyRDRx3buuo5/+M3ZdjTqnrdeefTmm+dF0XyhAj4tLtS4fV1r3KPr19x3553Li0pSyD3bVOl5aelpXHpQlIc358UPnr/ruhmzppYUTll43Yo1N998880THV0OltbuzmaZDtSQ0xZlRgrZdLdGp5AcOE1Onw5SKSCMyKJpKdlxSIeyYPHtdz9w3+r5WeEC5oVZaZ+uT8metjCTB2Bt2X+sTnyKkr5qaVEWITmuC7JgQWURXqJt7xvarIJpxUvzg4OEvA554RNv/OmO+QlCTUdPl5S++uP71968bnoo6iPPDtmnTtHvevgfkpAFM+575rEbCksF1VtGw6NpJqK/rqFpmDHmOQS8cE6CzpgRz7x06g8BBEEQbdPWtz59c+fO9uC5795akhIaQsXGb3giCELYSUvfoRpInJiYlBjMAgQQFEEAAQCbVDbQ9V1dyKyVRUkhLObvtXsTIECAK0BR9N/R2nhMyoRY7oqCMAYVnZ0ZnB3NUZnd1T1Gpeka900dSkvH9+//+ZlnnnjiifdPnTZG3XTf9AQmlW5RjAw31Zyr2r99+/fbt2/fe+z40Ybu5m6pXllvyUotLCgtKyzMz5mQFsnH0LE+iEKSdJdL3tl6eEBj4yXNmjbvullJNHZEeHhQaGxYREpOTmYGTT0iqTt5bP+e7du3f1+x/cDps8db+ka0BnoQIyJvUnFhYVFKfDiPdWUcMUYoLyw7P/Lw4e++blBS+NlTU7iAXX7KCKODMDdzwqSiosLCorzcnASORufzeHwAAFQqXRiXFRMkio1NzJyYEZMi8HXaJmSXTJpRWjh56oSi3FDfrjqJ1mJkR4kSCopL8goL48MJndLEcYry5y4sLCwsLJyQFCviMtxWh6qnvvPUkX27dm/fvn3n3t0HzzWfbB82O2wAAFQaJyJl5urFKzNCbZLB0619Jri4i4uhLtwqqdvxfeX27dsPnzp5vkvWP6Jj++y6/p5TfUNDSPi0ksW3LMoMCeJdliwQxMak5xYU5+fkprK9vMT07IklE5IjhHSt0Q30oIJJsWYXrWOgx27tOXc4OC0lKi6Kd3GV0iQbNvE9oQVzFhROKiwsnJAUE8yhuy12pbi2o7pqz85d27dv37Wv8tC5lpPtEivGiAoLj4sVihJzCgsLsmJihT7LcOvp7du3b9++/XhdY4NYOaoxXR638WBUOicsIZYniI1Pzs5KT4wXXrboaR1W1m99/Yknnn7iiee/Eg8xM1atnRyFMMIKi2L1Nqx7sMdq6q09EpKZER0bGyYMEsXEcrixabkTM5MiwkMjuFH5JZMLCwsLC0smJIUKaCqFSz/UakmMyC4om1VYMjl/xuwk2plu2bBGzQzhRucX+z0XT0gM5dN1Bvf4TVkEgBWeNXXa4hnTczFZxcGuEavxl50OUPTXNtUekMWuXpQo4nDHC+EAAQL8jvw7RKnZgbu9hF+aFiXybS5f7aBpUOO4lgokAJL0ed0ul0veWtsw0qHhzypPFdIwit3upJAONpXqcrldLhcanpCWUpAqoGr1g8H5YVGCkCu6fAAAoPJY4ZnlawqShE5tQ/WZw2fq5RSCQC6JPIIAq8XKpnipgLpcLg/hoibkFaamxQcx6MG0sLysaIxz9dNALCYnqngpV91lx1B+Ul70+OU0ChNCixKjeCFcACqNwuWFIsjVd6+8Xp8TN4YUxkbxRFygsjl8YXhov8zodFs58UERyanhgCIAWo0WEboiktP8j2PvenwuuzGYjRI44XK5fAxqUPLs2akRAiYVAIDK4MZkLV53w22zM+hSdfPpVvWFY0dutbyr4XjlqTa1w2h3uQBDCZRn81p56YWL8rISKc6e+rO7D54axmzuy7ILAIIig4J4Qh6NIhCFhiZGC+gcHpPJZAn9rmG56SyTyNZ4bkh97pgvMy405rJjs2C3ORhR9IjE1LDLzjZ7PLjbYRSxMZ8/CUy6MHnOnLQwHuOKjUKHpKumpqa6tdfgcrlcLgqD6cJpdqf9cj+/CJIgfB63y+V0uSA4M6doxvLpiTxAsPAJWUydwNp8blBbd4LITQqLDGWPf5cVzgrPyokGBhWAyWIxmUKfj7RYLYLs0MjQyCDAaHR+VHzIqM5psRuZ4azw7DHPLBaLybzG2SlOdN6c8htWLJ4Rgp/6pmXIpHGM93ENSADNwNnzTfUqIzdt3oLM8IsrKAECBPi38O8QpVK981y/qU9lv74o3OrCzw0Ye5Q/2gGyIvkTb37yrXfffWH9rcUxXLOytVdt9hE+KpUiSEyfuubRNzb+458bN27cuHHjk4/eUZLktNscZqsb98/4roCgMzhpU55+7c/vLp/Clda//dG7r+9ssHisBIAHJzy4B0FIGo0anDNj1QPP/N0f5saNG++9eU5G9PiwxkNj89Pn3jF90k0zstJSf9L3j4CiCAWlO9RWm8fpAcLrdbvsDgGHTsGuEL1ul9NhMzuddu9lp3BRFGXyGWElqx586S/v+iP/5saNN89OFPHsZrvFaBrzHBYcTvJEZosVxtbyrf1d5+p3HvRNffG9v/xj43sv37NuXpaIpIAnLO/OJx75+9pVhZ6+9zf+7amvTg5qtT/M2GuSkJRL8EXN9cc76geXJEcFhV8uN6hUCu4Bp9PuBQDwOmxOj8eDYihTQA+fsubRv/x1LAlvbNx4Y1ms8AqRY2w8uqety5i2/PWNGzdufPeZVfNyonj+898Ot5cgfQA+r8dttznGT/gAXB4c9+Hj/uQlRU2+48WNG/+xcePGl+64bXaqAPyzw6TkPC+H31R/Qtw4tCQ1mhcqAPCPuhxuD0GOD9wPgiA0Gs2td9gddjeQPp/HZnFymRQa9eojscsgvR63XmF04W4CALgMVlBsutrpwT0Om1mtGR3S2X6YoosQXtKlHe07X729TeGLybt/zQwRBC7CBAjwb+bfIUoBQGl2b69Trfui87NqWb/q5w62IX3l3euKr4/tf/mGz06bnSaRSOjo8rQd2tcK7ov9olDEysyeP1CrlRiuouLAKTcP7t+4WyrVJMxY/9ij76y7MWFUq/a53ABqo2NUq6JgZERUhPKwpLn5XP/4t38CCgcilj384QPr1kxKHu/2S2CxqAJ6Qs8nZxvlvSpw6NSjA53d84vjhbzwy71l5maBPaa/u1V9aZEWWGwqnxYv/uRMo6JPdblvMLeeaD11+MiY566hTkTRFxUZBpfmmEERrIzC4miUQwPzcN/QgHjAayblu7493NMyIMpecMdjW1/ekDuK2Fy2Hx35jCN+UmkIwhve+s3wfdcnhwrDLncLDRNZ5ER/T7sGSABNR1O/WqFgs2k8LLHrg+oGzaDmct8/IDItLCU1JxQASE1HY79GoQAAp5vskmqcHjuAXa0Y6WjqArji3gsJMKg0mmw/uhR8BYlFs4Ue6vDO7ZIH1qSJBKH+fx0esluqdnmunhk0OkRGREsrupt6miTgtpplDafFRanBMaHXvKt6AbdePrrrHwf6dVIHAKgsBsn5Q5kCNp3jrj/5xZcvP7StAcA5/qULeHTuoR1/vXHzcGpp0b0ry0LGuwcIEODfwO8lSikowqJhl68M4gRpduKeq63qUlCERbua/l0ERWOnFc2f+eyslndveurrKgiZf92smcz6x8qXzSsvLy8vv+m5Z77sdwkn3ft8YtuuF++/rrx88W3XP7GlweYe6+8YDJKJEF/e/+SNi+fMXfXwZye7p96zIJoRGjUtv5AQWN55esW6h7bxctetSkAatq/3K9UpL7/z/c+O9RnGx+ZqICiKoSh65RLoL0YkjCzd8Ok9SPVbr99cvuT299+uSnr2/uKEaO4VvpDMmYszEyNbX7+xfF55efkNf/nwSLscRKLo0oc+uwdOvP63m8rLy8vLF60uf/D76iE9xidVnVV/u6l8bnl5efmDu7yRsWtvLQ+7sDgsmJAUw5ngfeOeBXMWlpc/8GXNWZ0okUJFIiOJva+/f8+yOXOuu+WJf1ZPfTQ/KTLpBwucPwISlBiRkF+alVo6JZrHHbeknVW+LCNaWP/qjeXl5eXPnrSorJwICA2LL3v06/X4gRdfvrG8vLy8fPEN5Q/tPDNivEJohcwqjhtx1P3ppvLy8vI5z52yqa3cCHZCeNbUp+4d+v7P624sL7/9r19sV0ZkAlyyjUANgqjlC2e2t33/8BMPv/b2yZ+l/ggJSo5KKCjNTpkxOZrLpgEAsJNEKRNumLN30+M3PPbXrTuaf1g7OBilZO0rt4Wo9ny+rnzh9X+657OElYsL8jNFP1k3aDQyNMS148933rGkvLz8poffPYq+/PbcnPBYFkkSBHFZk7ENVJ/87KkFd354oubDN5++44kXP9pSZ5LXV3fZ2io+efrxVXPnlJfPmb9o/ReNjaPXFL4BAgT4zfm9LsM0SW1/OySr6bf8HHWAoVzq7HT+m6sSuAwMAJRKS2eXKn9GEp+GUQC8FqVuoPFYByROKUkNI3BZb935foNftQI7Jjo5Y+rEELa67XDDkELvAItMP9L5nvG6z+5PiaKxXT5KcirSX3le4sEdAHRhdGTW1OlJbCqGmCUN/eL2Tj1bmDNnSoRR09fX1au0+CMkyMhN5wsZMCyl5U9P5FGxsRulfuyS7j67leRn5UezL+oz8prtBtnpJsjKBr0ePB6Ii4PmZsgujg8PZtO8ZpteVtN8wZXkZ00MYdsHz7eQgujwhMRgJuEG++C5E50SndUJPLYgafKyieFu6UCfww78zLwLHzINDfT1nOpQAgBIT1ZqUkLzF/7jrly2bfDcyU6pzuoEAIwJwpyZ05KiUZW0t+d055g+n9D0krSMrNSxLU0AALumf6Tj9HkpkCRww8KYrFA2xs2fzhk+UDekMZsAKCy+MLt8WhJ3THWOzwX2wTMtIIqLiItCvFrF6WaYODUxlGlSjRgGlYz8GYkcBMFsnWcP1+47Yp3/5sMFXHT8+RfjYG9vz5kuFQAExcVRCWFEWHhGtpBtH6w51jFqtDsBgMIGYXb59KQIhlEpNQ6rGfkzktgAloEzPT293WoAAGFcHIUQRoSHp6awYLDmaKfBZMeZAgFXFAUWbkEBKBSA0ILScyPZQKpb97QM6A2MpJjMwumJbPCraJCaJFpm/vRENsD4BVFbW/W+uqNnPfNe25DPBg4GAOCxalRt+85LAA0KZzBCefTgvGmJHADUKZdITFI9M29aAsc22F7X3SvR2oCJovEl102MZRg1EtOInnnR87DENGJg5U1N4FwcybotPlVbZa3EZPMAAFMQFl+8eGIYsHDZULdaqqSlLs4JBaACePRDsr7Wk91G/3tBcVkJySlxlrPHOgxW19gqPIJiQTlzilJCo/iBDdMAAf4d/I6WYdQW78le82c1qkGNy+r+MSNrYVxqcQJ39STR7HQ+jfKvzJJ9bpum42Cz1G1wAFiMDo32ZMqKZ8pTJ4T/ksnUHwGztHGgT9ztX8iV9LYLcmMKpz5Ucg2le/8hTB1bTtSOnrHOeeqRgmAUuWIU8gfB1PbVkVptk7v8iYfygwD+iEkIECDAv43fUZQCgM3l29agO91vkV/r0gsAk4pNjGHPzw6alc4f7/azcZuVHZvu+vCkpV8LAJHCiNkPf762gMf410P8b0Vy4v0De3Zsa/Y/TVv20KrlqwuSxvv6DzN89J02lcc84em1OZfty/6hGDz8epuO7pz46M1jWjkCBAgQ4Jr8vqLUb/WFhJ9Q/4AgCAK/ts8lCR9J+o+qIoAgv3rz8r8VkiDIi/mJICjiz73/Lkj/EsQfuAzIsVO6f+AkBAgQ4N/G76jO3g+CAIogGPpjPxT5tXLUvz+EYn5Q7H+4A0RQ9EI6MQxF/wvlKAAgKIL8scsA+eMnIUCAAP9Ofl9RGiBAgAABAvzPExClAQIECBAgwK8iIEoDBAgQIECAX0VAlAYIECBAgAC/it/LyFqAn4Xu1K6KxupWW+zEqEvaHq6FrnrnjsbT7fbYCVGsn/Q8Du3Jih1NNXXdFEr36693C9PCBEGsq+vW/13Rnti2ram2xxmdE/m/duf334ZH5xk9+Lf3ul1sjiiKf0mv0x8It9ohPfzqO92+IJ4ogveTOop/ewznDu+r23famFAYe5mpuwAB/kVQFP2DidJzBw5s/fjjXVV+Wkc9DEZkZMh/oC3+RphaT51VySycvOmJvJ+UjqaWU2fVChs3b9qPe/YBGFt3fFxxvLfbwoxLEjEAEHPLyTNqpcEeE2PfvduePystMuQaBm9+c2z9XS2dVTX6yOxIuqnp5GmN1sObODnhh1Z8AvwsvGZc17R1rz0iIzYhMXic7b9/HadM1teydZdclBzCYlAp4DTJ+uq27pKKktm+4d4Tezd/vGVnVVVVVVWzgYWwRbFBNCC8MHRk83c7vtm2u6qqqup4dZWKFybkhvN/qmZ5jS51y9a99tjc+Pg4IXO887VxjEhbjn719ue7q6oOVVVVVXV1SfHggjjeD/VVXcTnhqGqr7Z8v3l7ZVVVVdWJ01UafhRVOizWihWMwtmp3P+4KPXobfKGTdullGAed8yg08/Go7PKGjZtl9JCfvm7AX47/k32Sn9DxGLVuXqJCce9OI5bhrrPNp2t7lP/iN2M/4cQbrCKz52uPb7vSH1965D9MjMy/xFcipHerpOnBy1A/gIDMwH+3bjtupGOg1VdarvZC+DR60e7qg51qmwjXafPNp7tGrTgOO7Bcbm4Z1QiMfvsekPH4V3bahoG1Hocx3Hc43LJmppkev2Y9s3fA49WK+04fLhbaXU6cRw3Ske76rYd71M7vePN/gAAAG7T6toOV3xX0zSsMeA4juNup1PW0DhqMPyOkfyl4BaXtutIVZdEY/1lBmoBwGtxaruqqrokGptnvFuAfyt/sFlpi9iDhmb96fUHr1+wYNEUqvr0YEejKWx5XiQA5jXrVYpRyahCrVGrLTiNSaFRqSiOe0yqnkGZSqVUq402F07jskijUjoqkymUaqPBiNOCWFSfxag3qZUaq350RKF2IjSXRW9USGRak5sWxACr2XClq/kyV6O8d0wAAKdESURBVCpKIew2g1o6IFWo1Wq12UliGBVB3SapzOG2jmjUilG5WmcweWhCOhWhEHarXj0yKJWr1Wppa12Xy82IKJ4Wx/MaFcMjcplCqdbrjU7g8GgogvnsVr3qgue2ui6XmxlR/KOzUtJt9g7u/a49hGbXRYjAFjclLxhDbeKGNpsdh6QkqKmByfMyooPAo1dJ/SGrnTiFQmMQhN0kGXVQWVQKOG16o1JuR4VsCoI7tCab3e2jo6RBOjyikCtUar3V5EK4PCaGXIgJiYPXIBsakckVSrXJaCFoQjYF8Trk7e3NvS1DnthUts803Nrp8ZCUhHhcM6JWq9U2nILQWEwMB69hdFAqlyuVar3B7EI4fJrPpNfZ9Fqtw6IYHnFjPCaVimH+D3kMowqTSavQaxQyhVqtVrswHhVxO60WpdLksw9LZS4vRqXSCJ9VI+kbVqjVKrXNgaN0vw1Ur0kjk42O+F9Vq80EgrhdDodGZfLah0dGXV4KFUOcDs1I37BcrVar1Uabh0QZdLrPIJObTDqFXqNQ6S0eGselHFQqFDo7TtB4bCrpNY7K5PIRmVKtNWqswOLQqdjV7DQAAEl6TaMymXxEfsEz3WHQOxxuks6iYUCC16TW2O1uks7CUMKm6RuSK5QKtVqvVzkd6pPnISqOwqHbNDK1RqN1U/lUCoV62dQMt6o1StnQiEKt1qjVFg9Go9DoFJ/TbZAOSBUKpUptsFs9KIfHQP11iUrz2czu+r2S5FnRwfwQz8DoQO/2gZQVy3ztH9fpKDkz//LsQyvnLViQSrFxQ5mMEJq8a/ubf6tOmLru9vsfuPWGBQvmzZqZpuygJUdTg9g0s0baL5Gr1Wq13UWgNC6DCiR4jKoR2eioXKmUyiXdx1uZWcUpSdEM0qyR9EsUarVabbLjCMpkMa41x3QpFUpTrXzCE28/cvPq65YVstnOgXc/UxfPT6bb1A6r20XhsKgkgF0vVVvsbot+oG/ne69VJ866985777vlhgUL5pZOT1O0UyO9vSrUrEMzMkndqFqtUlvcJEnjMDGf1zgiHZWPylVqtU6rd5AsDo20mY1Wjcbgto1IR10k5rLZbVql1qYfHVWo7UB1W40mxfCI2uCmCuhU7MeUn3otBrViZHisj/JSmRQaSlrl8u7a/WetIbFsJoeFYhQWalP3DsmUKqVabbQ6cZqARb3q5XufxyKXd9XuP2sNjWcz2CwMQRk+o7RfolCpVGqrzUXSBCzqtfuKAL8VKIr+vtqOfnO++KK2T2564IX5UQAYNO9/+WznEGfaN3cUA1CV+75464uPvz49CHSAzDs+eOuWBfl5ArVecuydWU9XmuxKgPjJ16188r3Hone8vOHjvfWDKogPi1/5+snHpjuO7traVnWkme8+ta8bZj33cbbunLxq0wF7wpLXTz6cVF19qPXIkWae+/T+bpj13Mc5ujOjh7ccciQufv3kI9O5yeS5k9s3v/Tc9m4AH6QteOSJO27JTVcf2/A3KAj/vEE8fKYLeJHJS14/+chUdhJx7sT2TS89/303AAEkGb1w/o13vPnEpGj5jifu/Ohgi0QNwSEJpQ9s/mB1Ij3Cfvb4tk0v/3nHmOeYRQtvuuONp2ZHXbt5eAxSecX9b+APx2t20Qm7OOtvH6yKoqp3f/CNSu2EuXPh1VfhsbdXFIcN1G795q8v7ewGIGHhujfvvWNNCKvtxIbX4NG3VxSF9NVuPfdNBbr2xGMlVHX7xqoRNzPm9qLoig13fNjRMWoHUUHK7Lu3bFwVi6Fjy3keHcgrHrrtwyOdMg2kxOesfv3EYyWYsvX9l77+qmK3BBAEyVy0iOXJjCP7w5mVH+4HkoSSu9++7fY71iRqQV6x4dYPj4rlWgiJTC+/f/PG1cjOb7/VdnU0hNJrPty/+PWTjy+aEB0FAG4tKa/Y8LcRu/SkVtt3XgqAIEv+duK+YqO+Vbxpl6w04eMP9i9e+sJ9a6/jYqe/3bD2o24AB0yZs+72x/++qghIkFe88/ynm/c0SQEAEMh64M/rIwReqNozOj3+kw/2LVn+l/uWTVCrvn3j9o/FAAAQX7x63d1PrV7q27nhbyNu2QmVZmCIkbPo5U9jN926v2HAUXDXmsfefKgAl+944LnPTu5r1gEnlpp7/5aNq0rihVfa9xmD9HnkOzY889nJAy164MTRcu7Z8iycrgJWRM7a+6ZFkjjIK9781EhG5t56b5bIefadmU9X9MmHAMLi4uauu3vwJOTwd4wq2g42AIXOWvz6yQfmpRRcZpNPc+z1T77+7t2DowAoQOb1r7y8ds3MfHf74I7HbvmgW6pzQdi0gsV3fvbWsigA/8KgU946VPnnvyHP3Tkneyatoa2t6QX1dR9eLzv2aL05On3qX5YW+GNOkgBmRdv5PS98Qj7zwdycqJSLxt1JkkQQxNTSUrX1ifu+7AZwQ+myh+988MXF+YQb5BWvPP7J98c6ZQCAMciM+9945cZVuRbJoS1PPvBVN4Abkkpvv+/OJ9ctjriUkCswNTWeqXv1a8azH6zODOOyYbjn+Pkv7umYXn2D6au/jPryRNc9vz7PA1D/5a3b5OHJohlJ5NebyKc3LsgM81sxAH8k1Ye37hiuOtmXG7bpg31gcUDuyiduuv/ZO9ON8h0bHv7k/CmxCYDPCS5+YMvGNSENZw9Kqk72Zofs+HD/4ntfSXZb3e372kK8x/d3Q8lj7050ibUHP63Qhi1+/eRDM8OzfsTOnerg5ne//OdnJwaACpC19r3Xb1mSIuqp3PbMYxu7wI4jUeX3rlp30yMTut6Z+fRurVkOEFu4cPnzWx4vBs5VjjYYh8/u2vbcExu7wIEj0XPvX71m0b3h1Rtu/bDBaDdDXtHiW57fdEfxhfIN8PvxuysO/M25QpT2bP77t7IOX/afX52bAJ2Vj5zSRYSHz0mP8TlBc3bb2fDs6ekTwyXtm79sTXp+ZhYrggd0DomSymMP/mVo8oM5RVlpvq7BhmOfCO58d5q0raKxZpA9eX35JOnWV/eRQXnT5hcwuUPVT7eXvXqLvf9QR+swe/I95ZOkW17ZhwTnT52fz+QMnXqqvexvf4pEjvdL+tyi20uSAFBd3YlmCk5nzskbeenuHbHrnpxWkp6G9yg6Tz/dVvbG05FwtLKhzuYsv3dlNlAMp3Yd87qCYm+9KaR63QnuvTNikkKCnQr9iPirU3H3PR5uPri7scHuKr93RTZQDNU7j+JeUcFDPyZKHebRzkNPvyS/4dUiRttwm/hz5YxNry+I1FZ+doUoTbdX7Wlp8Xhm370yG/TVn1e6s8ImZt8drXptaevsnfelE8eGT5w+qMwUrXn87pyOpq86tUZH6kzq1g11Kc9fl5UUivYOKwZkSc89mIeiXAAArbb/1JZ1f5HM+3PhpKR4R4u4tfZTwZ1f35QWaz65d29jRYPgjqfK4/Cmyo+reixhE267c240QNe3n7WH0zOy75qKHFl3UvDknLjYoCDHqFoy8NWpuMduNxzf8n/s3XV8FGfeAPDfrLv7btxdSYKHAEELFG2LtFSo+/Xa69WuLle/upAqV7S4k0CAJMTdN9lk3d3l/SOBBkrtpb233DvfT//oMs/OPDM7md88fqzDKMxdf9tcGSsqVcSkEAgA4NNHlNvvvu0scerM4vkFyWEddHzz6Peps1cyac6eY1tH0h7+x1wZKznRpTp94Pjnp0cW/mNFJmC795zUIMOJ8yuuC39987PtvHLZlJnTpJaI7sQr/xYsWIAHfcfuHaq0h56ZK2MlJwnYlEDApJHrPQAAQyePKZEWcvaXpd1333qWWja7OBsi7VVPHyCvvX9VMdQ39nrqQtnv3hb+6O46ytxJ6dOTuTpT976T8X+/N1sivGjF1jF+U0B1/Pl76gjzJ6VPTeZojT37K+NvFB3ai+eJs2+8ayyUbnvlI0tEkrCwHNPz1lMtiU/kp4njeYAHB9nf+uwD20ila0pmT8klqHwdOx5rm7nxxtnXTom+MO90wK4xGE1aqx/CAejY+YEpNzmRv4Qw9MYTrWnPrcgQMQNtvUaTI+HhTfkAY62VYVOvpfrdpa0L/rKsqNi1u67mRGXG5r9P9w9tfmz7sbOn8IWCmbd/uC5TyiKBs6vjeOVLj/Yv2vN4aaJAclE5bKD+668P7+rSz39seSYEm7cdMzHsaWVvzHN/c/Oz3YlrEkqKigV6t+r0q/8W3HBfMkth6K80cu+ZmQCANzfXtAW0SMZdD04XXLb58+JQGu7Zc2zf4eeOZ7y5eXVCz5db2rDdnPmfXyeDjo/v2kWSyOjTqJbPX1Ys3P14aQxHNDGTuoPfvL9t11lf5l0Pz5UCeWjPjjasgj3rtYcms8wKpcHp8ATBOmLrqXrKsfTZKRrV0WPf1/gy73pkrowVz2jc//WZyibM5AeWFiq+efOAn5BSvHAKVzh06NHW0r/eM3t+nvhyL09+gI7vHzmlZXFFCzKiQz4wnNl2lp9ckj+/JGI9/e+H34fy9dOKJ8fiNO19Oz9pSXhiRjpDygIilcWWxAtpgL3MH3zQZ+gcOP3dw+/DgpumF5Ww/Z3nav+1Q7Hw2Xk5dKbyxDm57pR07ddrM1lkdEWGPxYWe/HqYVcBa1fPsQPPWQ5TARAsixGfc01xrigUwFjl3f01bR0IWSvlRALgGqxrTSHwfYRQsEGbNe32vKJYKp8I4FPoepubXNklk/Knz8iI9WK5wa6P36lXJBFNVD47NragMC9P3MKvNIol8VmThHTqCOOEOexHQlQ+JyauoDA3X9zMP2GSShOyJvGp1BHGCVNY7xsZbjh1egSH7RcAIO7h7j6+MCkuq5AU4eZl5OYXFaYmBIkcGKUfN4UNvmErzcNLmTc/v0AIWM3IuWb1qMfh1Rrru076d2mZQgYtaHOazE1N9qFVdo2N7uGlnk+sqGvSqC+9IhfzmV2moWpL1iwhOz42xTeijTpW32KYxwxcnMyqHLYx/PyY8vn5+QLwYNLrvrQYG8za9PiCrN2ugFepwmPJjKSp1NraHg9r2EjEu/kcPkHvV7XW707j35E4dfb0jDQ1IMh4kdRrd5mMda788skFU4vjZc4gxTcYeufs0PxYiYDLEcrYXF5Gfp5MLWfx4wX81JLi/DwhILQ2aZ/VqlNatc66rsrITjOLS6UGLHajvaXJPryS46LHCBnpJSXZ+eOrb0/Aio1Ozc4vyE/GGCOxqtQva30qsZvKp8oEk0vyC4TA9NV1W2CUWLhwcX6REIj8QeWuzo6D57rnsBsciTEzCkrL8rPJ+vBoL4cEOIAgmU+TiaaU5BUKgYEH8Kq1pt5TX53UAPgtAz1ukSeaY5oFQXZsbGpWfhHGE1bR9rqS0jNz6D6Lpael2+KjMfzGXvkxGikqJWNuSTyLBiz65Z6qAFgAWjhg6Ok7SifLUjNmlySwKMDqO33xmuUAAB69RROslGdN25BXnCGJogB4Nb6hdjw3IzEjv2hSfiaO7yF3sM+6wOud2F6IR6y67nNHj7VrI2HQtzYGiQwmYol2ekZaanZkie9eUFguyjabkQlFFgyNQc7ITf1iwD1Z0OsjOExRBVlEEpGYVL5qaWxBmj4YDp589+WtvpiZZRm4KAjZedECMp5ySX2mQ6u24vW0wvmL8icJAMPsGtg2ePpofVcBrd6RmpFTMLM0P50w6qDJWXjA2rXqkdbq2i6EOSIEwHqUg3IaTkpVw3TOZUMpAHj07u5z7z3dRCfjwwEMlpV004NlSUymICs7qrVP3dDZvUIIDVU08YboODbVanZwo0RkHPnHla4UMSuGW1Kcny8EMn+oYVShsdj8EMJj9D1Vp5r6NFavxWNSDEKaPhPjpojZMbzJJbkFAiAZuogUHjNaVFCYly9qEZ7WUETxWZNiRcwB1klr2Oe7bKsthINgHe4dqG20BknGJm4kCK7B+vYkEMVOLYvmR8lodIhPyUiVeBUD1jpV1vTb8oviGcJf6J+NI1Lo499NzkgTW/raQj2RwgVz8ycn0JkavdNuO7K3oW9lSgYZh3aY/6P9+Bb7c4tEIuFwyOcOKesOn7W6ScLCgihaJIw47A4aPkzCEUKhUBgTIicVlqSmSXBhT0SHy0mV4sa7qwYDIY/fysuXSZh8OuApVAZPxB9U2dxeB41D4QrEDAyGwWBxZWIOk8fAY2l0HoIQAIDGoXD5YgYWYTBZPJmEzeSObQUE73a58eCjkUihUCgUChGjkrNSC3KkVBwJ+IXxEjqPDoAn4Gh0PiB4l8tNEOGECUmi80twA0AgEPK6rDwaDoNgQ6EQQiPzUsrL06SEcIAgwosuTvyzAladsfdcvcHQcGLvvkPVZ5u7PJq2M902u+fiHj8up5sgxovik4SAIEAVSjjuIFbrsZJ56ZMsDremb4ToxiSmpIiZ7XVmxYCLScPHp4tlWQvWFydyXLra49WHaupHJ9w8AX/IF7bwi2KkVC4N8FQ6k8Xn946YPf6Llu8GAHosRxSXJAQEAKg0OoFA9/uDPreFx8AjEUwoFMIwqIKU+fPTxAwynh7HEccl/jiOAgBbwmHROSQAAgFkMTEEL8Hr84CAIszIlAEJD+Dx+BB68PxHEofHxhCoAyOjqtF+WjJdwpewLt4hWfjDd71qRUvt8b2nO60hlz8UIhAJEYRud9oBCbGlHDadzSDgWFwBP1bGxFMZZDKJzMaSMayM6UsLM+Iwrq6aM7sOVckx7p/qCjKWeFlheizG1XX2zPeHxxJf5kf2O3xuzwhSGCsksy/01kUwwM2OkvDELAAcFqEzORjMD0/dSBhcg60nTlWf7pQ7QqFQKESi0nwBfIhKjsuaf31BLNWiPHW4+lhjs/ri24rIwEkKpmCHg+bODhvJSCwokgIJB5zk0mmLb755zdK1RQIKTtdT2dzeprVSiEywepzhwCVvaW63F8uOCFPTJUDAAZkrYIewpGG1yuU2sbNEEo5o4oJNHrcXE3EzyJRQKBwKhQji2NTUkklRP6zkehkRiIRDoVAwFMKy4xPyZ60tTxWS8ThuShwjFOeprVFoak4GZBxuQqIAR8EzwOZyhi/TK4kipQtT0iSAxwJQKFQiiRl0+owdldsO13erte5QCMFESFSO3RnyB3xUKV2UnCoG3Fh4p7JIPKGEgcEyGEyuTMxm8Rh4DJ3BxZxv7PixcAQcdicVHyLjiaFQKIyEyIn5RanpibyLOjD7bG5PSIvNSxLj6L8QR3/E6/WHiR5hbooMRyMBkclmEelMuUobCv/oBQ31+7vaSqXsjLRy6d2PTpa2f/XXN5R+rbpbYeJJCVQCkcDJmFo+ffENM5Iu3Ju25prKWmpYb3KEo0hAxgFgsBgcluhWOZw+tx8YgYDP7XSz6EQ8jgA/LhH8Ong8nhmfNn3W9Y+vzqScr4dx9ivbj17mcYDH40NuxOd2BSCCh6Db6fX7/FgKQmYS+UXX3nXz9MJY0YVGEcN++al+hf+HxB6/z0cEiIQgYFEp/Dg2g8mjTfiLCzr0akVzrT2Mrdo7cBYLEHBHWDRdjfz6cu9FNfh4PD5kcfutFhdIqRBwOT14TIRMZhGxwkTWKXWbQsPGxqSXMXkz3F+OKMLB2BJJdDyVI5r696JlrL5T736x9Y3dg9wp98/OnEFGCAgABovgEJJbbXMEPAGgBvw+n9vNYZBwWDwABEMRr983vnTPj2CxGDKbJCxedd+dU7KlggulJNX2ZtD/ck/LUAhcNhueQiURSBNvZxwOC36My2hwgJACWK/HGwkFaGS61+Nxh+1e/0WFuEs4eltPN+4/RVi0+Z8LBUDX7t+5t2d/y6WpLhLGI0FR3u2PzqEoe/Z/v+WV7Yf06fdnPz6fQUAcJpvF7qLFRLHxhLH7I4zHhMX5dzw2kzras3fXlld3HNYn3/9hktmDFfiDAQCIQMDp8AT8GCwNiwszQGNzBb0BoP2qVq8QmM8d2NWu5U1a8dKN5Vy/v3fz85u9hBCZKS0ofXrqalbvoRc+3v75qDFx1j2l6dPxgBuPqFQsLiV/hqdG19AeKuBFF6dCBPxWnR3B4clcppCce/1T6bJP7ml0WwJ2Bj3N3VLfoBCxKAwxmQgQCYfden04GAhFvIjLZHSCiAKIx+VFIkEmnY4nkL0mvzfgC0E4GPQ57O4wLYQn4hjRCYW5G168KZMCxIv+YPx2rcoeJGDoAsnENczJQkr66vueH2srnShKlkxQGtuPHj4FfTPKOOLoWJp/lJbkOlZ7bkREJ9KF45l06fURr/cyfWX9JveI5pMP+vP+ev8diydlwYC+dfvtbxMv00b5C0J+l82q0zppsUIWiUrAwNjKHgQCnp02edrkJTfOSp4YP91DxkgEPP5AKBzCEvE4DDWiMzvDfjpQxu7nSBgCFvWoH0OnMQX0S8cORSLg9gfC4SAOh0VCOJfO7AgHqBDyeb0hv49Fp16dawZfdS7ztL8KEJlQcPc/H47h9J9+5+m9LThcUCKTaI8omprO9E9IxowRcLBZvq/2NPp0Y49kMgXHocb1fV7XoOxWg8ekH+1t7ZpbGM1jSSZ877fhCbiudm/rkf2t8BOrsk7AF3JdOqS/q1kHoQgYOpoH1KNKMoXAIsX1fny2Qd07tqz3eGIBz6nD9Hc36yA8llijVAFAwA6qXa/f/q+KHU2DE5ID2Ay64UFFaP5zh7/ZW1VVVVW1/b0Pby8aOHNuxOZwTkzIF/Iczc7W4wfbIRwGQ3vjAI/oz0suoFBlJTMJp88Yw35XWnYcTTB5JjI4DF4PcIjDhr4Db25XakxJsx949IGXrl8erVSqI76xgheVSmTg4rver27QDejArdOMDHV3LZ6awKIJAcDqDAxqlQCXL6RRqQQGNr7z/ZMN+gHdpRt/mcsJdWdOiVLxcZIE9oR/Z3MYETW5fdt3dWB1g2WwZyjk0C+YVlI0dYG22z+kkVsnJP4xjpSWWjBZClQ8WAZ65PI++aUpLuY3hZTbv9jf36EQ5S/f9NDnj92RJvfb/C6XZaDq88/+dtv9O1Vq2/kSnN8UGt1Rsb+/a1icv+L2Bz/76+2pQz6L39VvcmoteoBIOKRrOddv0GlpYhafOzX80ck2y7DxkkP+LGm6JDExkw/hUEjXUtdv1OmcfaNdR97ZpTM70hc9+fT9Ty5eIFYr1TCxxIbFYnILohqPnu1skYuz0iEcAN3Bz7ZV7jw5AgAQDoNOredS/ML0TGna4rX+7//x2cHanhEAAAj5fC2ffVZnNNn9ckzb7p0N4PSBua9TjvdZSwuKhMKkoQbVsF5hA5/Noqyv7vF57BweKzCItO/e2QCui4JbCEBb88lfX3/59Xerf+1pS9MLo8Upg6+9Mrh0ujReFgVScXTK/JXu7X//+HDDgBIAAAJud/NHH9UN9I99vBSOAEmTU2J5UQzwWkyjDWe6/X7HpYl+kV3dvvebB6994JuODs3593MsFsRSsf64svncqd5L0gMEQ9CrMjo9dkYUj0vI9VccaPJoLtyfITdo9r53/3uffFXbd/H3AAACIehVGp1eB4NJxdt4HV/uqfNobGAbkQ/bNIo5k3IJ+P++lZv/hK7a9xUEQdJWrFm+lbT/0NNrBm967u7pD6wN7jy1dVPZl2P1YNHXrL6hfGnupDlrep97ZdXdSCiEA3HW1Blrbr31/U0fVrz16o5/eCM0EjXzkXeKEkln+urdlx7iV0LSZly/nE45+NkDZcfGpiwSTpk8NXV5wWULYWkzFzlg9/6Xryv7GA/SdJnNkZACPI4k9b5Pb3/rk1de/M7xDyIAgQ3xq554eHLh4gz77gM/JLYnpI3vJxIJR84v0XqebUhrxvSSr19bhBcwMRgMgEDETElZ2HNUqcjROJmsC61PSMasDStpuw59cV/ZISr4rVGFt85fOi8e8EGQRoGSkFTMTE3k4PF6aTScaxQVIbREKRX6fJEPb7r7G6wbHyZKclJn3PyoFMMZLzDw+TGlD31x52uf/OPZb5zeEIPOz3v+neIoMQ0w+YnZA3l1rz8+Z39mUaZLG5WZPSHPAAACYWzsQ1/d+epHT/3jK1eAAEDiQfzqZ9eaL60cnmho2+dPfvXp62R8iAyupPkvzClPUA2eHpqQIi6nbFHY73vtsbIbqeBzCRJnz7/75hIMJrzhvtpX93348K5X6ZhAJGBVkFZlAO9CL1QAAHZBSvRA38nn15e9hwcQxgmDEB93+ba78whEEPIiO5565X2LhQw4ppg386+PxvFjKMomE+I2JE0vklAp50tXBEJEKIxse/KlD6wWEuBYUt6sxx4tSSiJfL3v2Mf3lL1LwyCyjGiLk5YCNF5U8rL7Nzz39oOPv+sJEoAj5BXPLzX/zN2K4EBYPj322e+PVqzeSiNiEFlmtNVFy6DRI36j++21N35J8OGC5OjJuWVrHxADfeIzAIuFnII8jkMmSstKA8BgQZibZn/34O7XtrxFgggCAVbm6tsWl2VLBZjg6lfeDL395beP3vhukAQQwRKcSauehJLli0WtmN3v/KVsDQ38DnHakmtuWVlCIntueaTm2f3/3P71M3wORZgYwwviGZBYtJjKQna/+5eyVTSIYAB4+Zkzlv7tnhIBaI2jHDolPi2VNyF/P4sh5cRMKk3vg5JoHpcMACRxRsrq598NvV2x+eH1rwdJAGEc2ZW08h8QloLPcsnXSSKyLGNF/B07Xvr2LReRwaLy46LFQSwd4KLX0F9m9zi8enly0X0yLutCnREeIH/Zw2uD31XtvKPs27FnVNSiFdctvG5ePCW2bNW8m79748zB49fNnpI9f/2C595cd9/rgRAOhOlTy256dC0rMmbiYQAAyFJq3KzV8zd+98+zB4+tnjVp0k1PW159+4Z73w76vFxJ7oxHn8mlon2O/iOush68PT06q8ufWRA1FrN8uh5530CzmpIxe3oCQa3s6O7sUdvGkrJSs7KTM2MIEeNA9fEOgz/oB2CI4uJyp+ZQ5Q2nOxU6mwsYFEZcyZIccVAp73fZQ8yMXAHVNVjXGmaIhXHR+LBZWd0M6elgNoMvPL61tjXMlAjjovBhs7K6CdKLYkVUh3Gwr75uwDI2WQQtOjpWnBUDTU2QWRQr5FIJAZvTrDzdBBlFsUKsYbS/52S7GgDY0dF44Ai4gvQcPtUlr6nqHDHY3QCAIwM7s3RqggyjG+3vOdmuuZBYyBOmZfNorsGzlQ5yYnRMuphz4ep4tcpRU5+amD89gY5BsAAAbrdF3bqnl1IgsrlIZAzIZNDcDNmT4wRkm76/r6F+0AIQgZi0yekpaWIOBAD07fv6AtI4YWqsFOcCfdu+Pqo0TpYaSwybR9r21A2Hwx4AMj9Oml40PZ76w3C3kBdcg6dPdI6anR5gMbjxxUtyhAhCAHDp+kY6T9cqgB0dgwtzREJhWraECgAueXuPx49np2ZwqK7B6uOdSovTAwB4KrAzZ+eDUQOAZ6eOJb5grAfvIx34WGlCppgGJASJLV6SE0O1GRWWYQM5b1o8dazTit9i1fSfPt5hAQiAKCo1JWdKggAioGs93SLvU1nBa44MnXjDvPSB1ZnTY1g64w/fdWq7FZ01dQoAAIZYTCLyGThyTg40NYEsURolDHv0mrNtSP70eB7OpFJYR0zYnMmUgT11w2aHDQBP53IzyqYnUOmmo1v3d+zuEP/9+RsSqBfqMP3hkLZ1T63c4rQBEOg8Tsas6QlUnLGtu6e/ReFAMBh2TAwuwJJKxcmpDJJ9sPp4h9ru8QJQ6PSotHS7CpIyZTIpkxRyhxxD1U0gS5HJJswjaO472d032KsHDAbDjo3F+lkyGU3I8QweqB8G8ANQxMkxafmTYy+ZLikMoO+r0vqoLNGkWD5EAFzKppqegdER51glFjuxZFJKvERIgkgo6JJX13RpRk1eAAAsHmKKZ2VGxTFcxpH+mlPdZoAQSOKy0zILY/jhIOhbK5vkQ1oHgUplSaPBTkvPi5Fy/Y6RvppTPWaAEABQJcLYtBmFQurQN3//1EKOK7px/YyYC3n0GQxafVMvNn96ApuMvzREuPs7a2o+fF++4LUHiqJZPBwAQCToc8lPn+nSqsw+GCt3xpTMSQj7rAGDm5ZVFEMFwHhG+gcdBjctI0/gat3TNOTSO4BIozElUWCnZaRhXC6wu+lZRdE0AMQ90jfoMHrp2YUSqmuwoT1I4vIT4slY60h1EyTkREuwHfVVZ5/bSXn65Q1ZEupFbyrukb627vYu1flnVEpGVnJWEp/od+la9zQOedysjPjE2Cyquvp4h94b8AHQBTFx+TNyqPLmMzasVBKbI+NO2B8AhHwuXevuhiGvl5MZnxCTQVFVH+80+AI+4Atjk/LLUoVXa93j1eTqGwyDQo2H0heheHnpokXpv7rMcl4kom/f1yo3q20AHndkuO9U6vK1M7Jmx1/SDen34a3/ZGuH5xR5yafXxV66DfUTIn6n6/jTzyimxWVOvXvaZXudXYajf9+5s7XfyBc89mBBDIv0kz2A/mC+ru9PNra/5V7z5bp4HvXScI/6r4TFYtH3FdTVBsEDkR8dw+cyL+pm9CtFIKJr+f7wjs8///zzz7ccqqiTXTMtJfuPiaMA4IkQokSisiw0jv4GEUCcYfKklNjsmF8bRwHAbrL4g77CJVNF5P+zOAoAvgiexeYtmZRMJvwvbk/U1QotlaKuSpHIZadS+5UuanVCrmBHqD9M5CenIfk5V3Zf/G7+JNlA/YegpVLU1erKHlTIRJduRP0p/O9+lz/Jz/knyQbqP+cqm87+v4FrsKe1fe8RhVis2LNHYQ3gOL9pyUafzqxo/OwbBS2KTaOTftU4wz+PoWPbtm399Osdpxs6DLzJEhpyNa0LFbSHjbXfbFd4CCQW/3JTov4/4ehqrOs61WATp4uI/0+6tLgVQ12tW/dqBCkCMmF8ngYU6oKrb73S38an14wo6lusTBkLj/1d15Pz6dSKkfo2G0vGIngVvV3qYY2PKWb8qkUYHN1tDe27jhgmTTJs327AsXmJ6aLfMK2XV6UfrHvnc0PatESx4HIzooR94OyvqTe4wljqb1rCMGB1GOQnqg0UHo1EnrDKiGuos662umlowE9PElLGinEufb+86fj+TmBTjEODBrUhwBTSLxNdXEMdHZpRY4ApJBFA2/71tqOdWoUPy2HQhelTEti/byi16Hrb6vcdO9nS0tLS0qL1ezDUKPZlrtBvEQHXUFu7Rm0JMtghrP7kB18aaNHi2ETe77ZQ6LgIuOStbVqtNcTg/7qZGK6ERzXU3nDy8MnasWvVorME8TQJ6yfvQ7/JpB6urjMxxAyCu63mVG91e7iwPJX+U9P7/Ta+oE/Zsvvw2XMN51paWvpHu92MOB6FcPk1VrxBv6bllCZEJhBpRFzQ6Tf3nNp3ora+sbGlpWtIo8OIxUwc/nJT1v42QafPMnDyrAFDJZFhZLC15cvd9sJ5aRwK4Q//dS7w6XWjitpmK1PKJPy+TzDU7+rqW6/0t3HJ+xurPtlcp/YFL5nd7Eo5B3sbqj6rqNP4g363oru181yz6ucGQf4nBV1gPPXd11WnW5S/bTycV2vsr3rnnapuje2iiZ+sTSe++/S1Vz5+f/c5nScSiAAEndruqj2fv/TEW5Xtg631TZ2NberLn75b3tHc2dimdkXc4Gvet0NLT1h638tvvfDkI2vSkd+y6POv4JUP1B/c8l5FRUVFRcXH71bs2nOm13KFP3wkApb6o3urDpzo//kZHa5UJAzOgZb6zuZO7eWv5O/L0dV46N/vPP/WRxUVmysqKj749rs9NWeVVj9cdjA0gHt0tKPqvfdPy62ey8wTdIWCVr/x9P7Pv/nqk4qKis8+rvjqnS3VQ2aP70f9N0Jus3m0pb7+wGcfnGgdMLoAwGf0yg98/emXn31SUVHx0edffvX5jlaFxf/j7/5mfpNrtOrTj6qa5aafGcT7x3IPDzZXffxpjdIduPz0Jqg/jf/qUPqfwZu5fMOqu24uFv6aIulVSpwVRafmDO3bpQqb/QDW5oHRgaPKhNQIQhaUrbll1W3rCi/f1ZI/+7pbVt22tlAQCIBqVBXg41h0zsQ5iX5H8gEQpqf+q7KysrKycus/i0lRw7XH9Zem+pNCsCCcd+Mdqzauyv2ZRbp+T9zctKXPfFtZebSysvKT2RnE3n+9fVIN8DPTKf5RbFbo6oL7Nz+zs7Kycs+//7Fh/dB31UqX0nNpQkfP4YNv3L9w2bPf6KyasX/yerE2R/Rfvnl9Z2Vl5Tfv3j1T/MlbRwbs6h99F4X6Q11lPXjt7btPHNj+9qGxab+iS1avXbIkPdla+/JmWHrr9JxUId2jNMnHPqZhOnfs3/zd1x1YcTQ7+drH10+lc5WnPnj3sBwgDCULNi2/dpmYPVj98mYty3t2WGf0SEuKr1kl2vfEngEPY8btC5dfN19k0B975YXtPV0qFwCDKcxf/fyjc6Ocmj3vbqnY/m0nVhzDSZk6hYYkpidmrNyYI4CObQ9+cLhFLgeg8qOm3/Nhue3joydOH2wxARAA4pc98dCCRL2ypnXzfnj8cXj3XcidnZkfrevftU+76KNV2SQZXdF99OzRigHRc4+WyQi8sTrToB30x994dtuZXo055PWHcQryqn+9uWpWlK7n0L5PPjwuB4hA7LT1G5ZcW5ziaTn23N1vVPutOFpsybzJ16x/NLvt7ee2n+3XmoHJkU1a/dyjcyQ4LmG489CBba9sqwYIA2QuvTGTG/Ht++c/zwBfxk4ov/WaJUvXF7IBAFQ73q1Q9vYqcrOsR8XPPD9fhG989XTjuePOqaoG+qNPsuV9+EgICgvh888hX7K9uU/XoQCGOHH6vR+tE1VWnbA4SNTJk5xHNv7ja7nPw2MxEyel5pU9fzNUPL2tSa63QLQkae69H63LMhzfs8ciH+zk4Ju3Vk+/58N104Wq/r17P/+8anzSPnFp2TXX3L4ijq8/9uqT2+qGDRZg8+OKVz/36GwBsENmpx9xYdlCKgA07Xjk+ChICl5cO/18fZxrsLrx0Oant4/NiCTJnLNk2aY1s3lh/bFX3t917mS3FchCTMKq5x+bnSNlUQAA/JGw9thzd39wQN7lJEcliZMmZYw0iAvjWvyB4ZoOwGBx0+/9aNWU+AzKwFD9odf+sUMO4ANJVvnSa29dPetCSHQOyDvr3vhSLYXqLpVDaQN2TObMu95aJzi+/5BdNdJKQ7r21E+99znRQDOBQ4LUVO/XX2lkcKpT5cRnzs8vnsQ98Ny2IYhZ9viSBXOnUgeUR19/ctuQ2uID4EhSp6184t45cHzHbodG2UJFuvc3zbj3o3LMia+1Lim17K41aSGAjgPPH1UR4pNvXj5zbByu/uj2Xf2V/ZJH/rlMCoD31B34qL7qTGTRVwvMrzypS7ktbUrZzGi739329ab92GVl1HBn35ZPPmhARNGcpMIU8MXhrP5ZeSe/rwa7CxJmXjdvze2rUgJgOPbZmzuP1A3ogUeizbz3o3UlpJ7GE8qTtaOpvD3bqsHuhsTS6+et2bQy9fzFAYCgN+w26UDIJOMo+NH+k2e/uOtc7p7Hp8ZxxRe/6ofcZquqrbvl+MtbBBseWjRnWjwn6A27TVoQsik4Ms44XHtq1zPfEp57f0G6YHyB0rAP9Mc+fn3n8Qa5HgRUVul9H62bhG2vPaauaVAksvdtrQaXF5LK1s9fffPylAuHcmjajh187Yl/ngEClxmfHc9gJZl76ddMOXa6zTOiA0Hq5Fm3vbguE2iOM/u/3f3dzvpRwAHEL3z4nkUzstIZP+TZ3rn/5IHv3jgwCgAQtWj5ddNKowydX36pXfTRklxOPEs5eKZ23xvNoucey1B/deJw1a4GA+CoEL/6L/flc/v3HPjsm4o2rDianbzs0bXT2GJt9XtvHZQDhCC6eOX1S5ZlpdmrX/5cS3efHdEbHMLCkuXrRPufPNDnIE+9ZeGKdUuSfsgJ6o+DxWKvtrZSBLBUHjcqNScnJ4dtU4bJ2gCSSxz6ercrfUqiTMwk+Q12Vdv4R5bXafHK7XGLbpg/uZAXajnZfnbIlHJN+cycBIxcEUT0QUxauPfr9xpo+ZNSYql4i/Z4g108qSiFblNaCZoge1I2n4zFE7kJiamZOXEcKcmwyywriqaLsCaD2T/sjF98w/ySRIx5xO8MktIyI12b/9nkzxZml0wpycnNzc3KSItmYulcqSwhPSctIYc6eton5RCdZKe9pR+mT4dz50AUH5UqDQaVnR+ok2cmMsSezsa2vm0qwfJFOWIKFo8BAJtd17zvufc6KMVxhVOmF8hiBcRhlXD2PKr5TG9fq4dRNrk4JycnNmKzIHYPKTGJQfUMN46KEvInz56fncDwtP+r0ZOZkVRUUJAqlrG8tU2QkIw1Ne1rOjegkZTPmpmTm5uTm5ubJMCRg6Y6uXTO8tnTpxdnx4lEdDwAgKP7XIsnQGXklvB7PlZGZ5lbOvUGOyU1W9jZDFNLvD3dLpvNJeGpd/9rJ5I1PT5rclEsg4+xbO9iTYpRtLfZLH5mTpGU61e326LSp0ybMy8zmWXrr/imnzkjpaikMBpH8g3sdsSUkPuaDle2KTz0woXTcjNzc4OKfd/X1eldqQsXlObkxISMJgqRRk6Quk/+o8aXl5M0Kb8gRSih+842RFJSeSw2k0JEIpaumk9frtildwmTs8oLM2PYP7T/IYAlMRmSlJycnBxBwIlAm4uygNf97btNZkFSWum0guhoyohcOjOXy6Sd/xYC9sEeDZ0qzZu3uKhQGuyrrAmJkmS5pSUpskyy8uiIUCT1huSDDbtHCfOm5efk5CWQEH9Yocan54nHe+V4VZruhm8/bubNKk0vmFQYTWF6Td8fD6RmaBuOnBzUhpgF86flpudE6xpqbV6fi0vT7/ukhV9Wmi6KuDW6c30+WXFxOkXXZaB5iZysFA4FTyYJklIzsnKiKHScY49JNJvTd3bPsR59mFmwYGpeRna2jGdqa9cGGrxRi9NoID/yZb3bzk2YVRTLGnuxcMm7eszDZvrU8lQGgHvg5NkGRVdAMmtxumD45CGDIEAVFPPd3t6jr9WRkwoyc2UQdjpa1dELriufmsXGaIeUQzpS8bKCjJw8nsfsgF4HYVKGufKVD1u88YK8GVPTOUJP0/FAdBxBrWs4c6pGjh9P7DY6kD4nZ0qB8IcuSxgcQqTTiba+Q1/u3nLy1AA5eUVZYX60gIi7pFUSgydTKFgmoj5xFpNelBgXzSZjcAiRQSdi8BgAt0ollx9tJUxaOjWeS6JgAMDpc3QcevnDlkCyMH/61FQW19Ny1B+dRBxV1Z0+0zBCKFo6KTMnj+vU27FyN7skX0i6ULcUcITdmrphafHcmaUlMbygvremkThpYXpGYaEUjw+6jw3TpxY6275qHLEQBTOKi7LScqJ9IyoclkCNjmWNdyS0t9furz/TEpQuKZ+Rk8NzOgUyNk9Gpo42fapNLohlRQf7Oto7NvfTl072N25vU4Moae7MyckpNPWopDCZywwGLZ4+c+yiG+ZNnsSPtCuGWx3UOVMm5eTkxmE8TjDqHGL6yPb3G8k5+SlxdJJNe7TOKs4vSGE6NFac0scpyhUQ/4try/40rr62UiKTw+YJeAiCRRAEsSmHh7u7R52Xb+ChCOMSEnOLomKmLV234ZocXMBkH/HGlt208cabNt60OpHr0Haf7NMBJgyM2JJF85cunJIsdo04JXOuX3ptaQIdsSqUbhyeJo3hkclUBEEQv9+jbTzbrbUCOy4xIbcoOnbasvUbrpmSGM8jQsDm0vcdPmRlTJqz4KaNGzduXLt6+bQYvDhKxKEzmQiCICEEMfa09SuUposrn0hMSVxCYR7mVL3BalcN95mdFuK0mWksLGWsR0fA5jQMHDodkk1ZeO3GjRvXXbtybpYIi8G7hzrrm+sahiwIAgiCILaRtq6O+mErhZc6rVASXVQya8my+fl5lKHD39cPmV1eBEEQn9euathVMzTSVtesGnFLJm3ceNPGjRs3blw4Oa8wNSqlqIgvLJq7dM3SWXk5kotaMgnsKF5sdrbt+6o9X53VsbDRU3NEP/4TjQiyFs+9duPGdcsWTUmwtnfb3Z4AAACFxoybsrwoKr5oStnS61ZMLUuG09WRxNLFy2/auHFt6ZwcpLWiRmFyugBowuS0sus3bpySTtYPdVkMSPKcjRs3bty4cfWMwjg+PWCxKdv376wftrl9CIIgXrd1tH7n2WGr84cmxvHZSt3+gNs1oeGRQGUwhVIBguARBEEcBs1oe0uvPaLq7dBbjKyotJkL1668cWG6jHGhXzQWAUZCfnZ0UlHOpHnXrl66IIPJIGI4CVMnL9y4ccOaDcsKsRq1Td3V09l6sqrbiCAhBEEQp04+0FLVrgKY0FCLRTCcpBnLr7lu48abVi2ckhA+fmhA57QGgC5Oy5x93YYNJSlsyvn4jcNgOEkzVy5ZNjdbzPGbkNhFN66+droIfFaV1kckMWSxPAKBjCAI4nHY1Q1nuo1uXxCAJs7ImrNmw7qSFCY/KTdPSKX7GjtUoaCq+axHJOZmpl00S6BHa+w5uaOi4suKioqdnUMYdsq87CgcO7V0OsNsd/QpVDaLurE6kF8ki0vISIhLKiwSS0oWrr7hmhkZaSISkSmOm7ZxzdqNG6+bkymkWHu7zNae43U+ZkbpNRs3bly/aM08qvJQi3zIaAMgMcVx0zZet3bjxjVzMgRk66DCMTbF5iXG55kNRiI252VXRvs5JmVbR1eDDjt5TjKXzBibHSHo9Fl6T9T6OdllSzZuvGn9gpVzyIp9zUMjZjsAiSVNmL7x+nUbN66ZncYjWOUjzh9yRaRzJKlTikTiotKFK5fOmzwphoLFkyWFqxet3LjxhkUzM8WWjk67pbPmVGNLt9qGIAgSQRBTf01rd/fohAn4TTqVVtEfJlKzZ1y37vprpxQlyQSC6ORpxdi6dqPRohodNJm0uBmlKRyTaVBnUJMFMZPn37h2w+KcJIEgKjYhMa9IFj11yQ3rr8klhpVdZ2sHzAgSQRAEsSs7e9pre7WAhIAeW7Rg3rKF01KlziG7eNbqa66dlcTEWYZ/6tmI+v1dZaHUONRVs3/b5o8rNm+uqDjc3NOpQsw286+5XWxWOzEOn1A0ORFwWGDGJkpdEVLvyACOGIrOjhXSeXwaRRwbH52ewcdS+Ww2hcoP+QL20cGz+3Z99XXFZxUV2w7srB3BK3UOv/8yDTE+m9esaYssTI7hRY/NkhkJgd+obKk8sn1LxScVFd9sraiSWwe1Ppf70rUmmHxaVOrcwbMao7qmS+U2eqbnJ/zQX8/nDTr8muhrslK4UT/MtwtgtdhCqt7R2mMVFV9UVFTsahnSuogU3EXdE7zeoFWnoYzUH9y5s6KiYsvBvafVdAY+7BxWeGR+ZkFx/K8fAceiMmVTloye2V1nC9PiClMubfEkMCF2WWEqW8oGIJEJbG4MwOUH+Xi9AXdIHbMsJ4UtZQOJwxWIYmJr2lVOj4WbK0nMLYoDAAC9Vk9KxCfmThr7OP5dT8CuVVMUdft27KioqPj34QM1GiaLEMIiIQAAEl2YXfrgW/94dVGKqbF168Eaw/kvBh220bbmI9srxnra7K+tb1XiLG4jPyEtI+zsbq3bV90+qgkkTxYQqT/ZkRXBgKQsLTkmWQSAwyM8gQSHoznsLp9a7mg7WVHxbUVFxfaaln4rlYb3TbwtiVQkJidRSGaRADhcRmxUcUTjNQe8tAJZYnbBJVMhEalIbE6igMTiMRmS+PjopDQ+QuRzeSQSJ+TxGAd7T+7auvnLzZ9VVOw6dqR+lKw1WIMhL68wOikrP+b8TqTJcQRc2lBjjdVeUzsoZdFT44QXHcWtNfRUbq+o+LKiYkcXjZM15/aVuVwMFpuQn+vSM1TdNSpjc428KC1azJtQXzmGkcSOnzojBcgEAAaTSaUJA/6w2aoXz05MliYKAE+l85MyYjqGLSabnpnESZg6IwVIFxJfuruxUaScjMV3bHrmjo3zyEOvvnG816q7zJ/ZZUUAnMahloaq3v5hctnaqRLa+ZXR/P6w1aGTzE1KEcfzgUBjCOLTolsHTWa7npnCTZgyLRmIeAAmi0WhXb6x/wKyiBC3YGoqmU8HoFDJTFZUOIw1Gc2IsqOz6lBFRcWX31bs6TU7AzgS9odXKIZYFk/n40brvjla29Ckp0up3CgunUOMyy5T1JsNozU9aovaPqs4jSBKSknFRjTdtTurGnv7XTF5HCr7onXj7VZHQN2vbTgx/vbT2Kd0kKg4H44A0VkxQgafR6OIY+JjMtIFOBqfzaZSf+GMUL+rqyyU7v5u8Puz3Gv/XXXwRFXV9uceXFIguzTJ78czqm/d+fAtJ8jLnnpxb1XVwa+2vb4un0z4yefsJYIOUO9668kjCtY19+6qqjq2t2rL/UvTJJfMRg0AADwyLX7KgkMK3enTxziWkbz8bPhV9QWi6dNufm1rVVVl1Zj33nh8QfYlPyqJA2l3PL15x77xNHurqh5ZnSkRTUzz61BYvKI1d2ZxV0yKjU2Kv3Tr70+v1Tid6kv/FYAsQDLufuGrXfvHz2h3VeXDy5OFFz84shJzgqJ4tfbCqm2WhlM79n1Q4Sr7purfR6uqdv3zuY0z44CKYCZv+HTLl1X3r4lr31J6bdnsN74fNFyIv78WOytp8dPfVlUdHc/S5i/eu74I4PftoQwA4OwfPP39Q3fURT/wwbsHq6r2ffLpk9emXf6VJVESH4zJPHS6tun0gRIOWRoXffF2bm7asme2VFUdq6qq+ubxR5Zn8wAAsAA5KfkKAvvY6dP6c0cWZCRSeZe7Zf8wEhZfNqm812QLuH9tx9kgQPOep3a2GYTZT9+zRAzj1Tn/GdGLlj/y/o7x372qqurVJ26a8kOTK6RM2fjEa1UffvthXP8ta24vfeSFL2r6gE0kpRfNrdRYqk+foOkGJhXlEQj4/OWvfPRx1ZMPLzTvL52/uPSFL+vkqokHAgBBceENL/27qurE+LE+eu+5JXlX8fJe/1V+zQP7z0SYwE3KKBABDgPGrtZBlUIJAIEg9CgNTq8DwGPSjzbVdAcD4+NA7O5Qv1odCvt4Ao67w996aF8L+ENg7GodZGDcBam5P38jEsiQOj0jhi2hg8eoG22u6w4Fx6sMba7ggFoVioyPDaDwKMK46chnTd3qnvHOhQAAEJsXkxCVzIGgx62uO9Vrs5ombLyAzGBPWnm7Y8ceObjCc0suCocUKoHNiOupHhixapzgNuhGW851hcNuvpDnbHG3HjvQBqEfV5YN66wmh5lCJTAJ8T0fnq7X9l+0EmpWEq2fZDh+sA3CE0v0vgB0jeg9/suPosEzQbLikU/v3bAsN+HSbb8FhUpkYBO63j/VoB/Qg0unGRnu7lw8bXxx0wsyc7NDNmF/b9vEXrhUGpGOie98v6peP3hx71xr45HG6mPnu+y2D7TitHKJaOIe2RJaauH4EqSDPXJ531DAHFFu//JAX/uQMHfpbQ9VPH5nmjxg8zkveYirTE6N5SfjK5vDDCuJbdu3ngPbr3n6azXmIcWh9BkJMVT+r30vm4DCxKTPzI2m8Cng1CgVHc3dAJcdoCJOyY2Ly5E/+6y8vEiYFHNJJP0ZiVPKmfaQfP/3o5tWpLPo45HU5Q33KLX+4OXLikQSVsiPHtrS2jjQOgI+m0XZXNM9NUMo4f3icX06hWLXe3sHbUoPAKitBmX9kRQuE0/x1Bz+4LPn/7K98SdOEADAq3X2bH1i5Veq/HmTb1ky/ZKoTyJh+Zxo+TdNjUPtSvBaTaNt57pnZItF3KiLE15eMAR9KpPDPb6QyyWwWBBLRYYT6pZz1T9egnSM6fTZ2trvz4RpvNl37vrkvjXiZKLZYAICmVqw7Gbv4Uq5Q+dbOD0v5MFr9u481lHTxUyYev3D3791T4mV4nPb7QAOd6hfpQ6GvFw+29MdbDuwpxl8v36IV8gNmj3/uu+9T7+um7iUM+p393Nx5E8omStXNOx/46/VVAAG1TFoFnOi+TSpZNXsj09vfaN6J5GL9yNYMj2EEACAGi+M6s0RfPb5EyNnZyzMik/P8bQdfvmBbgF4Rx3EKbPLZidSAw0/WcFJFFCE/NmJr5/8Sn7831Q63g8YEiOMEACAliCO7snifvHp3xVnEpiaETZXQqPxkhdfN6mi8otPjn6zhQ4kOjN73vIYwYcjp9tfbNhCxYSYNKzXg7lsSQVDpNLTZseT25B4YXSW9KK1MzFsJi9j3fVVn+x5r2Y/Tkz1hxESOwJ4fFLRbBPmcMPxlx7oFACCAHCysoqnLp8bx+LNKE57/sypnrdt03LS0q+/p2hb1acfVeO+pgHg6SCZdeN1aUnF2UZ7zf6XHugQAIJA3NQVk4uy4sVp5TnfHf3Y0FK8cs6UaeWpF9UwAYIDIj9q7JX70krq3wLL5UjzNzxY9O3Rjz6oxOIDviBw191ZEs09dQ6sPzypqVkzp/c4TzZ+8PcHDlMBXPJ2Y2rWzFKujLfhwUlbDn/4fiWWSgUgsEBSessNhVFgGaqv+fLLfXupEQA94IrSps+dfKEbLT0lSjoQF9n5zqMtVAAG2aUys9lYBGgR3ffvf/adH9gQQgj+qSvmClmCC91dEATYkzKSzh1v+eztZ05lxdENromV7AAAgItJLcRjlPrvXntgRAB4PAA9XpY5/aY1eawLf2A+c2iw+qPnmhl0Et4JCFG4/LFrMiSNbZjfOIiULGOJkNLof33/jnwPlkgneN0BIu8n/owJ3Bhe7KRUTAtMTRSKf1h/7ReRpdliQVcqa4RYljo+IwEliiONmZ74+vZXtfUJHLuGdWk7OYZOYOQtv6VoT/3er54+tAMX8GhpM+7IT42TdysvU7MwERa8eG//d28+vSsCDLwDMDTSsocWxLOEGHujWqOQ+y80rLpHzrWf3v3FwXNtHeD4V0P34IqSzNjY3qMnWxrDTnt334n9RMAQKJJZtyybFJXIIwCGQWLlrbxt0o6GnV80792GDXiN9Dl3FCTH9LUMTnzhvRwClygsnJn1TN3W0c56MTnEBLhkWg48EDJnX1tYdbJ973MPnBnrGi0omVFWMqckdrxOnIzY2iurDn5eFU0CcHnpGUVJ6akUQPBEWsrMWGqbV8aPzYumYQDoiPHo16eUtu/4mDCEvVlzlkrEUjbeFtVXIP7oy2eUtdMXZsWk5zubDrz8QK8AsFgAVlpKqmRW4s82b0VC4Deq+tWUWPuvec1D/a9dZT14yWEVJmhWmhEEQdiJuXExGfmpSenZSYk8q9bs87hDJLZQmFaSJYktzI/mc3lUAjDIeo0JS5eV5OclJ0rIdqXajUHwrLySmSUzCyW0MOKOCLLzovh0bCRMxFKEWTkSOhLwBRlscWxaepwUGdDZMR4/QmILRWkl2dKYgoJoPodHJUToFIPGiKWLk8TihIzkuLS0qCgZ364yebweP4LgyQxR7pIc1mg46LM4ERyJwsucmiJJLMgQCwQCKlWQlSUIhQQJSdIoMYMYCUBA03DWxknPzS1KEV9UYYfH46iyaIxCb/d5/WSOSJRWkiONKSxMTYwX0skYh1rrGut5RBEKpVFpSSISkU8nqNyBkA8rEycXL5gV7VQbPT6vH0EQLBGhx+ZmxsbKeCQMxqHWOhEEQRB2dJosNiWaR+HRlQYnAc9JjIqOTuARAQDCPneQyZOIExN4P7wHRELBMMaHCPLyBCSSQCwWxMUJAAR5hVFcGhEXCYYiWB8Icse2SsSJ8RxSJGgLCBJTpVIhl0ZkRqUKbEq9x+8LkyWSpKnXrc6T4gK+IFMglSTEc0kAAFQ2CxvG+jVaK4IgiGV0AInipxYsm5qWlCKwKg1evy+AIAiOjDDi8rMkAlrY6XCNJ0ZoCdPmFU8vSL8Q+HB0IsZLimiH9QgGQRgxadHx2fmJ0Rn50eFehTPodyM4EluaMHdVWRKTS75QKYAAgU0lmMPgsXmpjOjMGEFMTk60hE8jRMIRCDkCgqT0xOQkqYBPtQ6N+LBIGEEQIochjM7NEJPHahd8eoOi99CREXoMh0jE44hiYWLRmrWTonFBf5AtipLExXJIABD2OoNskUwQFSXAYgV5hVFsYiQYolBYovR0ESXscwfYotiE5AShFDs0asUFgghVGC1JKcyTxeTnCvB4gSxaEh/D+SFkhuwWvb6pKVCwel6alDneE2dM2O8NUalsUXq6aDyTEwWNigGT3sEuWlGaSEUIGAAsBUfEc2ganQ1P4sYJxYnpiTFpY98N+zwhKo0tzchMjo/j+K02t9PpJ3Do0mkrVxUmcXCRIJXGEaWljSX2e0NjH4UXjotBQliMv2/YFAmFEITIkqUWrlwzOQpPx/g8fgpNKE0tjOUCYAECNrVBrew2U+MTBGw6iSOOF0lkgojZShXyWFQaDkEQBIMjMGLz0qRMDgULgMNimZJ4rsdsc7ucASKXGTVt5eqCBCYmFKIxeKKUVCEFAAn7PBM/jl0EDAFDZLHJo1YPBihirjQ1NSYmJ0/KIOCwkWAgTACiKCcvNT6WiwsFnEaTGxm776Ji4mTxsvM9ePGI32B2G00mBIMgRGnx/OL89HQeHiAEAU3zOSs1LiNvaoaUBEDAuodUTo/bgWDxZHZs2aqZGUIpi4EnIEyKTmPGUqVFeblJKVEU+6jajUEAQRAynyeWpiUJwhFBVm4Un4GLhIgIWZCdK6NjAv4gnSUQJyfzyOGA08uSZcbHxfN/1OiN+n1gMJirbFzpf6uwx+Bqf/+5HTGZs6ZeMz/p0h49/195LaNGo9EwVt3cse9LSwIvbfLf507shnQ1sLd31VU//Cb27++vyonlXFzS/wP5NWdazp567VDq356dkyqm//qZDj393+0+pm2w5D70+EzBTxR5UVci4rc72997bZdAVjh5xbL0/2hjNOoPgK4M82fhcVjrd3xMz0+OSUfj6A+Gjr7x7v1l4+7rJzDjll91cXQM8ut7Sv9uNL2tQ11n4q+/Vsb8DXEUAAZqjtoCxrh5MyVoHP1j+D2u5t0VpLSomGw0jv6XQEulfwrhoM+l63VS4mlU2uVmhf9/ymsZNZlM46VSYPKjBFwu9de3+f1ZhDxel1OpB1E0+z+5rojfYXA5bW5aopAKl58Z/id4TApnCA80Cf83RWDUrxYJBVy6PicpikJl/JZloVB/UlgsFg2lKBQKhUL976EVvCgUCoVCXSk0lKJQKBQKdUXQUIpCoVAo1BVBQykKhUKhUFcEDaUoFAqFQl0RNJSiUCgUCnVF0FCKQqFQKNQVQUMpCoVCoVBXBA2lKBQKhUJdkT9wtiNvIHxm0N4w7NTZA8GLVsX8AQGHieESJ8XQSuL/Y7N8o1AoFAr1u/kDJw60uIONCuc3dYZzQw6dIxAM/XQo5RBnpzHXlwhSRGQc5j8+5zcKhUKhUFfgD5w4UGHyVZzVH2i3qKz+n4qjAOAPhvv1noMdlp3NJl/gl8J5wGrU6pVqmx9+drXb/52g02HWy4dMnnDkl/Lxuwo67Wa9fNjs/Q8f99eIBMFnGBnWG62e4KXb/tuFPF67vq/P4PAFQ5duQ6FQqIv8UaFUbw+c7LP7Q78qOqit/oPtZl/w4vgYiUTCE0QiEePpPd/uePfTWi3Ar9rvrxKJjK17bm9vOrbjyX8clnsCvkvT/JFsbQ1Hdjzz3OEhf9B/6bb/awEbqHe+/tKOPacGLZdu+2/nGhyq33Hf/TubVTb3pdsuiJy/e364j1Ao1P9Df1QoDYYjbn/oVz5bguGI239xa6rPDk3vP7JpVemYhdeWvlTZMGydmOR34Bk1dGz/y0Pbz/TqHZduQ6F+lt8UHNn+wjPbD9YOW50DQ+e233vfzmb1z8RdFAr1X+uPCqURiIR+oqvRGCIOMymeyaLgASASgYl1wD7DwMCRjx57YxBJnbXs1ltvvfXWG1deO93cavNZjRN3ceXC/qDLOCQ32t0BtBIP9duEg+A1jo4YzQ5vkMBlyzKvWZwhppPwl6ZDoVD//f6obkf7281rP+279F/P49MJudF0EZN4otuksvgAIIpDrPpLFpeKAwBjx+mzFW9stl+74f65MzJEXICAyzV07FgoxrDvRMDojL/7iTKpa7DhVOeQzuYGIpEizpwzPYGFx5u6B/s6a/vtAADAisrMTk0VcL2j1U3AJXUbrMQwM7lgVopg/A3CZx+ubfh+8xNboGRhVnYKzqwK1NXTbrkNbzIgHjfQhXHxBbNyBYD1Dnc3dXf2aeyABWCnzZyaFMXlXVig2z3c1WdUKg34oEZhgXAE+MlFKemZiVSnS366qsNgcAQAiCSaJHPO9AQmjoq1Ggb7O062DwNEAPjcoEoZOtvE+tt7K+McPa1tWm2El5aXJNRVn+w0Gh0BABKJLsmaMz2BgaUEtMr+3ob6QfPYoWkxMcmpxdk8mmvw7IlOhcnhARKZIc2cPT2BgaFctMa0Xl7b1tM1ogUAgOiixQlEvUPV3SAfK42zY3PzUtJipeQAgK5tb92AwWYFIBLCMbLA519AZg4uKRlr0I5/NyNWICZa7dr+6mPtpggEgc6PTU4vzomnwni3sYDFblBXN0HutHg+i0wIWGwGdXUT5OWBVus2aQzYgFZhAQAQpk1JSU1NZHjBNVh9vGPU4vICk85NKFmaK3TJe3o8FrOejBnqUAAACNOnpqakJLAvnBQAuJzG4dY9dcMAPgCWLDUhKy+bMlh9vENpdXuBxeAllCzJEboGu7vNOq0eE9ApLEjs5Nlsy4BFNaxFeLEl1+RQ5QODZr1WjwR0IxYAAFHGtFSR3zdQ/eA/MY+/tzJP7DX19DY3D1sAADjxhQUpyUKmo7t/z5tPbAFpbnLBlFQxV4I4Gfkz4nk4k6q7p7lFYQEEICZzemZyDC6i15xtCUsYHaN6j9EOZJYgtnhxjgAoaOBFoa5+WCwWC/nX/21+3O/ezNOv9+xsMo39PxmPIeEx/vMFTzYVnx/DmJvBkxvcQwav2x8CACYZd9MUIYWAAYDRbtXp/T25T90/M4ErxAEAYAkEbmoqP6Lu7bCb/LT8Iobz9KEd2w4cPV3X0NLZ3aNxiLNjBRS87lxj5fef7TrT3t7eXtuhQNgEHklsrHz2hVqj4Xhjq27UwU2amXw+lLoNA021O7872q3WahUmr8/swLpGDITgieNVrXXVpzpGLGpGyeSkoLW56tjuA3sOnzrX1tHe0GdlJ/KFPDETPx6qjKd2bT2xY2eVSllz/HR7W82xThM9wEpOE/tdDV9v3nWy8mxTe1N7d5dKn1iSxsPgbS0tR/ds/fDQyZ72tvZ2O2AdIa7Lgp8+R+g4uWf7nnN1Bpw4JYrV9fXmXaeqzja1N7b39Kh1iSVp3GBkqLp6z87N35xs6mlvbzx1rMluwbALc8j2Uwe3bj1w/Oy5xpau3n6DU5IdJyAzSGOdyiIAfsvIsRPf7t2z4+SZnvb29vZw7EyOu2eobk/FnrPt7e3tNe2jRCFZFp1MtRnle3e8u+fIyXN1Xe0DilGsJG6oxRC2NygGao4eb2w/c6ibUCKWMPnewd5jB778dn9tW1tLU8+IFcLi5HQJGYsAAgDuYWXnyaffUKROTxDwqMSxj68r0tIUJw6eO7rv5OhI7fEz7e01R7usPGBHJ3D1hlNff/LZscqaxsbG3p5+e2RyboLz1N5va44cPaU3nNp3pL295kiXR4ITJGfJiOdfEoIea+9A3d5vXt19sru9uaNdFyAQ+WJ299cff3qssrapqbG3Z8ARmZyT4Dz5/TcnD+w/qRg6eeLQ4e5wlKmjurNy59HGvm7a7HzK6f3bTh46cHJkuPbE6bb2miNdNiGGRuPhDCfOwvRFMQR1W/3+A9v3HK9ta29v7DPghXQRhxMcbtry+ZFOtUKtMFhUIzrLib2WjFkSRHW6eufur7ZWN/a0N1YN28ViDs8V6j753Es1HtexM3VNZ06ebe8Z7KOVFcQSGSTMH1UvhEKh/lMwGMx/olSaJqEyyLh6uS0cAQSB5QXCkgRW7aB1f6vBe77X7sRS6em9bW/9/fsNlQ9P5VK5E3eq2ff5ltFeJ+36mxj/Lq3O+vjmklkpsS65tuvovS/DLU8tmZovZUYikXAkAgBNHz5bg1FgRC/ldN299j3eA1uuWz6zLHbi7gBcg5qOI3e/CLc+s2RKzEjr1q9ee7su4ZXKe6Yxkkx7dx2uf7oh+uv3ZEeuP0edPWXyPbOyAjZQ7Xj0zUDSzCnXrsoVjOdqz8cvHa7Vy+a+9reVUsA3v/fEW/2txPzHPt1QDBFMOBKJREDbNFC3q+zM9K13RsPxD053+yOrP36oGAhYANPZE0dbNu+Hxx6D9+9TRa0sX3znzEwAgEh4/LuNfbW7y85M33k3VvvpFye7aOLHPnyoGPDa7z/4UqPB0K+5hvLvWacn7byrpDguytmnaK2892XkgdeuLcoQMQEA/ADKnQ/c3C6+IWnxphsyLpx8JHLhWtW/82gNzS3Mem6ybfvd64ev279o1qRpUQB+E6i233/j+9aiexfcfOt1UWo49/rcr2Szl0dl2u11HxqmHn+oGIdhGKsPH+raXsN7/P1VURiECACO7sGmqrtfgr++vaIwRcBwdA80Vd39Ijz2GJz5pmUklFr+/IMrpICce/OhfypGRFHX3UI/Pesx5KUTqxfnZtoOVB/ZsnZo/YnrlKc+/e6sPb34L28+VAxQ9/oD2wMO2eRn758pHT8FQ+f+iiPfHRzdcOKhYpDRAUA50rTvjTl/R16pXLMwO922/9ThrRsUa6uuVx77sLYPl1X+0NKlI2/MemwoecOdN86iU9v3zf0m+uu/wbnNzRpCdvkz9ywXh6Hu9XtfVRl4rAWrhVteRx5/T9bzRo+TGD3l1RWTIAyqHW98ag4Ism68NVk4svPul2D69bPmlwQN56offgP523uyrtc+67Ymxz/4yr35AdWOe/7WkSqOld3Ibnpo0+aEVyo3LkibFDxVd/zgku1xX7+3cnIMh3bhB0GhUFenP3AwzEREHCYvmvHAvFgqEbtusiRBQDndbzneZfIFfyJ+Myi4ZKkEhyFdugEAADzuoHZQET747iM33VBaWrpg3cq7P6tvGBhyehy2juadL99WWjq7tLT0zn99u7PRozdp8cxI2m2lhbI0yaV7uhQzkZa1fkURQcgEYLIYHF5SMIhRqzS+qi0fPHJbaWnpnMWlN7y5a3/ToMk+XuIeI0zkJWfkiQCLAUjLyhCTUzx6rdIRUX7/9p03rCwtLV1x5/qXjnp6FYbRphZngotXvjAHcBeuvbVPc2rzzTfJY+5aumBVQSIABO2g2vXm7devKC0tXXHnjS8f9fUrDMpRBT2XmjN3QTb88Lu5XQF9/3Bk35v3rF1TWlq68MbrH6hoaZUPu73OsQQBN6jqmvzlgtjskoTz3wIAa0vtludvKS2dVVpaevdHu/Y0u4d75HpVFdxZlCFKEk1IGbeyID+7KB6AgAdpTDyBwLFaHJaW+oHP/za7bFFpaemyBx9/bXfPoEYZifxyJ2RJiiApNVsACABk5mQLcAmG4ZGBkDz9npmTBAkCoAglMTFpmftOD9icOsmshNxZ5VkAACAUS6i0i35Di1xtpcipq68rBjYFAABcTp8jMpRxz6xJ/HgBUIWS6OiUjL2n+21OgyRVmJScJSUgUbEJqVMK4iRxUhpZIMoAIAOANFWYmJzFB0AQyMrL4WPinEa9ASASAZ3O4Dqz9/vn7i4tLS0tK139wqdbTvdrzPqJORkXAb3OwJ7MyZ0xJwMQDEaYMylJ5cB0yDspImzmnQuKuHE8ABqDIhClA1z+9kahUFeh/0QoHTV7uzUuEh7zxJKEWB65W+M8J7dZ3cGfqlQm++wcXf+wIeS67IM5HI6EMd7oabNXrLt506ZNd9xz1wOPvPjSypkCTcf3xw+fckpWbrrptk2bblpUlirl+QMBDDZCFrHoRPKF1s2fgiVjKQIuHYPHAuBwOByeFIkgfr9fmJ0zb9VNmzZtuv3OTff87Zln114746JYAwQSnkymjrV7USgUAobiVuk6K9/9x1GzbNrM9Zs23Xr9uiVFiaEQ1u90hUhhHItNBeTCdBRkHkWSWZo52qY3jZh8JJ/O3Fv5zjNHrdHTS9dv2nTr9WuXTEoMBrFajdqHmGgszoUmSQAIh8OA98bOLF+9/pZNmzbdce89Dz788svLp8ZyWWMJImHwO5xhNoFIpV94eFubTmw7XlkfiF616dZNmzbdtGBGopDj83j9PhuI6BQCeWIbHolHo1HoJAAEA0QiCcHggsEQmU/Nnr/utttu27Rp010PPfzo3X99oCxprEj68wjkCdeKSsFjSH6fzwNeiphJw5PwgMUTiEQyxWz3BkMBApNMZY6HSTyBgMVe9BuGvP4gxovl8eiAG6vzDYXC4fFdkcd2RSBTLHZvKBwgkPEkMoWIAQKRRGbQSHgSEYfBEygACAAQyAQyabzlkkqj4hFiKOgfu/0C/gAnOWHGtTdt2rRp06ZNd//1iadu2rA0RzYxJxf4/QEcHU9lsigAAHgqnewLgtvrxhKAImbTcEQ8AAb7w3FRKNR/hf9EKDU5A+2jjtoBayAUblM6mobtGuvPDd3kUt2Z3MFD/z7bqbKM9SAK+nzqurpRq8UOAHg8hk5nQSgqu2zW0vXr169fv/669eunZDFt6n6z0hc7a8P6tevXr5iRkigk/USwniAUBqPN7Q9cNmoDBgN0Bh2DSONzixeOHWv9+vWzJqeLL+r7MpFBp4/grEwiwys/cQ5kJeVL1q+/bklZWQYLiwWgCDgEM9490KeFHzo4E7n02EnXrJsmNJ3pbm5sHtI6jfKjdRA1Zf7S9euvu6asLJ2FYJAIjUbxOxGjQeOEH95C8HgslcaOhGLyyudcO5a9NevXT07n06ljCbB4YMgkuH6nVTs63lsJwK3o7rPqIHH2hvXr1q9fPi0hjk+K4KkEGiMWzil1DuN4kfYnkMkEEolPZcSXrl22ZuygS5YtypIiyA+hLhgCvdUZCPoB/E6HTavSAwQu2guATqvDEJ1iiZSLcPS1Qyqn2QV+l8NqNehSYjgkwi9UfpI4DFKA7e9oV4Jn7PcjEHAEYOtr5SqX2QV+p8NmM+pTYjhE/PjV+GUR0Km1WLKLxxXSABAAGo2Kx4oliTnzLtwA5bOKYvljyU0Oj8fvvfBtGo3qGXVrhgf0AJGIU6M0MUkRIVv4w/5RKNR/oT8qlCKAYCfMAmh2BSp7zK/uH9rfYhjrsjsRggB2wiu6MJY+dYlQtXdn5alTJxsbGxsb6+vq9+883qszOwGAQCVyxAW0jr6GxupTjY2NjY3NrY09WlOAShHzWOygV97Y0tTY0NQ1qDOPReKfhCFi8XShq3egp6VlQKW2XfqoByweuPFpDKVtoOnE8cZxXaMqs/uipH6rTTPQ0djY1NjYeKRNjufiiidlRfElKVy8Y2i0q7Gxsa21a0gfigSYSSlSP9fXdORgY0NDY2NjY69CZ3QDlsLmTr1jXbIu0H9y98nBUR9LkMzF2+WjXY2NTW2tXUOGcDgYk5XHw0UbO49XNzY0Nja2y0dNTh+RQeHyJ9FaOmqbzl+NtsYencVzfngPlgTc3KIopXOksfL8KQxa8AiPx6T7XIONzY2NDU3dcoPVQeLQBLFzYlu6G5pOn2psbGxs7ehWWCO+H48TovIEbExMoPHwvqba2sbGxsbGtp6uYbP3wtQZWDKBQIsNKfq72+obGxub2tp6FEaIBAHAZ7Go+tvH8nG4bYgqJE4tyU/gFtOaWs80nT7VWHemranHhF89JZ5DGy9Y/xRalExMTqM0HtzbWFfX2NjY2KW0OYicImpTy+mm09WNtWfbmvpN+NVT4tm/tCufxawcy1VT46H2YYaEnJeWzAIABFhR8UwLomk6dnj86jV2DA3rHH4MHog8nndYM9DS3DukMPsBEGBFxzNNiLrx2OHGxsam6hM9BpmAlxcfc+nxUCjUf5U/KpTisAiViP2hDhMgEgGnL3TZee1xGIRK/KH5jyzNyVj11Id3Who/ePCm8vLy8vLF6299zJmGRdhSBMFguEz+9Ls+uIPU8P6bN5aXl5eXL1pRfs+Wo8bkpBgruffJ9eXl88vLHzukGXayozEIAIL5qal9yTJ6/Iw1i04efO2Wvz7x8Rd1JgzmQpYRBEEwGDICBSv/tiEB27D9zvJxt737WWX/RbP/6Gpqv/r72vLyeeXl5fe1e/jZN9+5IklWfH3Cl5ufvGF5efmGJ9/9ShOdhGCoCC+7bF5GDLbuL+WL55eXl5ff9+bOw3IEg0EQQNJW357pGxnduvP9npiVMZs/ffz6a8vLNzz13tfa6GQES4W00msyEmRtr60rXzCvvPz65z842qZCeFxp6X2f34U99eor68vLy8vLr1lTfv+2qiGTazxzeABJ6fobONrTW+4YP4OnTwoIJG245W/rysvLy8v/XmXXuphRCJXJT7v2kbv8+156aX15eXn5ivW3v1kT1rmRH64KIAgGwSBxGTMWrbm3aPQfC2+/try8vLx81X23vHZCGY6Mv2FQYoXpMx69a2T385vWlZdvfO7T73SyDAyGDACaU6c+e/SGsXw82I+Pz19//fzMmFkPfnVP5NA/nl9Xvuz2zz+uTn7xwSKpkIZgEGTioZGJOQEAVlzu1Glzc4efKL91WXl5efktf99S6Sl78Is7g/uffG5t+bW3b/78TMqLDxZJBFQEc/42QBDMhd2O/z+AuvLEJ4/cUF5eXj6//KEhWmrhDavzBAiCxWAQyCq/dc2kFGvlA+NXr/yml17Z0WokcDCypdfMbW/d+uBfH3j5rRM6DAaLIFnzNl1XmGw+8UB5+fxF614NSuJylpTFjt2EyFilLgLI2HHRKl4U6r/FH9WDt0Ptfq9S832zyfOLM+sCyNiEpTmcvy2Mop0f5hAJBwNWpdLodo2ViTA4YEriWCG/J+wNEXlCKiFg1SiNNpcvAAAIFkh8mZRFDJjsJoPBCQBApNOxCJlCwDKZoNMBV8Skks8PX5kgHPS7DQMaWyiEp+DxFByQhDIWAYNgQi6nw2OyY4UyFiFkt+jNJrNzvDRN4vL5bB6LjBv7qNnz8efd7QbOkltKhAAI0DliHpdHIwR9bv2Axhb2BgFHIBCodPARBBImBe/3WM1ajdUDAAAUBgNPoEIQK5CyCBiPQ2OwuSDC5LD9Izr7xd+VMimI22E2jRpdAACd377TJUDiZ713YxY+YFWNGO0ef3DsWpH40VImjTThfAM2o85ksoy3PjPECbSI1e8wje2JxGBgIiQqhcrlkyfuCovHM3k8vxOYbBqDScJFghCwqXQRMoPGoEPYZVUqDJ4IhAEARyHSuTEyFuF8E2Ak6AvYVAqDxxsI44hEApkGfoIQOf5JxdCoT7hoXaEAAIDBlfI4HCopEoSAVakwOryBIBAJZJYkUUAJWM3mYAhD4vJpeAAIWA2mYBhL4ox9HBPy+lwWpcI4ViAm0jlsnpCPtyoVRocvEAQikcwWJ/KpAatp7Ls8Et5vVeqAyqbRKRDyOJW6iBA59sFnw/qIZP71+QIAACZPxmMzMOB2qg2IQMakYLwOk1mvt41X5BJYLC5HxKPiIxGXYUBv9XoREoFEQwIEoYxFxngmJGbyZDwOAxNxO9UGRChjkQlYTMjrnfjxwrmgUKir0x+4MozNE2pTuj48qW0acRqcP7kyDBGHSRSQZqeyVhZw0yWUq3JlGM2ej79WKYKJd/xtrvSPK+YDAIC2aUft6arj/QAAYMAQp88umj999cVzFvypqXa8s1lvoabd+mDp+QEt/+cioNz+xmdGDyfjpntn/GlyhUKhrhp/4BQNJDxGwMAzyVgpi5gmJudEUfOjaT/+b1IsvSyFNTuNlRNFvbju7uoR9nlCDK5IkpTII//B3TJd+n6NWjlqw2KxWCwja/LMgqm50qtpodewzx1iCqSShDjun2goSNjnDrGEMkl8LOdPlCsUCnWV+AOnaEChUCgU6v+D/9AUDSgUCoVC/RdDQykKhUKhUFcEDaUoFAqFQl0RNJSiUCgUCnVF0FCKQqFQKNQVQUPp/6lIOBwOh8ZWOvtFvykx6hdEwuFwKHS5ybfGRSKRcDB4tV/uCETCoVD4jzqNSDgcCod/5ir+H4tAOBQMBgOBQDD058xmJPIL9yHq6vBHjStF/SrGyu3b6qtanLF5Muovjkk1Vm7bWn+q1RXzaxKjfp6l4dTRM1/t1iVNiycD/HgaLHAODrcce+LlHnGulMkg/eKqQn9SPqNvZP/zr3f5GQy+lPk7j5oNB0B/5NOK5k51SJYmGlu/58/FOmQ588GGB15476NPzyrDQXFBOu/SJP/H7J1tZ6ve+GQ4piiGRsSNT6CGutpgMJirrFRavWfPs/dc8PwHu+o6fmHG+j+3gN2kN2l0zsuvS3OJgM2kN2n1zh9Nun+es7/rWMVL99xz7/j1efq1Tw6es0xYggZ1QdBpN5tGh0e9+sovPq882665dC2csNfrNMnlJpc/dHWMubZ3NZ6s/Oq7JmMkFDLXHdhZebBqwBoJhH2mkRGT1ekLXvqF38I9MtJe+c67p+RWz4TFKCIQsOg1JoPp4tUdrlw4AOaaPdsrD1cP2i7d9usZNPL2PZ/0iKatXrHxjpVzirLGV/P5X/GbXCOVH31Q2TRodLmH5c2V7394RuH0/aq/3J8RcrtsJsWQxqOv3v7vyuM1wza/0aGo/OC9ypYhk/vS1Kg/r6sslPb1m5ra9UESiUgikcKawbrmM8d7NBcWJPl/zqdTyXtP14x6CUQ8iUQCs66n7fjOppFw+NK1eFAXIFg8AYubuDLRVQrBYHFYAh6LQBhc8tbG7rYe3e/2LPabzcruY8f79G7/7xw1LwsBQLB4HBZ3JVOJ+oyG0ZHqBnL+wmtXrl+3cFpOCvfSJL9B0Okzd1ed6FbonX5AMFgsgYD9/SZoQwDB4vFYLBaDBB0+Y3flie4Rw/lJv1FXg6usgre524fw0h5+4a4V5eXzS3Daanlno1V0bZ4EABuw6JUj8v6hEbVWrbYGiRQ8kUDABII+i6q9Z1ipHFWrzQ5vkMCkRYyj/fLh4ZFRtdloDhJ5NHzIatSbVEqNTT8kH1G7EJLXqjeN9A9pzV4ijww2s8GkUmqs+qGhCVuHx7biMbiww25QD3QPjKjVKrXFE8FhiQjGYxoYdnntQxr1yJBCrTeafUQ+CY/gwg6bQTU4lniopa7T6ydLSqZFM/zGkT65YnhkVG0wmN3AYBKwCDbksOkvJG6u7fT6qZKSafGMy1bwekbko94Bb9Gjbz6wYsH8hVM5OKWqsmJAtGGyCIchBSfsSm3xAB5HJhOxIQCHtntgeFihUKv1JquPyCdHLEalYmhgaEStV6t9OBaZgPE4dCbliAPDp+ERBAMep9GqH7JF+HR8wKxXjCXWqdXWMIWGx3hcVuvIqCXo7JcPu30YPBbjcWsHO/pHVCqV2uT1hnE0+vmFCwBCHqv9kq00DNZvHOodVChGR9UWsy1E4tPxfpNOY9aq1Bb9kHxE48ZSPCaVYWRwRG/zkfgUPGBDdotOKe8ZVKg1arXFiyHgyCTixHfFkNtj0w509I2q1crhjpZu84iLX3bNJDGTJxUyyWGnQyvv6FOo1Wq12efzmjx27dGzyIxFGWKSx6bWDKrswGSRsDD2dA8HPD7DQPfg6MioUm1w2DwhOtmlUJgtuhG9ZmRoRK3Raj04NgGPx/osVs3g+J7VZocfMFQaGQsADuPQsGJgaFit1mi1HjybgLideuVg7/gp+LBEHGnCKQRsZpNNa/RTWCSs36wZMllcIRyTiA/7THKtF08isvkiPotDj9i6qyprtBZ/hMX2e62q6npsVAxCwlhUw2qNVufBs4kEHAHcbot6oLN/RK1WqZ2eMJZIx+K8RrnCFcHhCEQcJuwPj3+MBKyDA83NRxudsgQy4Mh4HIlKxEAkBI6u6npfEIuI+U6lXK1Wq50RMpZAJoZdHv1A9+DIyKhKrTaa7X6EQSeFTBq1w6TX2M1K+YgPT/PqdRaDWm3WDQ8r9V48zaNXaEfkSpMrQORRSSQagyPg4rFBl0LhCDgGRkaVihG10eYKELlUPGCCVqN6VN4nH7usarM/iMFTqYTz95XbJm9tOVF/sDEgmy7AOoxmo8sRwNCZZCwAErAaDTaDyUUguIaHXW6bQqdRyIfVWr3BS+AQ8Vg81uex6ZXtPUNqtVKttvlCXq/d2n1m3xk7S0Qg0Oh4ijAuSiDk0Yghm0k1Iu+TK9Q6tdqDUEl4nM9rtQwp7AFnv2JEqRhRm+zuAJFLJUDINqoaGe6Tj6rVWrXaGiCQ8WGDbkRd20Wcfk1BlFAkE9KIfp267ezeM3a2hEig4ANut183ZMJwiXgsHuN1W0zqPq2XzsDjMLjLPAJQ/zeuvokDP/ustk9lvfup+VIAbKRx77NnO+X0aV/cVAwRrHLv5tc3f/T16SEgQCR1/duvrl2Yn8/SGeVH3ih/ap/NpUUgpmTJ8odfv1+09dkHPt3fMKSFaEHMsueOPVzqObrzm5bDR5pZwdMHOsPTH30vy1ynPvr1QVfM/OePP5h0supAy5GjzczA6YNd4emPvZ9lqlEd/eawK3beC8cfnEFPDNVUbf362We2dwOEI0nl9z104w1ZaYbjd78QLpBUNPYoaroidHH8/OePPzSdGh86c+LfXz37j129CIQj4bB0/rzrbnrl4QLxyPZH7/j4UKtCH+HwYqdv2vzumkSiyHn6+L+/fu5CYtnC+dff9Mqjs6WXDaWm00cPt319gvP4+6tiCFhSpOfclprd/9LPrHy4mIil608f2/LVC8/v6gaIRJIXPPTIjbcsKRO4IqGz7yx6ZlvjQB8CrKi0xS8evVe6Z/+/NlfsqB8BViQy/5mDDy2JU3Z/c+arHcja43+ZQsAyI92139Ts+9g088SDhervv37+8y921SuADJHUWz99+4YsvfJMx2dbNaVJH396cMH8RzctK7KZvn3xpk96IxGAqMVL1m949sFZsvFMR2ydB6q/femmj3sBAKKuWbZh/TN3ZogVW++7+ePjPRojJMZlrXju2MNTNNs//6yj5kwD0VN3sDsy77mK9MHdA5Xfn8Fkz3/+2F8mI1JP1f4vvnz1tX09ABBJveZvf9uwfsFMwYWCQyRi7eip+va+Wz7tRcAD4TCvKG36NRWPwosvwqxVpVNkA+3fvHLLZ30IAEQvXbk8f2UJvPYa5u/vrchxH936xZH3Gtl3ff7mCilwCQAQ8Wq65N89cNMnPXK9F3hFmTMXfvwQvPiCAjQn9UZ5/UgEg8PNf+74XQvTUy17q7597dZPegAAIjFFqzZu/PtdK2XhcKjm23te/3rb6UYEsHjioheP3p6jUu7/8vW3D/YBApHUa59+cv11c6bxz5+C4fiu73uPdokfeeMa6ejWN//WbY0pWP7C/FyfYttd35HKib12+mgP58EXs2vvXfd5laLVjDDFwpQ588L9sgLB3lFNx+GGCI5Invf88XvmJ+aTWloPf/uXu7/oRcAbmbrwrpvueawwU7Hn7hdh/i1z58xK4npU7qHdd70AC27L5RuPHnzjnU+7AYtFEta8eNv6lbeWcCDsB9W2F96zqBRnKHDsi2MAkdDUez+7+fplc6mt/dse2fBBt8rsg4gwbtKi2979xxrM9rc/smpHTpMiXTvq571YIavZZzA114WdzdUq2vznvkiuf6/l1PEOzszFj3/9l+gd733uoAogJSXywbuu0qRP9tZYuxVhUVbp4ie3PTIZYVkObnnvi3c/OjGIAETCobjrb75r/V82FovGf+62Y298+MkL3x0JAxaLAEQiopklS25+/8XFUgCc7uA3W4ca5HDjjfDiC+Fkxr/7FL2VLRESgzvvheP3z5Zm8gY7j2x/d+3rBzHgAchefsvUggz6dw/8qwOcIUSaky2Jn0KzJz7+/spkb9XOdyre++ykHMiRyPyHvr53dbHHeKr+hY/spYkf76x29inD0vx51zz+9SOTMe4TT7+9edenlRoAPIRTrn/j5fXTkEBbw1tb4PHH4YsvIL4gaVKC6uTfH/5XB7jDiGzO6vyUqPzOb4fWHb91miCdO9C2//AXj9TEff2vJWms6D9j6/T/U1gs9mpu5+7p6Ak5O6PiVoEPA23bX+4PRl/3dNXzsUE36E99cby9nRXAioZbv/gq8Netr2dRpUwgUAKRwKlPbv/QX/rIXx/OTgu19dceePXjc7KZdtCZKYyMSXf95d6RL5/efnigYOaiZ6YvHzz2wK79Cza4nToThZlZdOdf7lN88dSOQ4OTShc9PX25/PgDO/ctTJb2Hu1XDOTcW3VPEgDWcPZwrblhdx2nwBLp+U43/Yn16zNeCnepWisf2L53YbKk69CuhnqY+nbVO1mAN5/YdtjrApNZ3bj15uHMB169JkXIdysNwx0fvb274K+i+n07Gxtg2ttV72YDznRi6yHv+Dpfv4ZCPmpSnU2IuQ6DEKCz8suuPmXh/VX3JwMg+tMHagyNe09GLcC3vPC4acGT9/81KUMEWHyYIW4+dM8Xo5yyDZ+/NpOr0R99993jTfw5uYXZwrKRbTX1D2fmANMwOBqwN8xI+QtSv/vpAWL+rc/f/1pUwAa6Ux8fre/0ByPWLr9ucOSm42+vYyazh9uP9x1smvXSiQ+zEERfWetlmXQA46HU0thypu9Q86yXK89vZfe0Dem+3fAe7tpX/vFsQpzzXHvT2Udfr90y2wUaA000ecr6h/6q+PLB73ZQZ8+75plZSwbqHvpy29IU0blverS2aQ9X/SUJIqA7teeMuulgY/qNY6u5AcBQ6/G9ez/vSHq16oks4Pnrq85o6wbOXytrQ+OQsbpz7qtVH2cBaI+f9RN1euBAJAz6o1/tGNbBjKc+nT9TCqyxBd6cA8r2s//8NHnda09mxXDDbT3a/lZlRBAYVIrm3X3NvILXwqpA67cPbNlxUhjhlZeW3ptetdYHADBw7IAiuPNY87VrWUdfeEURu2jlF8+/HguARBgiR93rPfpI2V+rHk2MhEB/amf1SMvRltQb8sbb+NhcZgjLHdIpQyFoqaPJPDoutHX5chLUauCnQYgFMAoEHD5m/u039hBM+fyUpctj+NazLzy01Zh909wN//obacTTtu3BM6c7UkatQ9Vntg5l/LPq2SwIt2w5qOn4eCv1neLzF+QinJSSUmRTqOlr/K1/L89ITpSxmT9sVB624zOSbqiqeswL7V++0qA419hWsjIlee1HW+d7A6EIqBvb+off3Nkwf74PlIdthMyk6589+BRBTDzZq+wIJMyfsvSBBwa3PvDJZvqq69fOnmft6/rnd3tW3OXyAFABwDkalh9Xr/z4sXWCGHttU0vX69/tWJkt7nvrm05b4pIPn1qa4gPdkQ93Es7/0GOSi5dd6yPyLPuItz5eHh9pqqy0Df24wjTohr5/G5bdvXRD0dM4ubV1zwNHjncm5znPHW491c15s2p7FlAJQGJyqIjFKbu7+l8wd920yeleVfvQV/sCAE27Xv+625O+/KN/LIhx6I+++2lzMztEz3MMh4bPqFZ/9dQ6tsxyuq5l4MPt+1bllsdNu/O+9LXrnAHwO6H9uxd1o/WdmNyLMsSQJouvfejuU/+ChRtnFJekCd3DjnPK9a0dSzLy0z0Krd11Zt7KO2JJ4t+5CxnqSl1todTS0XV431O6vRQABM/npuSvmJwnCgUwlqHeoTMtHRGCQsIJB8A93NCZihf4iJFwo7FgVllmfjSFRwTwKXQ99S3BSVMn5UydnB7jCTE87YQ36hVpJCNdwImNy8/LyBCkCY6aJLL4rDwBlTjIPmKNBJAQXciJjSvIy8gUpAmOmmTS+Mx8HoUkZx+xRgwBxUjDyephJNzOB0DcI72DQklKQnYxOSIoyc7NKchLiQ8gVP8Q+4glYggMu9g+YeaCuRlZfMBq+qvr1KMeh1dnaOqv9GxR0gV0WsDusliaWnOHrnNonByfSLZgbkYmH7CaPlGtRn3pFbmYU6Fv2Pf8/aeoGASLYzGi0m+6Y0oUFkOwqkZG6qtOq5BAKx8AcSu6B8Sx+e7BfO6xofxp12UVFSTEUgGCVrAcGAwkC9LyS2dkZOE5rkjGF2/1axITIrmylDTpx7Vdq+KTcHJdJBQqKUtlmOp75ad7lQ2kHiEr7AXXcG17Dj9KwqYIadGC6SUZOQIMK2zqi5htPY3730+LfnRe5uLZxEjkhwVHyVgAs62naf8HadGPzs9cVEb0DigtAw3BKYumZE8ujBU7XBjnIOaNM/J8kpkh4QvT8/MyMvhp/P2O+OiEzHxCAFGzDprCeq9cUVfbbMC6mvgA4B7q7ItKKRPqAcafsA693o5V04oXL8jI4wPDqpf3u1suhFIyBswma3fbgQ9TYx+bn7V4NtHZNTjaEpZXffDPnITiKcWzCiYnSH5oayNigOgJqRtOfpPCvnfx5LJpaSnsINJN4CbEpWTk5mQkIPyAaDTj0zM+rcnsYJE1zQc+q1ID+C3yXp80nCTQG0inFAlRC7MnT8vIYAJEQmA5sFtVV9ltwdnqeZEIuIfae2OzsRIDwHgoxcUIxd0J8d0jBiQip4jTKTqMf6SpJ8JSKbn8HLKdafcCYABDYAkFNBaeIYpNTI5jy1vwwoLUrLxJBRnpGLob28o96UYMIyo70cgsXjQ/I5cPWFpGz9Y+RVVHdzHxx+EGAEemMdlCEZVGiEtJjZcwaRM3slJkooLJkzIyWF4gpIlafHiXOxTxIt7+U18f77O4XE6N1gE6WpyhLOBjpkTJCidPSk5j+0CFxTFlovj0vPy0aHoKb7cjIS4xM9epCVgYZ83B0PkOEEQWTjxlUmFWXhpPbLPbrRZGrTFo8PS5o8hxhbNnZWSwvMDs5NEcP9xUAAAkOocjiBLRaOT4lLS0iKm3Ta7+8R8PBg/8SRnZuYX5GSkRkinSxT3hQAzd/SoYDeeXlWdk84E0VmXs9pslIioVZHHJCTGGoEIJ4SCYFP2eGFp8YdmsjCyawxVK3/W+0oiljsRxCJLJxZOy8hKZAqvZaHbQWy3BcBiL6OV1p46f7NaF/GDoaEHYiSyJ/aJOxVg8mUoWi6hUiIpLSoiRsr0hYyA/9asW89y4znCf1TiaOuVGPpWAv8p6ufz3u9p+EASLxRPJRCzF0nbynM1D4OXkSqmRMOJ0OOlUHIvJpVAoNCZFkDNjVm5ODAk8EQMuM0mMpRIBACAYCHkDNk6ORMTg0gBHodC5Qt6wxu72OalsMocnomMwdDqTIxGyGBw6HkulcRGEAABUNoXNE9IxCJ3B5EpFF7YCgne7PUR8iMPmUShUCoXCS80rzp0yKZqBJQE3N1ZE49IA8HgcbSyxy4MX4ARxCYLxJjcAgEAg5PXY+Fw6ncaiUChMET82f8nSnFgyhAgCvCD2osQ/D8FicAQyhUJx9re26uVWRvHUOCYGwbpdbiIhzGGdz2RaQUluSTaX6LKPQJ6ER+VQAQAgHAKn3UlPZAv5EhZg8AS6NJqrs/ptTp8gVpwymddeZ3YPtKnCAS+/LJOLOB0OJp3AYrIpFAqNQxHml83JyYjnUkg8Ej8tTYKQCQAkcXRuwdyVuUlUXe+ebceOtreOBkMXMkwSR+cUzl2Rk0jR9+3eeuxYR+uQ2++LWHkF0WIKiwp4Co3J5PAGlBaf303jUNlcAR0DdAaLIxUxaWw6Hkel8gBwbpebTAQ2i0ehUCgUCi9j0pTcojzZDw99r8cH9CA/NU0CpIsfugAAJGlsfuGca7MTyNruXd8dO97VrgqGEAQw+KBFY6JgAxzmRU88PIcdm7v4lpmZEp/+zOHKPdVnBgIhQIAtZrOoTCIAgYCIpdE4D9482H225sieusEgBUOiUDgsJp7AtFrsDo0qnMxkcUUXCnhul5tCQjgsLoVCoVIp/MziabmF2ZIJcYvNFRIlcaYRpaprWEgVpcVSIoSuRqVGFUqKIbOZY/f4pRAMsDOkIo6QAYDFInQGG4MhejxeDDMsSE4VAwEHJA6PFcGRVAYtwA8/za9Ej+cJZTFcAAQBGo2Bw1N9BsNA/d4vj3ZaIgE8hcJi0GlUns3hDYeDjHieUBp94ZWEwaez2Tw6FsNgsblRYhaFQScSyBTOxOFJeAaWn5MkITJIAEQCnkLhhsMYjVqNF4NQ8sOu/ncweOBkycQsAR0Ah8PQ6GwMhuAx2fxUDykxWQS4ywyTOi8SAafDRYmhCcVRHECwWJpIxrG4Qma7mcDE87OTJXgaCYBIIpApnHAA4+ipPXCiplGhAwqFRqPweZxAEO/1eS7d78VIHKIwYwbhrN7Yc7bZaR6lTisQooH0T+hqK5Wy0lLKxHc/OkXa+S3ubYVHo+oY0PPiyDQiichKKi6YsWhtacqFJgR7S+2JGnpYrbeFZSQg4wAwWAweS3aN2Oxelw/ofr/X5XBymSQCjgjwC/f0TyEQCPSolOKpqx+/PocG411Bnf3K9qOXud8JBHzIiXicDj9ECBBw2t0+rw9LxVAYZG72wptvmz4pTnLhiWg80F/VO+xznU/scPu8XhJAJAh+0/CAD89jsYWMi1pMqDJebvbDL62KGdzx+eaORpumsUMlyJAwCQQCIyZt8qxVf12VTT//AuWWj7RXcaHf5vS7/MAgACAYIJKJvmG33WlzAw8J+a1mF52MIxMpTCkrJned/xOtCvrMdB4pNpWNIEESiZUydd78+ctLEsnn82A8dehgxw9ZClJ4qTPmPDZzA7d/yz1v7ToZoM1dTC1JEhIAAYAAhZc2Y85jMzZwB7bc/ebOU0HGtJRpqyRkp8Js87v9QPX7PB6Xk8+m4HA/N7iTQCQwYjNnpK544NrsiwpN5+HxOAjh3HabD8QECLhdbrfLA2NvEAABCj8jNyq5dD2rd8vdb+08HeHMSChaLMPELl6zQlFl7qo/w8xjT43jnM9CiEjjpRf9ZdJSbn/VW1/s+OiQkh2PfyPJc6H3XigUsVvNRBo3pOivD8qbyNd8+twCPlDUe7bt6TvcjUNIVCbS7/G47B7gjl06ApHAiMsuzbr27muyLnsKADQ2icUJ69pPKRz8WEp6ZnCUbO+rHyJwk6JpHJsOdD8k9QVC/uBPDtXA4/ERO+LQa20gpAO4nB4kFGDRGBHAuH2BYCgIEA4GvVaLK8wYH0UTCoPL6w9HfrlXhUep7LRu/sq85MuXFmQJJfaz505WP/XN7/faHolAMOD3BBxujyvwq4sD/mDI6/cBRAACLqfb6/HChVv2YngqGWfGBwx6O4hpE/YficD5iwMAgCBAJBD9Gp/DZnGBkBD2261uCpFJJV2mETPsB0vtvp19uMyy1Y+unEF3+Hs+e+xj5PI5iETA5fOHwiEAABqRHFu0wLhv6ORoszCWVbQwAfAAELAY1C6nn8BNEtAv23MC9Z/1K2/DPxkiA/LvePmBOP7Q2Q+e29sYBr9IJjVWjrY0ne72jwuEQrQoPheXFfj3vnqnyuj3+/0BPBHDosUPfXWuQdE54rfrtMM9bf1zC6N5LPGlx/jVeEKet9vfcfxAk9/tHTt0MPhT05fwhHyPATvY1aj0e31+bUfLoEapJlPxLEqCvKKmYbRbObaHgD8YCnMFfPeExO3NAxqVBgACDlDvfvvuD77a1SK/9ADnpa2+69b8cnbPP2//8ozLZ+MIeZ52T8eJgy1+n+98Jok8qjCqFLe5vkPVq/T7/f4AICFRlEx3SN7SVtvvd9msirOnB3LjmbHiOKBQaazi0hH5/oZOD8mTmijAE0ASHaU7NNjcXtc34bJfMrOOtaWz+dTXR6w+f86KN16445asQpZZbzi/1dbS0XzqmyM2vz9nxZsv3nFzVoHEb/fhkwY+ra7X9Kn8VpVyWNHfv2RaIot2cWPYxfgigavZ0X7qSOuFnASDoQk5YXGZ4GMPNJ1R+K0uv7G/Rz40MHxhq7WptbF6yzFbMJS/6p2X7rgpLY9hMRgBEKxgzqPr47ScoS1vHtP8MPeRS67pPfLO9lGtMaH0vofv+Ps1C2U6jRqC/lAoGAz4/X6z2VdXd0aWRYkXx8VLGUlZ+Tw/LuI39HXLhwcUBDpGXFBE3K8Y6G4YHP/FgzyRwFFvaTt9vH3CKVx8MWkiGY8vCX+3VZUShxclpUQxZPFQW4ewGQj1h+c3AggGozE6tAZtIBAMXe5OZPNY4VFC196ddX6L3a/v6ZJj/fapWQURoA6pTRa7ye93mo2K+jO9Xo9jLGy4fdA/onJ77MFfnDYIQWhsQlpxpghLx/qtI4qhrrZ+gN9tFA0eDzmTJnl1dPlgh8bvD/j9geCld92lEIzZ7h/Vjfr9Xr9f190+ODo8emma8zgpsUwj335wd73f7hr7HULhCIKEIphBpcHmMAdDoXAEMFgQycSWU5rW+lNdfq/LpTxXM5AkJKVEJ1+6xzEYTHSGNFYaT/N7XU5lQ02/xWy8NA0AIBCMYAaVBuv4gQgUWt7Sjb6jVQqPMbBgai4AHgBMZ/a/+/lr/9jX+jteWNQVuDpD6ZjUlWtWJJaRDz216oUtvWnTH1yfiG/47rbScTe+8cERDSWtaO51s1Uvr7xraWlpaekN9727XTPztg/vwNe8+coNpQvW/fOFvcl/3VSUGD2hG8VvljZz7cqZ07Bn7y+dP7u0tLS0dM3fH99cpwO43N92eunizMTotpfWlM6eVfrIEYPCzpIClyMpve/zOzFVr7xwXWlpaWlp+bWld2w5MSAovCYjQdb68ljio8ZRB1N66Q5/WkzZ9IVTHyw59/T8ezdXkaOWr5o6KXjq3tI5s0pLS0tLr3vqqa86ffy05Y/d6d397LNrSktLS6+57u5Xz+aX/uWmKPeJL28unbv0jhvejZ43O39KrhAA8BSatGSmsYWRxmZNLWQBUACKbnj2JqnzaMXN5y/7xn99cWrQMjEbLDZoWgeeX1VWWlpauuq1HoIvf9Fcwfn3aBYb1K19z68qLS0tLV31zz5iIP+mtUWzHv767uC+J59ZXbro5o8/OJn8yl+KpcLzJcjLyyq/ZU1Ruv34PedzcsM/ntvSeCFkA8TnluTMWeD41w2ly+aW3vVV/TkzL/7CRjYHlI1dz41lY/Wbclo4b97s86E7ft6qHAHV//Hj925Xq6wBAAAqDUL24Ls33Lx0Tmnpsr9u71BMvnG5JMQc+fdHj924rLS0dPHdC57GLLutfPaCVSXR2ATLszeUls4pLb3nm6YGMy8OCBhc9LxNGyjdOz++sbS0tHT23PnP7GZEr7y+IF5/6K7zp7D2hZe3tVz0tKXRgSLE9iHF6UIRj0KjA4ZBOjQclcTB8S6EUgQLwnnTp5q8nc/85fo7Htw+qrP/+GGbWLhw6ZIbYrseKV0zv/TaR9uVvsxN62cSY5becZOl9d+PbigtXX7n394cjeMG8AwAoCWLUzOvnb79w9uW3f/S9p1tPztxAj1VFJWwhP/W0zcuXlBaetNr3+3WSVLGAsDvAweQt2R9Gsm7/8mVpaVl80qve+3bBrn+0mQTcKdMK5PmCb5/qLS0vLT0gV0DXVZOzKWJLuCmTyvLz+Y2P1S6rLy0tLR00/ObdyrE5JjyVfNOn3j75gcffuuDUwYAPEDetQ+vS2N07ry9dPb81df9k5admzdn8vnO6RNhySC+ZnZc48D3d60oLZ137XVPt9H9XsplJo0gSShxs1fPP3nkjY0PPvqvj86aAUsEcWF2cvas/ISsKxobi/oDXWWDYfr7DTaXPy1XSgFAAHyG/uEBebuWnDpzchxeq+ru6+nXOsaSMpPSMxJSowhgktec7DYGQgEAmiAmNqs4kzLUXNs7YrB7gEamxRYuyBQGVQq52xGip2bxKe7hho4wXciPicJHLOqaNkhJAasVfCFGahZvbCtDJIiR4cIWdU0rpORHC6hO09BAc+OQdSx8UmWyaGGaDNraIC0/ms+hEAJ2l0Vd0wZpBdF8jFEt7z/TpQUApkyGj7D4HH5KJo/iHq4/3a00OT0AgCUBK21acawYY1DJ+8926c4nZvO5vJQMLtU9fK7aSYqXRqWI2Beujk+nVlkGNcTsybE0DIIFCNjUBnn7yW5ImlqcwPF5RgdamofHM0mLikpIKkjnUF3DddXdKovLA0CgsqILF2TQRke7evuHDA4gAkQVzMuI4tGoABD2gWu4rtpJSZRFJQtZYwd1D3c19/UPG8ZnC2KlZidTKRjQ6IjZk+OoCGDBZhgY6K7rGSsE0KKzE5OSMkQXOiBa9QMDPXW957fmJCYlZvAB3MO1p7pVVrcXmHRObOGCTL57uK/PGyCwklNYFPdwTRvwY0QyIfiN2po2yJkcyyVYtf39bW0j1rEd02JikxLz0idMaOfSm0Z7DjWOAgBNICCReDQMOSsL2tpAHEfCuwzD9X3j2YjJTY7hirHWcx2QPTmOS/eY+/oHuwyutOklsVQ6EQPgchpHOg83jQD4Acj8OGmMqAA5eNcj3YyM2KQMMQ1IGGx04fxMKYsc0fWO9DQ0KQEA6EIhkcBjENlZxdEU13BnY+/gqMkFgGCwUYUL0rhu12h/e8foeKSix8YnJ+akCidUGLocenX3CQVt5mQZj8rwafUa1QkFfebkWB7WqB6xq62UrKJoCoBt8EzfwLDCRWZKZeCgJWfIJGIGMeQOOUZq2kCaJJFwgy714LkzfVaAEIii0pLS86O54aB7uLa+V6sy+/BkMlMqAzstOUsmETHArtN1HmsYBVxUYWpCbLKACJEwuIdaewJYOic+WUCJhMA93NoTwNK5MlHI3nm8YRQ8ASCz2VSmEOelZmeDQgEkBjchmU8eS9wdwDK4CQkUnH20pg2iU6Vitt+pM7T0QU4ODA8DmQwMBvT1Y3Mmx7LIeJzfZNQZ2gaw2SWxLM9wT+9gq9wEIR8MHvpEVzJ97rzHV2T8UGV6IfHkWBYJHzbJRwc6awfsAMAQiwlYDptMSkyE1laIz5CKBHRi0Om3K2taITZDJmJ57SODDXUDVoAwACc2Kz4tO4nuMXQcalG43UQOhSEkBBjZk2OZYa2is6+rV2MHHEBUVml6HD/o1Ro75LjsybFMIg7nN+o1xs5hXE5JbFBxun9QNWwGDA7HiorCeBnRYhyFAnI55OTAwADQubzYBB7B7zZ0HGwZ8XqYqbFJ6XkSAMvJt15qwWcUzbquLH3sDD2j/R0mo4caPyOJf3UXif4bYLHYqyyUolB/Ul5tcGTnXS/CzBvK5pWn/tmmev3vY+w+2tE73G8ACAVhWN4WXzZtauGajMsU8652IY9ZW/Xkxy1Tk4qnLS2Lpl+6HfV/D4vFom8zKNTvAUNAyKL4RBGPSf79ajJRP8k6ePbcsa1bt27dumPf1kZOQXrS1P/GOAoAoWBIP6qPL0hKTkXj6J8XWipFoVAoFOp/Dy2VolAoFAp1pdBQikKhUCjUFUFDKQqFQqFQVwQNpSgUCoVCXRE0lKJQKBQKdUXQUIpCoVAo1BVBQykKhUKhUFcEDaUoFAqFQl0RNJSiUCgUCnVF0FCKQqFQKNQVQUMpCoVCoVBXBA2lKBQKhUJdETSUolAoFAp1RdBQikKhUCjUFUFDKQqFQqFQVwQNpSgUCoVCXRE0lKJQKBQKdUXQUIpCoVAo1BVBQykKhUKhUFcEDaUoFAqFQl0RNJSiUCgUCnVF0FCKQqFQKNQVQUMpCoVCoVBXBA2lKBQKhUJdETSUolAoFAp1RdBQikKhUCjUFUFDKQqFQqFQVwQNpSgUCoVCXRE0lKJQKBQKdUXQUIpCoVAo1BVBQykKhUKhUFcEDaUoFAqFQl0RNJSiUCgUCnVF0FCKQqFQKNQVQUMpCoVCoVBXBA2lqP9p797joygPvYE/c9nZ+27um2SXQIAECESRy0IV0QgGAkFMvftqq72ox3O059PWVt/2tHpOsT1ePva8PdUeetGetlKqFbFJUS4CCkmUhCRsQgIhhNzJJpvNXmcvc3n/GIhxASWMBcL+vn8xM88zu5nPsL95nnlmHgAAUAVRCgAAoAqiFAAAQBVEKQAAgCqIUgAAAFUQpQAAAKogSgEAAFRBlAIAAKiCKAUAAFAFUQoAAKAKohQAAEAVRCkAAIAqiFIAAABVEKUAAACqIEoBAABUQZQCAACogigFAABQBVEKAACgCqIUAABAFUQpAACAKohSAAAAVRClAAAAqiBKAQAAVEGUAgAAqIIoBQAAUAVRCgAAoAqiFAAAQBVEKQAAgCqIUgAAAFUQpQAAAKogSgEAAFRBlAIAAKiCKAUAAFAFUQoAAKAKohQAAEAVRCkAAIAqiFIAAABVEKUAAACqIEoBAABUQZQCAACogigFAABQBVEKAACgCqIUAABAFUQpAACAKohSAAAAVRClAAAAqiBKAQAAVEGUAgAAqIIoBQAAUAVRCgAAoAqiFAAAQBVEKQAAgCqIUgAAAFUQpQAAAKogSgEAAFRBlAIAAKiCKAUAAFAFUQoAAKAKohQAAEAVRCkAAIAqiFIAAABVEKUAAACqIEoBAABUQZQCAACogigFAABQBVEKAACgCqIUAABAFUQpAACAKhc7Sn0+XzgcTlx7bqFQyO12ezweSZIStwEAAFwGLnaUHj58uLe3l6KoxA1nIwhCV1dXXV2dy+VClAIAwOXpYkcpIYTjOJ1Ol7j2bA4dOsQwzMqVK1euXJmSksKybGIJAACAS+0SRClFUefZKo1EIhzHWSwWiqKi0agoioklAAAALjWKfH2r/6WSz+4+7evrC4VChBCWZfPy8liW9Xg8Ho9H2Wq3241GYzAY7O/vH6tiMplyc3OVf48v3N3dXVBQMGfOHL/f39XVpaTj+MLjVVdXsyyblZUly3JeXh7DMMPDwyMjI8pWh8NhMBiCweDQ0FBeXt7AwIDBYEhLS4vH493d3WO5q9FozlX3k08CAAC4IAzDMGTBPU+tzpdlOXEjIYQQSZI8Hs/JkycDgUA0GhUEIScnJxAIDA4OjoyMxGKxSCRC07RGowkEAi6Xi6bpaDQaiUQEQWAYRqfT+Xy+wcFBr9erFA4Gg5mZmZmZmeFw+MSJEzzPK7tVCie0Vnt6esLhcDweF0UxJycnYVcURXEc5/P5WlpaTCbT0NCQTqfT6XRut3tgYCASiUSjUa/XOzQ0NGPGDL/fP76u8p01Gs34jwMAAJgomqY/p1UaiUR27969YMGCqVOnchynrNy1a5fFYpk3b55er1cWrVarxWI5dOhQeXm5ch+0p6entra2pKSkvr4+PT197ty5Y4WzsrLmzJkTCoUEQdDr9SzL9vb2Hjx4sKSkhKIo5ZtQFKXRaKqrqx0OR3FxsZL0O3fuTE1NLSoqUnalLBqNxgMHDnAc53Q67Xb7wMDAgQMHSkpKrFYry7JdXV0HDx4sLy/fs2eP1WqdNWuWUnf37t0ZGRmFhYXnuoYAAAA4HwzDnNe9Ur1eL8ty8DRRFDmO02g04xfHRhIpTU+e52maNhqNLMuOLywIglIsGo3u379/27ZtlZWVdXV1FEUZjcaWlpY9e/bs2bOnpqYmHo8rJQVBGKvLcRzLsuMX9Xq9wWAoLS2dMmWKLMtKi9NkMsXj8WAwGIlExv6Kjo6OnTt3VlZWVlZWDg8Pa7Xa8xz9BAAA8BnOq1W6bNmyjIyMaDSqrKypqcnJySkqKlKeEK2pqcnNzU1NTa2trS0vL5ckSRCEgYGB5ubm8vLyffv2Kc3Q8YWzs7Obm5ttNpter1fuYnZ2dq5bt87tdkejUY1GwzBMZmbm3r17c3JyZs+erdRVGqkJixaLpa6urry8nBASi8V6enpaW1vLy8sFQRAEoa+vr62tTWmV6vX6vLy8sT8tNTVVr9ePf8h1ZGTk2LFjY4sAAJDkCgoKbDZbLBZL3DAOwzCXJkpTUlI++uij0tJSpV3Y29vb0NCwbt06pc069tDLnj17cnNzzzNKx7LzXFGam5tbVFSkNHZ7e3sNBoPVah1r+xJCgsHg4ODg2CIAACQ5h8ORkpLC83zihnE+P0pjsVhTU5PD4dDr9bFYjKbptLS0I0eOaLXajIwMpfu0v7/fbrdrtdqzRmlzczPDMGOFW1tbp02bZrPZXC5XYWGhIAiiKI6MjPT09ChROtYDfGZ2Hj58WK/Xp6WlKaHe39/vcDhYlh0fpR6Pp7Ozs7CwUBms5PF4+vv7y8vLGxsbOY4bq9vX15edne1wOMY/YMOyrFarHVsEAAAQBGGsJXlWnx+lirq6OrfbTVGUTqe77rrrOI47evTosWPHlAG3ixcvdjgcQ0ND9fX1q1atEkVREITBwcHW1lZl8fDhw2OFCSHFxcWFhYUej2f//v1jjUKj0VhaWpoQpR9//LHdbi8oKBjrhj1y5EhHR4eyK2Wc0eDgYGNj4+rVq+PxuFI3HA7v379f+bckSTqdrry8PB6PNzc3Hz9+fHxdiqI++1oDAADgs51vlEajUWX0kJKmkUiE53lZlpXRsFqtVhRFnufj8XhGRgbP80pbUxAEZXF8YeVtRxRFhUKhSCSi0+mU7lyappU7l+OjNBqNGgwGrVY7FqXxePyzP5cQogw+Uu7C9vX1tbS0KFF65neOxWIYwQsAAGqcb5QqUccwjPJvQRBkWaYoauympiiKkiRRFMUwjCiKSj6NXxxfXWksKj2rDMPQ9CejiJU9jy0qBZT9j60Zv6uxz2VZdqxuNBptaWlRPlSn02VkZOTn5yuPup5Zd2y3AAAAF+B8H4ZRwi9+mpJYsiyPrVEySZbl8Vk4fnF8deUuplJGFMXx689sI4qimPC+wPG7Gvvc8XWVh3D0er1WqzWbzVlZWWMlz6wLAACg0vm2SgEAAOBME2iVAgAAwFkhSgEAAFRBlAIAAKiCKAUAAFAFUQoAAKAKohQAAEAVRCkAAIAqiFIAAABVEKUAAACq4G1HAJOJ8vJLWZbPfMtmMqAoiqZplmXHv7ubEBIT5cGQNBAQw3FZTMpjY+Qom5GxmxmOPT0J1wQp82NKkpSMh48Q5aVFZ55a52MCr7MHgEtOFMVoNBoIBJJ2MgaapjmOM5lMHMeN/eRJMun2iZVH+cp2/mRQCseTLktlmUxNYW+apv1ykWFGKqNhJpymkiTFYjG/36+kaeLmJEBRFMdxRqNRq9WOn3zlfCBKASYNSZKCwSDP82az2Ww2syw7NgdwklAmrggGgz6fz2Kx6PV6mqYlmQyFpA0f+rxRauVM04qZRoMmyY4LIeG43OKO7joWbB7gX1iVOj2F0bITOAaSJPE87/f7zWazxWLRaDRJeGqJoqicWnq93mQyTahtiigFmDTC4XA8Huc4zmq1ajSaCf1Xv2IojSePxyOKok6n0+v14bj8amOoP0SuyTWsmGHIsbAsnWQ5QIggES8vftTDv+nymTXyg/ONBemnZsA8HzzPx2IxlmVTUlLGN/eTitK/PTIyEovFlOZpYolzw+vsASaNaDRKUZTZbNZqtcn5Y6d08Gq1WqvVqrRQlbuk2zv46WnaG/MNeSkaTfLlKCGEpUmmkVns0JUWmGp7Y8P8pyam/FzKpJMWiyXJTy2O4ywWC03TsVgscfPnSdKjBjDpiKJIUZRWq03ckGQoijIYDBRFKX1pokyOewWbmbVbJ9AOuyKlG5iFdt1wWIwKiZs+myiKsizrdLpk69c9k06no2n6ArppEaUAk4YyfjVxbfKhaTphDLOOoTgm2WOApSmdhuYFWZAmPOoKp5aCpmmKoi5g2BqOHQAAgCqIUgD4B5DiZGj3pler/vpu20jitiQWPNpaU/Xss1XHj1dt3Fj1zvvt3sQScN74vqHWqqd/XFXf6QklbrvYEKUAcDaCPz5Ys+WXL7204ZSfPf/ilibvQDCx4DlIhO9udXUc7fREEjdd3oLtTTs2/8+GDRs2PLdhw9YP2t0TuBQItjfVHnjv/XYfIWe/2xbzevo6amo6Rkc7mpo6jnV7o4klJr/ggLdpy4vP/+zUefPyH17Z2x0Vzn48VBGDYU/Hvn0dJ32ReOK2iw1RCgCEED7kHzx8oNsXiZ8a/Rn3xwb3b/71m2//bcfe6urqfe/v27H5L++2HT0ZuuQ/W/9Yca/7aM3uLZt+8Ys3tu1pPTESmsClQLCtfl/N395rGyVkwnfbrghxb3dX/Z5tb1Rt/XD/3urq6urq3bv3v7ez/mRcuLJPG0QpQJITYyGfz3PkcOOHr76w+7gn/Ely0ByZcdfDGzZuqqqq+utrf37+nlhdfX/PgF+IRAIj7lM8owE+eqrJEef9Xq/b7Xa7h4aG/bwYV9ZLohwNeIZH/Xzs1JrLWarz5nvv/db/fWih8+Gfv/4vty3OTQvzvtFAyO8eHnK73W6vP8QLhMiSGPGNjgy73W738Miwj49LQiTMR/kgH/Z5hoe9oXiUDwRHPcrxcLu9AT4ev8IDVvIe+ts7//vnf99R8L0/vrG5qqqqqur1H/7T46ajHZTkjwYCo8OfHI2IIIjxWIQfHQ2FA0OeYeVk8ofiylVIPBr0jZ4+yXzheEyIx8L+06fdiC8UiV1O5xKiFCCZSYQMVm/89ndveeKp/+pf/t+3Tc82GxLLEEIIifJSf/cRexZjMjCt7217/i7nKbc/+uwbu4cIIQIhB7c89fCDTqfT6bx2+U0/2NrbNkwIIcTX6d/5k1vLHv73v9Q1+RN3fLkb/vCdP2168vFnf/djZ8lyp9PpvP/fNv6llYi8b+Dt7zx69wqn0+lccfeqb791aPT49tc37dr84pt/+M5tJase/K3r/U3PvfCtcuV4OJ1feXZrU8uk+/MnZqizPSBbih59+ZHrDVorIYSQ9Dlzrn3kkWu12tjuFzY8utbpdDqdy5zOB55/t62tt/Hjdzc99sgrf/zJstvWOJ1O55cf/uGvGkhMJIS07Pr59x89fZJ9+3/rPzrc8NGmp+93Opc6nU7n3U+8vKNmAj3v/3AMWXDPU6vzL2DsLwBcTOFwmGVZs9mcuOFCBftbDv7+0Wf+30G3bdH8tbeuu3nxgtnZVpo6dX0t+OOeQ++8tmVf9fbKyi1vvrl96weBmbfccfPVjrz0FIu9aP7Sm8rKyspmy6MU0xg0r54R+uDnTzfSzvzV9913Z9nq0hXLCqQT7ZLZxJvErt+/0DPzm3fcfP1Vc9IN+om93/TsfD4fRVF6vZ4X5NcaQ6sLzXOyvrgnbiN9vSd6P2jUlKyflykda3rvvY+aBo1rvnfXmrLy2WTYz7SdDF2d1f7r/2hPKb1l7X13ls6a6fCcyFhx7VRjyOtPp7OWP/zEg2ucc+fOmDJtzuKly1eWrby+LO/k3kAmR4WzBN/+JlJSQhoaSJrdUTzfbkr8+Avni0i/OTBaXqifnjqBp2wjkQghxGpVsk+Fkbq9W9uPjNgWP7B8Fkcp7y6kGYbV6ViK0hgysgsWfemGm8tuWlo2pX/7aHYK6zX0Hti2dR+z6ntlpeW3zk/RyvHt7ZqbrtceevXFhpHMlBVff+CesrKyshuWGIe2t7QfZgr/+b7bysrWLDEEh0V3vzfbFtqxh3xpVVFetkWX+G0uUDAYFATBYDj7JeVZ0XiQCCApDXbWVr33+7dqY8WOguIF160oWV1Sct2MTEI+FXMURXSZOfmFc4qLi6+aXTQvR9czGPaFBR3DUrERl6vV5XIdO9LccrS9sWVouHlHrcY0Z+mKO9evX79+XfmaRVONKeFDB7fvfWfnkGZl2fpbbnBOz0jjxn/AJKExmXNmX718/dp169evvb4wXR8b6A1QI31HOruao1xq0bVfXnPHrUvz9ClTZ07PnV6cP3PJyrWrl89Ky83SiX7PgMvlaml2dR5z1R/p6hk+32Fbk1HE6yPaiCErV0/oM57y1Zk1wuhQv8vlamlxnTjmqm/r7hsJsnptan7RteWla9evL79x4cyseMex0EjTvoOSaFtw413rFUuyQ96OAx/sr21wuZpdLldby8F9Da76jpOXzT1pRClAEgqPDhzvPtrrz1h61cKrZuZYLWdtw1AsyblhzVcff/KZZ555+vEnH5vP76zvaXMdPvzxh3/7e9Xu2v01tbVH+gf7fNqhkx5vV5t0bU52zrSMcXvg3X1HOtt6ePOtznyj9gtsfl1U1pmpUxc58wnHEmKxWvXGTI1Rayu8boVNO3LiyO49Bw62drF5RorVjFWRRcL3tO17//1tO7bvra39uL72hC9+0iuHwldylOp0WhOr00gi/+mIkwUS7j78wc5d23bt2FtbW9dQ2xWQTnqlMB8y5Ojyblg6k7XqCTGaDCZLjhijvcc648WWjPxZ2af3EPAFKf9AuL+ztvaj2traFr+sNU2ZYjkjry8ZRClAEsq/puKxB3/41UUN3/iP7/zo5berD3R5PN5w7DOu8VmOtqZm9A5HevdVvrXrL9u5ta9W/nFr5Tuv/uBfb12YS9GE4bQkLAjC6RHAhBBC7CuvXzN/xeLelzfu6R4MxcRz7n6Skc16y5I7/ucPG7c+uNLU+Pb9j3/ja79+fyjolQmRJFkQRTEiD27/3UsfdmhKHvpTZeXWN7a+8tAt8xxpiTu6sqTl2MQRTaer5mgwLMmnxpzF47HRwdjJv7/y3L6+1LJHX6+s3LJp68tfX1WQnZJYX0ERhuOoiCjEPnkDIs3QmQsW3/7kL7dUvlOpeOHZ75bOvWwy7DL5GgBwsVmmLiz5UU3V7hdW+Tf/8f57/88//ekjQvjEUqf5vPH6/dunZkSsxpTMadY5C5fmEj1DPEdc7SfaO7VWTe4117F/ajt65GDXp+pZ5pQtKyn/t/j3n69srus+5+4nmUh/8Phbv3jreHv/tOu/+d0nf/OtbxSeGB0SeZ6QQW/kxGAfISIhZNr8vILpRelEjEYGPv6gdWRoMHFHV5iiBdfbbSmtv3z0Vx+Goz5CCCHDra3Vv3qlOhr1TV+YP3Pq7DQS58P9Nbtbfd6hxOqEEEI0epL7pUXa94a76vYdPb0y05YRaAgf/PvWBvKpa7XLBqIUIEnRrFaf6sjJnX3dXY//y0++dv9aw4dPv9s9PO4xSilOOt/47Y//+SsVFRX3/fBrz4trHl75pRtvWTKF2L3/9a93VNz55Yqn3jx0aNiYTek1xhlrHiwn9X9+5eGKioqKO+6578UdJzu8hNYYMgvmldx7d+pbP9u8eee7bYFPfYnLkPfArs2b//u53x6s++0TD/zq7Y87+xNLEMKxsk70/e77z3zj/nu++thP/lp7YvmDy3IMWbbFc+dRmZFXfvSVR57aOyXD2NSz8weP3F5x1wMP/fQgEwppz9EOu2JwGQvKS+8se3D27ue+es99FRUVFRUP/HTjL0LzpmWVrclvOlr51EO3V9z7zcf+02WIhzXnGOakIezUG29fZTm5//XHKhQb3hHN15UuvTq697sVd99WUVFRUfHwz37654bhz+hHubgwghdgcvjCR/ASQgihCNEYMxz26fbcLJMwwk6dm23SscrgI4rWULQ+PTc702az5ebbC65df9vCQpstTSOZjVSMtWXbbPnFznlFC5bMnT57lj07K5OKs3qjMcVmy87OmXnV0mn2acVFjun5WWkZDr0/Zp4xN29qtt36yS3FC/YPHMErBn0+SdJlzVk4a2puYfGi/NycqfkOe+HMDB0hFJFlTbptiqOg0G7w8VxWRootN2/WVfNLSpdNMxr0ZoNBNqXqKJ1j2lUlS6ZRaalW1mjLyXXMWLD8moKixVdNnTLFnp5uLy62m0z2ggL7lBzLFzgS6xKP4CWE0ada01PtmWxYMNkybTabzT5zzuwl199YmJ+pC9B6C2ey5TjyZiy8YUHBnMVX59nt9qxM+7x52UaGZogss9aULMe8uVOys9I1lFar0VpsNpvNNqP4hqvn5edlWxiRmLJtNpvN5pg5Y2b+7Bl2s9k+f74j3aydwB/8mS5sBC+m/gaYHIaHh3U6XU5OTuKGpNTV1UVRVGpqqoeXbnxt8KW1ORVzv9iLjEmpazS+5OXOV9amrpw+gWdDvF4vISQvLy9xQ1IaGBiIRCIZGeOHz30OTP0NAJMeRSj5sunou7TQvajehfXRIkoBJgdlWmZ0ICUcBIoQI0cJkhwTLuQX8EoSl+RQXLqAIMCpNUaSJEQpwJWMYRhBEEKhSz6d1CUmy7JyEFiWJYQwFJliYVoGo61DV+AkKxMyFBQP9PBFmRqrdmI/7DRNS5IUCAQuLEWuJDzPy7KsnFoTMrEjDgCXilarlWXZ7/eHw2FRFJPwV0+WZUEQgsHg6OgowzAcxxFCtCy1rlDfORLddjTY6o5GheQ7LoTERPmYJ/bu0eD29uCaAl2OeWLvZtRqtQzD+Hy+cDgsCEJynlqiKIZCodHRUUKITjeBO80KDDsCmBwkSeJ5PhwOcxyn0WgYZmI/l1cGQRCi0aggCGazWafTURQlycQbkTbWBwdD0qx0TX6qxqAhFLl8XoNzMcQl+ZgnfngoFhPlJ6612C0Mx0zgCMiyHIlEgsGgRqPhOC45Ty1JkiKRiDJ2V6/XT+itugzDIEoBJg3lf7vb7Q4EAoIw9iaYZEFRFMdxJpPJZrNxHKfc4VOM8NLOdv9fD3kbekOEyMk2BsnA0TlW7Q0zrQ8sSssyMme+//ZzybIci8UGBwf9fn88fmVPLXoWFEWxLGs0Gm02m06nm1COIkoBJh+lJ0qW5STshVN+8iiKYhhmfI4SQiSZRAQpHJPiV8y7CSeCoghDUVoNZeSYiTRHP0WWZUmSLnjczWR3rlPrfCBKAQAAVMFzpQAAAGohSgEAAFRBlAIAAKiCKAUAAFCFJnG+z/vJrEoAAABw/vpGIzTFext6L/sZBAEAAC5LDd1+mvZ0NCFKAQAALkhjb4Cm+w429gYTtwAAAMB5aOwNMlxooJ2ZnpVjv2YKJs4FAACYgNdqBja+tZNhWZYePfE+teiOBbYU/YRnlgEAAEhOXR7+nlebjQd+zrAsS/GjQix6Qlu4aKoFaQoAAPC5ujz8U+8cP7HrN7qTdYxGoyGEUO629n7vq92ZGSZuvgM9vQAAAOf0Wu3APa82H9/xa03rVkkmlF6vV2aZkGVZTpsmLv7azTcum+8wzXeY5zvM9tQJz4AKAABw5enzRhp6A029gcbe4K4P9xtcfyAjnbIkykT+/5iJSK79W57nAAAAAElFTkSuQmCC;" vertex="1" parent="1">
          <mxGeometry x="100" y="110" width="520" height="405" as="geometry" />
        </mxCell>
        <mxCell id="PYP074a0QvLQaTvZ_e5b-2" value="" style="ellipse;whiteSpace=wrap;html=1;fillColor=none;strokeColor=#FF0000;strokeWidth=3;dashed=1;" vertex="1" parent="1">
          <mxGeometry x="112" y="270" width="40" height="100" as="geometry" />
        </mxCell>
      </root>
    </mxGraphModel>
  </diagram>
</mxfile>
